SeanSlab_1.ufo
<glyph name="numbersign" format="1">
  <advance width="736"/>
  <unicode hex="0023"/>
  <outline>
    <contour>
      <point x="43" y="215" type="line"/>
      <point x="584" y="215" type="line"/>
      <point x="623" y="330" type="line"/>
      <point x="83" y="330" type="line"/>
    </contour>
    <contour>
      <point x="111" y="427" type="line"/>
      <point x="655" y="427" type="line"/>
      <point x="694" y="541" type="line"/>
      <point x="148" y="541" type="line"/>
    </contour>
    <contour>
      <point x="472" y="39" type="line"/>
      <point x="697" y="722" type="line"/>
      <point x="545" y="722" type="line"/>
      <point x="319" y="39" type="line"/>
    </contour>
    <contour>
      <point x="190" y="46" type="line"/>
      <point x="414" y="722" type="line"/>
      <point x="262" y="722" type="line"/>
      <point x="44" y="46" type="line"/>
    </contour>
  </outline>
</glyph>
<glyph name="ampersand" format="1">
  <advance width="767"/>
  <unicode hex="0026"/>
  <outline>
    <contour>
      <point x="743" y="67" type="line"/>
      <point x="641" y="159"/>
      <point x="515" y="281"/>
      <point x="409" y="379" type="curve"/>
      <point x="351" y="432"/>
      <point x="274" y="468"/>
      <point x="274" y="548" type="curve"/>
      <point x="274" y="586"/>
      <point x="295" y="613"/>
      <point x="333" y="613" type="curve"/>
      <point x="378" y="613"/>
      <point x="407" y="592"/>
      <point x="407" y="550" type="curve"/>
      <point x="407" y="478"/>
      <point x="347" y="453"/>
      <point x="280" y="421" type="curve"/>
      <point x="166" y="365"/>
      <point x="55" y="324"/>
      <point x="55" y="202" type="curve"/>
      <point x="55" y="62"/>
      <point x="176" y="-5"/>
      <point x="327" y="-5" type="curve"/>
      <point x="530" y="-5"/>
      <point x="657" y="119"/>
      <point x="730" y="311" type="curve"/>
      <point x="598" y="341"/>
      <point x="730" y="311"/>
      <point x="598" y="341" type="curve"/>
      <point x="547" y="206"/>
      <point x="474" y="109"/>
      <point x="334" y="109" type="curve"/>
      <point x="263" y="109"/>
      <point x="208" y="135"/>
      <point x="208" y="202" type="curve"/>
      <point x="208" y="276"/>
      <point x="274" y="296"/>
      <point x="343" y="330" type="curve"/>
      <point x="453" y="386"/>
      <point x="558" y="430"/>
      <point x="559" y="550" type="curve"/>
      <point x="559" y="668"/>
      <point x="464" y="727"/>
      <point x="340" y="727" type="curve"/>
      <point x="217" y="727"/>
      <point x="127" y="664"/>
      <point x="127" y="548" type="curve"/>
      <point x="127" y="438"/>
      <point x="221" y="383"/>
      <point x="303" y="310" type="curve"/>
      <point x="407" y="213"/>
      <point x="552" y="76"/>
      <point x="652" y="-16" type="curve"/>
    </contour>
  </outline>
</glyph>
<glyph name="plus" format="1">
  <advance width="671"/>
  <unicode hex="002B"/>
  <outline>
    <contour>
      <point x="42" y="252" type="curve"/>
      <point x="629" y="252" type="line"/>
      <point x="629" y="377"/>
      <point x="629" y="252"/>
      <point x="629" y="377" type="curve"/>
      <point x="42" y="377" type="line"/>
      <point x="42" y="252"/>
      <point x="42" y="377"/>
    </contour>
    <contour>
      <point x="409" y="37" type="curve"/>
      <point x="409" y="583" type="line"/>
      <point x="257" y="583"/>
      <point x="419" y="583"/>
      <point x="267" y="583" type="curve"/>
      <point x="267" y="37" type="line"/>
      <point x="419" y="37"/>
      <point x="257" y="37"/>
    </contour>
  </outline>
</glyph>
<glyph name="period" format="1">
  <advance width="297"/>
  <unicode hex="002E"/>
  <outline>
    <contour>
      <point x="233" y="64" type="curve"/>
      <point x="233" y="114"/>
      <point x="196" y="138"/>
      <point x="147" y="138" type="curve"/>
      <point x="97" y="138"/>
      <point x="63" y="111"/>
      <point x="63" y="64" type="curve"/>
      <point x="233" y="64"/>
      <point x="63" y="64"/>
      <point x="233" y="64" type="curve"/>
      <point x="233" y="12"/>
      <point x="197" y="-10"/>
      <point x="146" y="-10" type="curve"/>
      <point x="96" y="-10"/>
      <point x="63" y="15"/>
      <point x="63" y="64" type="curve"/>
      <point x="233" y="64"/>
      <point x="63" y="64"/>
    </contour>
  </outline>
</glyph>
<glyph name="at" format="1">
  <advance width="937"/>
  <unicode hex="0040"/>
  <outline>
    <contour>
      <point x="625" y="2" type="curve"/>
      <point x="575" y="-18"/>
      <point x="538" y="-27"/>
      <point x="485" y="-27" type="curve"/>
      <point x="313" y="-27"/>
      <point x="191" y="50"/>
      <point x="191" y="215" type="curve"/>
      <point x="191" y="373"/>
      <point x="309" y="444"/>
      <point x="475" y="444" type="curve"/>
      <point x="634" y="444"/>
      <point x="745" y="367"/>
      <point x="745" y="214" type="curve"/>
      <point x="745" y="169"/>
      <point x="743" y="130"/>
      <point x="715" y="130" type="curve"/>
      <point x="685" y="130"/>
      <point x="678" y="169"/>
      <point x="678" y="219" type="curve"/>
      <point x="678" y="343"/>
      <point x="596" y="414"/>
      <point x="469" y="414" type="curve"/>
      <point x="329" y="414"/>
      <point x="246" y="347"/>
      <point x="246" y="215" type="curve"/>
      <point x="246" y="83"/>
      <point x="321" y="9"/>
      <point x="454" y="9" type="curve"/>
      <point x="570" y="9"/>
      <point x="634" y="80"/>
      <point x="656" y="198" type="curve"/>
      <point x="559" y="221"/>
      <point x="656" y="198"/>
      <point x="559" y="221" type="curve"/>
      <point x="543" y="165"/>
      <point x="528" y="123"/>
      <point x="473" y="123" type="curve"/>
      <point x="418" y="123"/>
      <point x="386" y="160"/>
      <point x="386" y="221" type="curve"/>
      <point x="386" y="270"/>
      <point x="411" y="299"/>
      <point x="458" y="299" type="curve"/>
      <point x="514" y="299"/>
      <point x="539" y="268"/>
      <point x="539" y="213" type="curve"/>
      <point x="539" y="99"/>
      <point x="593" y="22"/>
      <point x="703" y="22" type="curve"/>
      <point x="820" y="22"/>
      <point x="882" y="99"/>
      <point x="882" y="220" type="curve"/>
      <point x="882" y="448"/>
      <point x="719" y="563"/>
      <point x="481" y="563" type="curve"/>
      <point x="225" y="563"/>
      <point x="51" y="451"/>
      <point x="51" y="209" type="curve"/>
      <point x="51" y="-29"/>
      <point x="226" y="-141"/>
      <point x="478" y="-141" type="curve"/>
      <point x="560" y="-141"/>
      <point x="620" y="-125"/>
      <point x="679" y="-94" type="curve"/>
      <point x="625" y="2"/>
      <point x="679" y="-94"/>
    </contour>
  </outline>
</glyph>
<glyph name="C" format="1">
  <advance width="777"/>
  <unicode hex="0043"/>
  <outline>
    <contour>
      <point x="440" y="780" type="move" name="top"/>
    </contour>
    <contour>
      <point x="468" y="6" type="move" name="bottom"/>
    </contour>
    <contour>
      <point x="604" y="654" type="curve"/>
      <point x="604" y="534"/>
      <point x="604" y="628"/>
      <point x="604" y="508" type="curve"/>
      <point x="722" y="508"/>
      <point x="604" y="508"/>
      <point x="722" y="508" type="curve"/>
      <point x="722" y="628"/>
      <point x="722" y="534"/>
      <point x="722" y="654" type="curve"/>
      <point x="604" y="654"/>
      <point x="722" y="654"/>
    </contour>
    <contour>
      <point x="722" y="654" type="curve"/>
      <point x="641" y="696"/>
      <point x="552" y="727"/>
      <point x="452" y="727" type="curve"/>
      <point x="207" y="727"/>
      <point x="53" y="591"/>
      <point x="53" y="344" type="curve"/>
      <point x="53" y="118"/>
      <point x="197" y="-5"/>
      <point x="427" y="-5" type="curve"/>
      <point x="558" y="-5"/>
      <point x="641" y="25"/>
      <point x="728" y="93" type="curve"/>
      <point x="657" y="186"/>
      <point x="727" y="93"/>
      <point x="657" y="186" type="curve"/>
      <point x="579" y="136"/>
      <point x="521" y="115"/>
      <point x="434" y="115" type="curve"/>
      <point x="287" y="115"/>
      <point x="206" y="202"/>
      <point x="206" y="350" type="curve"/>
      <point x="206" y="511"/>
      <point x="289" y="608"/>
      <point x="445" y="608" type="curve"/>
      <point x="517" y="608"/>
      <point x="582" y="593"/>
      <point x="639" y="563" type="curve"/>
      <point x="722" y="654"/>
      <point x="639" y="563"/>
    </contour>
  </outline>
</glyph>
<glyph name="G" format="1">
  <advance width="863"/>
  <unicode hex="0047"/>
  <outline>
    <contour>
      <point x="458" y="780" type="move" name="top"/>
    </contour>
    <contour>
      <point x="516" y="8" type="move" name="bottom"/>
    </contour>
    <contour>
      <point x="662" y="646" type="curve"/>
      <point x="662" y="516"/>
      <point x="662" y="624"/>
      <point x="662" y="495" type="curve"/>
      <point x="779" y="495"/>
      <point x="662" y="495"/>
      <point x="779" y="495" type="curve"/>
      <point x="779" y="624"/>
      <point x="779" y="516"/>
      <point x="779" y="646" type="curve"/>
      <point x="662" y="646"/>
      <point x="779" y="646"/>
    </contour>
    <contour>
      <point x="757" y="372" type="curve"/>
      <point x="680" y="372"/>
      <point x="604" y="372"/>
      <point x="527" y="372" type="curve"/>
      <point x="527" y="258"/>
      <point x="527" y="372"/>
      <point x="527" y="258" type="curve"/>
      <point x="604" y="258"/>
      <point x="680" y="258"/>
      <point x="757" y="258" type="curve"/>
      <point x="757" y="372"/>
      <point x="757" y="258"/>
    </contour>
    <contour>
      <point x="797" y="79" type="curve"/>
      <point x="797" y="177"/>
      <point x="797" y="274"/>
      <point x="797" y="372" type="curve"/>
      <point x="659" y="372"/>
      <point x="797" y="372"/>
      <point x="659" y="372" type="curve"/>
      <point x="659" y="274"/>
      <point x="659" y="177"/>
      <point x="659" y="79" type="curve"/>
      <point x="797" y="79"/>
      <point x="659" y="79"/>
    </contour>
    <contour>
      <point x="779" y="646" type="curve"/>
      <point x="674" y="703"/>
      <point x="580" y="727"/>
      <point x="460" y="727" type="curve"/>
      <point x="212" y="727"/>
      <point x="53" y="602"/>
      <point x="53" y="359" type="curve"/>
      <point x="53" y="115"/>
      <point x="219" y="-5"/>
      <point x="471" y="-5" type="curve"/>
      <point x="600" y="-5"/>
      <point x="682" y="23"/>
      <point x="797" y="79" type="curve"/>
      <point x="721" y="164"/>
      <point x="797" y="79"/>
      <point x="721" y="164" type="curve"/>
      <point x="634" y="123"/>
      <point x="567" y="114"/>
      <point x="471" y="114" type="curve"/>
      <point x="303" y="114"/>
      <point x="206" y="204"/>
      <point x="206" y="371" type="curve"/>
      <point x="206" y="526"/>
      <point x="302" y="608"/>
      <point x="460" y="608" type="curve"/>
      <point x="551" y="608"/>
      <point x="623" y="592"/>
      <point x="703" y="548" type="curve"/>
      <point x="779" y="646"/>
      <point x="703" y="548"/>
    </contour>
  </outline>
</glyph>
<glyph name="J" format="1">
  <advance width="502"/>
  <unicode hex="004A"/>
  <outline>
    <contour>
      <point x="328" y="722" type="curve"/>
      <point x="273" y="722"/>
      <point x="234" y="722"/>
      <point x="178" y="722" type="curve"/>
      <point x="178" y="608"/>
      <point x="178" y="722"/>
      <point x="178" y="608" type="curve"/>
      <point x="344" y="608"/>
      <point x="162" y="608"/>
      <point x="328" y="608" type="curve"/>
      <point x="328" y="722"/>
      <point x="328" y="608"/>
    </contour>
    <contour>
      <point x="328" y="608" type="curve"/>
      <point x="493" y="608"/>
      <point x="312" y="608"/>
      <point x="477" y="608" type="curve"/>
      <point x="477" y="722"/>
      <point x="477" y="608"/>
      <point x="477" y="722" type="curve"/>
      <point x="423" y="722"/>
      <point x="383" y="722"/>
      <point x="328" y="722" type="curve"/>
      <point x="328" y="608"/>
      <point x="328" y="722"/>
    </contour>
    <contour>
      <point x="-5" y="45" type="curve"/>
      <point x="31" y="22"/>
      <point x="83" y="-5"/>
      <point x="147" y="-5" type="curve"/>
      <point x="309" y="-5"/>
      <point x="403" y="78"/>
      <point x="403" y="247" type="curve"/>
      <point x="403" y="404"/>
      <point x="403" y="565"/>
      <point x="403" y="722" type="curve"/>
      <point x="251" y="722"/>
      <point x="403" y="722"/>
      <point x="251" y="722" type="curve"/>
      <point x="251" y="565"/>
      <point x="251" y="404"/>
      <point x="251" y="247" type="curve"/>
      <point x="251" y="166"/>
      <point x="222" y="110"/>
      <point x="147" y="110" type="curve"/>
      <point x="113" y="110"/>
      <point x="92" y="122"/>
      <point x="65" y="136" type="curve"/>
      <point x="-5" y="45"/>
      <point x="65" y="136"/>
    </contour>
  </outline>
</glyph>
<glyph name="K" format="1">
  <advance width="791"/>
  <unicode hex="004B"/>
  <outline>
    <contour>
      <point x="439" y="3" type="move" name="bottom"/>
    </contour>
    <contour>
      <point x="623" y="722" type="curve"/>
      <point x="566" y="722"/>
      <point x="452" y="722"/>
      <point x="395" y="722" type="curve"/>
      <point x="395" y="608"/>
      <point x="395" y="722"/>
      <point x="395" y="608" type="curve"/>
      <point x="566" y="608"/>
      <point x="451" y="608"/>
      <point x="623" y="608" type="curve"/>
      <point x="623" y="722"/>
      <point x="623" y="608"/>
    </contour>
    <contour>
      <point x="626" y="0" type="curve"/>
      <point x="691" y="0"/>
      <point x="697" y="0"/>
      <point x="762" y="0" type="curve"/>
      <point x="762" y="114"/>
      <point x="762" y="0"/>
      <point x="762" y="114" type="curve"/>
      <point x="567" y="114"/>
      <point x="821" y="114"/>
      <point x="626" y="114" type="curve"/>
      <point x="626" y="0"/>
      <point x="626" y="114"/>
    </contour>
    <contour>
      <point x="609" y="608" type="curve"/>
      <point x="771" y="608"/>
      <point x="562" y="608"/>
      <point x="724" y="608" type="curve"/>
      <point x="724" y="722"/>
      <point x="724" y="608"/>
      <point x="724" y="722" type="curve"/>
      <point x="670" y="722"/>
      <point x="663" y="722"/>
      <point x="609" y="722" type="curve"/>
      <point x="609" y="608"/>
      <point x="609" y="722"/>
    </contour>
    <contour>
      <point x="192" y="722" type="curve"/>
      <point x="137" y="722"/>
      <point x="98" y="722"/>
      <point x="43" y="722" type="curve"/>
      <point x="43" y="608"/>
      <point x="43" y="722"/>
      <point x="43" y="608" type="curve"/>
      <point x="208" y="608"/>
      <point x="27" y="608"/>
      <point x="192" y="608" type="curve"/>
      <point x="192" y="722"/>
      <point x="192" y="608"/>
    </contour>
    <contour>
      <point x="192" y="608" type="curve"/>
      <point x="347" y="608"/>
      <point x="166" y="608"/>
      <point x="321" y="608" type="curve"/>
      <point x="321" y="722"/>
      <point x="321" y="608"/>
      <point x="321" y="722" type="curve"/>
      <point x="269" y="722"/>
      <point x="244" y="722"/>
      <point x="192" y="722" type="curve"/>
      <point x="192" y="608"/>
      <point x="192" y="722"/>
    </contour>
    <contour>
      <point x="192" y="0" type="curve"/>
      <point x="250" y="0"/>
      <point x="159" y="0"/>
      <point x="333" y="0" type="curve"/>
      <point x="333" y="114"/>
      <point x="333" y="0"/>
      <point x="333" y="114" type="curve"/>
      <point x="159" y="114"/>
      <point x="366" y="114"/>
      <point x="192" y="114" type="curve"/>
      <point x="192" y="0"/>
      <point x="192" y="114"/>
    </contour>
    <contour>
      <point x="192" y="114" type="curve"/>
      <point x="27" y="114"/>
      <point x="208" y="114"/>
      <point x="43" y="114" type="curve"/>
      <point x="43" y="0"/>
      <point x="43" y="114"/>
      <point x="43" y="0" type="curve"/>
      <point x="98" y="0"/>
      <point x="137" y="0"/>
      <point x="192" y="0" type="curve"/>
      <point x="192" y="114"/>
      <point x="192" y="0"/>
    </contour>
    <contour>
      <point x="571" y="722" type="curve"/>
      <point x="232" y="380" type="line"/>
      <point x="413" y="380"/>
      <point x="229" y="380"/>
      <point x="410" y="380" type="curve"/>
      <point x="696" y="666" type="line"/>
      <point x="522" y="666"/>
      <point x="744" y="722"/>
    </contour>
    <contour>
      <point x="268" y="0" type="curve"/>
      <point x="268" y="722" type="line"/>
      <point x="116" y="722"/>
      <point x="268" y="722"/>
      <point x="116" y="722" type="curve"/>
      <point x="116" y="481"/>
      <point x="116" y="241"/>
      <point x="116" y="0" type="curve"/>
      <point x="268" y="0"/>
      <point x="116" y="0"/>
    </contour>
    <contour>
      <point x="731" y="53" type="curve"/>
      <point x="410" y="380" type="line"/>
      <point x="229" y="380"/>
      <point x="413" y="380"/>
      <point x="232" y="380" type="curve"/>
      <point x="593" y="0" type="line"/>
      <point x="778" y="0"/>
      <point x="546" y="53"/>
    </contour>
  </outline>
</glyph>
<glyph name="P" format="1">
  <advance width="710"/>
  <unicode hex="0050"/>
  <outline>
    <contour>
      <point x="222" y="722" type="curve"/>
      <point x="172" y="722"/>
      <point x="121" y="722"/>
      <point x="70" y="722" type="curve"/>
      <point x="70" y="608"/>
      <point x="70" y="722"/>
      <point x="70" y="608" type="curve"/>
      <point x="222" y="608"/>
      <point x="70" y="608"/>
      <point x="222" y="608" type="curve"/>
      <point x="222" y="722"/>
      <point x="222" y="608"/>
    </contour>
    <contour>
      <point x="222" y="114" type="curve"/>
      <point x="70" y="114"/>
      <point x="222" y="114"/>
      <point x="70" y="114" type="curve"/>
      <point x="70" y="0"/>
      <point x="70" y="114"/>
      <point x="70" y="0" type="curve"/>
      <point x="121" y="0"/>
      <point x="172" y="0"/>
      <point x="222" y="0" type="curve"/>
      <point x="222" y="114"/>
      <point x="222" y="0"/>
    </contour>
    <contour>
      <point x="222" y="0" type="curve"/>
      <point x="273" y="0"/>
      <point x="222" y="0"/>
      <point x="374" y="0" type="curve"/>
      <point x="374" y="114"/>
      <point x="374" y="0"/>
      <point x="374" y="114" type="curve"/>
      <point x="222" y="114"/>
      <point x="374" y="114"/>
      <point x="222" y="114" type="curve"/>
      <point x="222" y="0"/>
      <point x="222" y="114"/>
    </contour>
    <contour>
      <point x="200" y="292" type="curve"/>
      <point x="262" y="264"/>
      <point x="338" y="247"/>
      <point x="409" y="247" type="curve"/>
      <point x="568" y="249"/>
      <point x="675" y="321"/>
      <point x="675" y="479" type="curve"/>
      <point x="675" y="641"/>
      <point x="542" y="722"/>
      <point x="367" y="722" type="curve"/>
      <point x="320" y="722"/>
      <point x="273" y="722"/>
      <point x="225" y="722" type="curve"/>
      <point x="225" y="608"/>
      <point x="225" y="722"/>
      <point x="225" y="608" type="curve"/>
      <point x="266" y="608"/>
      <point x="306" y="608"/>
      <point x="347" y="608" type="curve"/>
      <point x="447" y="608"/>
      <point x="523" y="570"/>
      <point x="523" y="483" type="curve"/>
      <point x="523" y="400"/>
      <point x="469" y="358"/>
      <point x="391" y="358" type="curve"/>
      <point x="337" y="358"/>
      <point x="298" y="370"/>
      <point x="248" y="391" type="curve"/>
      <point x="200" y="294"/>
      <point x="248" y="391"/>
    </contour>
    <contour>
      <point x="297" y="0" type="curve"/>
      <point x="297" y="241"/>
      <point x="297" y="481"/>
      <point x="297" y="722" type="curve"/>
      <point x="145" y="722"/>
      <point x="297" y="722"/>
      <point x="145" y="722" type="curve"/>
      <point x="145" y="481"/>
      <point x="145" y="241"/>
      <point x="145" y="0" type="curve"/>
      <point x="297" y="0"/>
      <point x="145" y="0"/>
    </contour>
  </outline>
</glyph>
<glyph name="T" format="1">
  <advance width="693"/>
  <unicode hex="0054"/>
  <outline>
    <contour>
      <point x="344" y="780" type="move" name="top"/>
    </contour>
    <contour>
      <point x="398" y="4" type="move" name="bottom"/>
    </contour>
    <contour>
      <point x="24" y="664" type="curve"/>
      <point x="24" y="544"/>
      <point x="24" y="664"/>
      <point x="24" y="544" type="curve"/>
      <point x="140" y="544"/>
      <point x="24" y="544"/>
      <point x="140" y="544" type="curve"/>
      <point x="140" y="664"/>
      <point x="140" y="544"/>
      <point x="140" y="664" type="curve"/>
      <point x="24" y="664"/>
      <point x="140" y="664"/>
    </contour>
    <contour>
      <point x="552" y="664" type="curve"/>
      <point x="552" y="544"/>
      <point x="552" y="664"/>
      <point x="552" y="544" type="curve"/>
      <point x="669" y="544"/>
      <point x="552" y="544"/>
      <point x="669" y="544" type="curve"/>
      <point x="669" y="664"/>
      <point x="669" y="544"/>
      <point x="669" y="664" type="curve"/>
      <point x="552" y="664"/>
      <point x="669" y="664"/>
    </contour>
    <contour>
      <point x="345" y="0" type="curve"/>
      <point x="396" y="0"/>
      <point x="446" y="0"/>
      <point x="497" y="0" type="curve"/>
      <point x="497" y="114"/>
      <point x="497" y="0"/>
      <point x="497" y="114" type="curve"/>
      <point x="345" y="114"/>
      <point x="497" y="114"/>
      <point x="345" y="114" type="curve"/>
      <point x="345" y="0"/>
      <point x="345" y="114"/>
    </contour>
    <contour>
      <point x="345" y="114" type="curve"/>
      <point x="194" y="114"/>
      <point x="345" y="114"/>
      <point x="194" y="114" type="curve"/>
      <point x="194" y="0"/>
      <point x="194" y="114"/>
      <point x="194" y="0" type="curve"/>
      <point x="244" y="0"/>
      <point x="295" y="0"/>
      <point x="345" y="0" type="curve"/>
      <point x="345" y="114"/>
      <point x="345" y="0"/>
    </contour>
    <contour>
      <point x="423" y="0" type="curve"/>
      <point x="423" y="237"/>
      <point x="423" y="473"/>
      <point x="423" y="710" type="curve"/>
      <point x="271" y="710"/>
      <point x="423" y="710"/>
      <point x="271" y="710" type="curve"/>
      <point x="270" y="473"/>
      <point x="271" y="237"/>
      <point x="271" y="0" type="curve"/>
      <point x="423" y="0"/>
      <point x="271" y="0"/>
    </contour>
    <contour>
      <point x="24" y="601" type="curve"/>
      <point x="238" y="601"/>
      <point x="454" y="601"/>
      <point x="669" y="601" type="curve"/>
      <point x="669" y="727"/>
      <point x="669" y="596"/>
      <point x="669" y="722" type="curve"/>
      <point x="454" y="722"/>
      <point x="238" y="722"/>
      <point x="24" y="722" type="curve"/>
      <point x="24" y="596"/>
      <point x="24" y="727"/>
    </contour>
  </outline>
</glyph>
<glyph name="V" format="1">
  <advance width="826"/>
  <unicode hex="0056"/>
  <outline>
    <contour>
      <point x="674" y="722" type="curve"/>
      <point x="620" y="722"/>
      <point x="566" y="722"/>
      <point x="512" y="722" type="curve"/>
      <point x="512" y="608"/>
      <point x="512" y="722"/>
      <point x="512" y="608" type="curve"/>
      <point x="674" y="608"/>
      <point x="512" y="608"/>
      <point x="674" y="608" type="curve"/>
      <point x="674" y="722"/>
      <point x="674" y="608"/>
    </contour>
    <contour>
      <point x="135" y="722" type="curve"/>
      <point x="92" y="722"/>
      <point x="48" y="722"/>
      <point x="4" y="722" type="curve"/>
      <point x="4" y="608"/>
      <point x="4" y="722"/>
      <point x="4" y="608" type="curve"/>
      <point x="135" y="608"/>
      <point x="4" y="608"/>
      <point x="135" y="608" type="curve"/>
      <point x="135" y="722"/>
      <point x="135" y="608"/>
    </contour>
    <contour>
      <point x="689" y="608" type="curve"/>
      <point x="820" y="608"/>
      <point x="689" y="608"/>
      <point x="820" y="608" type="curve"/>
      <point x="820" y="722"/>
      <point x="820" y="608"/>
      <point x="820" y="722" type="curve"/>
      <point x="777" y="722"/>
      <point x="733" y="722"/>
      <point x="689" y="722" type="curve"/>
      <point x="689" y="608"/>
      <point x="689" y="722"/>
    </contour>
    <contour>
      <point x="151" y="608" type="curve"/>
      <point x="311" y="608"/>
      <point x="151" y="608"/>
      <point x="311" y="608" type="curve"/>
      <point x="311" y="722"/>
      <point x="311" y="608"/>
      <point x="311" y="722" type="curve"/>
      <point x="258" y="722"/>
      <point x="204" y="722"/>
      <point x="151" y="722" type="curve"/>
      <point x="151" y="608"/>
      <point x="151" y="722"/>
    </contour>
    <contour>
      <point x="630" y="722" type="curve"/>
      <point x="535" y="481"/>
      <point x="441" y="241"/>
      <point x="348" y="0" type="curve"/>
      <point x="503" y="0"/>
      <point x="340" y="0"/>
      <point x="495" y="0" type="curve"/>
      <point x="591" y="241"/>
      <point x="687" y="481"/>
      <point x="784" y="722" type="curve"/>
      <point x="630" y="722"/>
      <point x="784" y="722"/>
    </contour>
    <contour>
      <point x="40" y="722" type="curve"/>
      <point x="138" y="481"/>
      <point x="236" y="241"/>
      <point x="334" y="0" type="curve"/>
      <point x="489" y="0"/>
      <point x="328" y="0"/>
      <point x="483" y="0" type="curve"/>
      <point x="387" y="241"/>
      <point x="292" y="481"/>
      <point x="196" y="722" type="curve"/>
      <point x="40" y="722"/>
      <point x="196" y="722"/>
    </contour>
  </outline>
</glyph>
<glyph name="bracketleft" format="1">
  <advance width="354"/>
  <unicode hex="005B"/>
  <outline>
    <contour>
      <point x="304" y="769" type="curve"/>
      <point x="251" y="769"/>
      <point x="198" y="769"/>
      <point x="145" y="769" type="curve"/>
      <point x="126" y="769"/>
      <point x="93" y="769"/>
      <point x="76" y="769" type="curve"/>
      <point x="76" y="753"/>
      <point x="76" y="729"/>
      <point x="76" y="712" type="curve"/>
      <point x="76" y="455"/>
      <point x="76" y="200"/>
      <point x="76" y="-57" type="curve"/>
      <point x="76" y="-74"/>
      <point x="76" y="-93"/>
      <point x="76" y="-112" type="curve"/>
      <point x="93" y="-112"/>
      <point x="124" y="-112"/>
      <point x="144" y="-112" type="curve"/>
      <point x="197" y="-112"/>
      <point x="251" y="-112"/>
      <point x="304" y="-112" type="curve"/>
      <point x="304" y="13"/>
      <point x="304" y="-112"/>
      <point x="304" y="13" type="curve"/>
      <point x="251" y="13"/>
      <point x="197" y="13"/>
      <point x="144" y="13" type="curve"/>
      <point x="228" y="13"/>
      <point x="144" y="13"/>
      <point x="228" y="13" type="curve"/>
      <point x="228" y="-57"/>
      <point x="228" y="13"/>
      <point x="228" y="-57" type="curve"/>
      <point x="228" y="200"/>
      <point x="228" y="455"/>
      <point x="228" y="712" type="curve"/>
      <point x="228" y="644"/>
      <point x="228" y="712"/>
      <point x="228" y="644" type="curve"/>
      <point x="145" y="644"/>
      <point x="228" y="644"/>
      <point x="145" y="644" type="curve"/>
      <point x="198" y="644"/>
      <point x="251" y="644"/>
      <point x="304" y="644" type="curve"/>
      <point x="304" y="769"/>
      <point x="304" y="644"/>
    </contour>
  </outline>
</glyph>
<glyph name="underscore" format="1">
  <advance width="710"/>
  <unicode hex="005F"/>
  <outline>
    <contour>
      <point x="0" y="-182" type="curve"/>
      <point x="236" y="-182"/>
      <point x="474" y="-182"/>
      <point x="710" y="-182" type="curve"/>
      <point x="710" y="-68"/>
      <point x="710" y="-182"/>
      <point x="710" y="-68" type="curve"/>
      <point x="474" y="-68"/>
      <point x="236" y="-68"/>
      <point x="0" y="-68" type="curve"/>
      <point x="0" y="-182"/>
      <point x="0" y="-68"/>
    </contour>
  </outline>
</glyph>
<glyph name="b" format="1">
  <advance width="737"/>
  <unicode hex="0062"/>
  <outline>
    <contour>
      <point x="188" y="800" type="curve"/>
      <point x="133" y="800"/>
      <point x="91" y="800"/>
      <point x="37" y="800" type="curve"/>
      <point x="36" y="724"/>
      <point x="37" y="762"/>
      <point x="36" y="686" type="curve"/>
      <point x="134" y="686"/>
      <point x="90" y="686"/>
      <point x="188" y="686" type="curve"/>
      <point x="188" y="762"/>
      <point x="188" y="724"/>
    </contour>
    <contour>
      <point x="221" y="325" type="curve"/>
      <point x="265" y="376"/>
      <point x="319" y="419"/>
      <point x="402" y="419" type="curve"/>
      <point x="494" y="419"/>
      <point x="542" y="357"/>
      <point x="542" y="262" type="curve"/>
      <point x="544" y="170"/>
      <point x="492" y="113"/>
      <point x="403" y="114" type="curve"/>
      <point x="329" y="114"/>
      <point x="273" y="145"/>
      <point x="233" y="189" type="curve"/>
      <point x="179" y="154"/>
      <point x="201" y="168"/>
      <point x="148" y="132" type="curve"/>
      <point x="222" y="52"/>
      <point x="300" y="-5"/>
      <point x="427" y="-5" type="curve"/>
      <point x="590" y="-5"/>
      <point x="696" y="95"/>
      <point x="695" y="265" type="curve"/>
      <point x="695" y="437"/>
      <point x="590" y="539"/>
      <point x="425" y="539" type="curve"/>
      <point x="302" y="539"/>
      <point x="226" y="477"/>
      <point x="155" y="394" type="curve"/>
      <point x="199" y="355"/>
      <point x="177" y="364"/>
    </contour>
    <contour>
      <point x="262" y="0" type="curve"/>
      <point x="262" y="289"/>
      <point x="262" y="511"/>
      <point x="262" y="800" type="curve"/>
      <point x="162" y="800"/>
      <point x="210" y="800"/>
      <point x="110" y="800" type="curve"/>
      <point x="110" y="511"/>
      <point x="110" y="289"/>
      <point x="110" y="0" type="curve"/>
      <point x="210" y="0"/>
      <point x="162" y="0"/>
    </contour>
    <contour>
      <point x="188" y="113" type="curve"/>
      <point x="90" y="113"/>
      <point x="134" y="114"/>
      <point x="37" y="114" type="curve"/>
      <point x="37" y="38"/>
      <point x="37" y="76"/>
      <point x="37" y="0" type="curve"/>
      <point x="91" y="0"/>
      <point x="133" y="0"/>
      <point x="188" y="0" type="curve"/>
      <point x="188" y="76"/>
      <point x="188" y="38"/>
    </contour>
  </outline>
</glyph>
<glyph name="c" format="1">
  <advance width="606"/>
  <unicode hex="0063"/>
  <outline>
    <contour>
      <point x="333" y="610" type="move" name="top"/>
    </contour>
    <contour>
      <point x="360" y="10" type="move" name="bottom"/>
    </contour>
    <contour>
      <point x="440" y="469" type="curve"/>
      <point x="440" y="326"/>
      <point x="440" y="469"/>
      <point x="440" y="326" type="curve"/>
      <point x="557" y="326"/>
      <point x="440" y="326"/>
      <point x="557" y="326" type="curve"/>
      <point x="557" y="469"/>
      <point x="557" y="326"/>
      <point x="557" y="469" type="curve"/>
      <point x="440" y="469"/>
      <point x="557" y="469"/>
    </contour>
    <contour>
      <point x="557" y="469" type="curve"/>
      <point x="499" y="510"/>
      <point x="425" y="538"/>
      <point x="350" y="538" type="curve"/>
      <point x="164" y="538"/>
      <point x="42" y="451"/>
      <point x="42" y="267" type="curve"/>
      <point x="42" y="84"/>
      <point x="160" y="-5"/>
      <point x="346" y="-5" type="curve"/>
      <point x="430" y="-5"/>
      <point x="511" y="21"/>
      <point x="560" y="81" type="curve"/>
      <point x="471" y="165"/>
      <point x="560" y="81"/>
      <point x="471" y="165" type="curve"/>
      <point x="437" y="134"/>
      <point x="398" y="114"/>
      <point x="353" y="114" type="curve"/>
      <point x="253" y="114"/>
      <point x="194" y="165"/>
      <point x="194" y="267" type="curve"/>
      <point x="194" y="367"/>
      <point x="249" y="419"/>
      <point x="347" y="419" type="curve"/>
      <point x="390" y="419"/>
      <point x="432" y="411"/>
      <point x="467" y="389" type="curve"/>
      <point x="557" y="469"/>
      <point x="467" y="389"/>
    </contour>
  </outline>
</glyph>
<glyph name="q" format="1">
  <advance width="742"/>
  <unicode hex="0071"/>
  <outline>
    <contour>
      <point x="558" y="419" type="curve"/>
      <point x="653" y="419"/>
      <point x="602" y="419"/>
      <point x="698" y="419" type="curve"/>
      <point x="698" y="494"/>
      <point x="698" y="459"/>
      <point x="698" y="533" type="curve"/>
      <point x="643" y="533"/>
      <point x="613" y="533"/>
      <point x="558" y="533" type="curve"/>
      <point x="558" y="459"/>
      <point x="558" y="494"/>
    </contour>
    <contour>
      <point x="557" y="-186" type="curve"/>
      <point x="454" y="-186"/>
      <point x="508" y="-186"/>
      <point x="405" y="-186" type="curve"/>
      <point x="405" y="-261"/>
      <point x="405" y="-225"/>
      <point x="405" y="-300" type="curve"/>
      <point x="465" y="-300"/>
      <point x="497" y="-300"/>
      <point x="557" y="-300" type="curve"/>
      <point x="557" y="-225"/>
      <point x="557" y="-261"/>
    </contour>
    <contour>
      <point x="557" y="-300" type="curve"/>
      <point x="613" y="-300"/>
      <point x="642" y="-300"/>
      <point x="698" y="-300" type="curve"/>
      <point x="698" y="-225"/>
      <point x="698" y="-261"/>
      <point x="698" y="-186" type="curve"/>
      <point x="601" y="-186"/>
      <point x="653" y="-186"/>
      <point x="557" y="-186" type="curve"/>
      <point x="557" y="-261"/>
      <point x="557" y="-225"/>
    </contour>
    <contour>
      <point x="578" y="384" type="curve"/>
      <point x="506" y="478"/>
      <point x="425" y="538"/>
      <point x="308" y="538" type="curve"/>
      <point x="138" y="538"/>
      <point x="42" y="429"/>
      <point x="43" y="263" type="curve"/>
      <point x="43" y="98"/>
      <point x="144" y="-5"/>
      <point x="314" y="-5" type="curve"/>
      <point x="430" y="-5"/>
      <point x="512" y="56"/>
      <point x="592" y="144" type="curve"/>
      <point x="554" y="186"/>
      <point x="560" y="166"/>
      <point x="521" y="208" type="curve"/>
      <point x="474" y="143"/>
      <point x="415" y="109"/>
      <point x="337" y="109" type="curve"/>
      <point x="244" y="109"/>
      <point x="195" y="173"/>
      <point x="195" y="269" type="curve"/>
      <point x="195" y="362"/>
      <point x="245" y="422"/>
      <point x="335" y="422" type="curve"/>
      <point x="415" y="422"/>
      <point x="473" y="383"/>
      <point x="526" y="312" type="curve"/>
      <point x="556" y="358"/>
      <point x="548" y="338"/>
    </contour>
    <contour>
      <point x="636" y="-300" type="curve"/>
      <point x="636" y="-6"/>
      <point x="636" y="239"/>
      <point x="636" y="533" type="curve"/>
      <point x="533" y="533"/>
      <point x="579" y="533"/>
      <point x="476" y="533" type="curve"/>
      <point x="476" y="239"/>
      <point x="476" y="-6"/>
      <point x="476" y="-300" type="curve"/>
      <point x="579" y="-300"/>
      <point x="533" y="-300"/>
    </contour>
  </outline>
</glyph>
<glyph name="s" format="1">
  <advance width="576"/>
  <unicode hex="0073"/>
  <outline>
    <contour>
      <point x="283" y="610" type="move" name="top"/>
    </contour>
    <contour>
      <point x="320" y="8" type="move" name="bottom"/>
    </contour>
    <contour>
      <point x="56" y="46" type="curve"/>
      <point x="136" y="14"/>
      <point x="201" y="-5"/>
      <point x="284" y="-5" type="curve"/>
      <point x="427" y="-5"/>
      <point x="534" y="38"/>
      <point x="534" y="163" type="curve"/>
      <point x="534" y="278"/>
      <point x="430" y="297"/>
      <point x="306" y="329" type="curve"/>
      <point x="251" y="342"/>
      <point x="197" y="354"/>
      <point x="197" y="387" type="curve"/>
      <point x="197" y="409"/>
      <point x="232" y="422"/>
      <point x="275" y="422" type="curve"/>
      <point x="322" y="422"/>
      <point x="380" y="406"/>
      <point x="412" y="390" type="curve"/>
      <point x="481" y="493"/>
      <point x="412" y="390"/>
      <point x="481" y="493" type="curve"/>
      <point x="435" y="517"/>
      <point x="349" y="538"/>
      <point x="280" y="538" type="curve"/>
      <point x="152" y="538"/>
      <point x="59" y="497"/>
      <point x="59" y="387" type="curve"/>
      <point x="59" y="282"/>
      <point x="143" y="248"/>
      <point x="257" y="219" type="curve"/>
      <point x="321" y="203"/>
      <point x="388" y="195"/>
      <point x="388" y="157" type="curve"/>
      <point x="388" y="129"/>
      <point x="347" y="113"/>
      <point x="300" y="113" type="curve"/>
      <point x="236" y="113"/>
      <point x="193" y="125"/>
      <point x="133" y="149" type="curve"/>
      <point x="56" y="46"/>
      <point x="133" y="149"/>
    </contour>
    <contour>
      <point x="363" y="493" type="curve"/>
      <point x="363" y="367"/>
      <point x="363" y="483"/>
      <point x="363" y="358" type="curve"/>
      <point x="481" y="358"/>
      <point x="363" y="358"/>
      <point x="481" y="358" type="curve"/>
      <point x="481" y="483"/>
      <point x="481" y="367"/>
      <point x="481" y="493" type="curve"/>
      <point x="363" y="493"/>
      <point x="481" y="493"/>
    </contour>
    <contour>
      <point x="172" y="46" type="curve"/>
      <point x="172" y="174"/>
      <point x="172" y="61"/>
      <point x="172" y="188" type="curve"/>
      <point x="54" y="188"/>
      <point x="172" y="188"/>
      <point x="54" y="188" type="curve"/>
      <point x="54" y="61"/>
      <point x="54" y="174"/>
      <point x="54" y="46" type="curve"/>
      <point x="172" y="46"/>
      <point x="54" y="46"/>
    </contour>
  </outline>
</glyph>
<glyph name="w" format="1">
  <advance width="1031"/>
  <unicode hex="0077"/>
  <outline>
    <contour>
      <point x="880" y="419" type="curve"/>
      <point x="1016" y="419"/>
      <point x="880" y="419"/>
      <point x="1016" y="419" type="curve"/>
      <point x="1016" y="533"/>
      <point x="1016" y="419"/>
      <point x="1016" y="533" type="curve"/>
      <point x="970" y="533"/>
      <point x="925" y="533"/>
      <point x="880" y="533" type="curve"/>
      <point x="880" y="419"/>
      <point x="880" y="533"/>
    </contour>
    <contour>
      <point x="880" y="533" type="curve"/>
      <point x="833" y="533"/>
      <point x="786" y="533"/>
      <point x="740" y="533" type="curve"/>
      <point x="740" y="419"/>
      <point x="740" y="533"/>
      <point x="740" y="419" type="curve"/>
      <point x="880" y="419"/>
      <point x="740" y="419"/>
      <point x="880" y="419" type="curve"/>
      <point x="880" y="533"/>
      <point x="880" y="419"/>
    </contour>
    <contour>
      <point x="155" y="533" type="curve"/>
      <point x="110" y="533"/>
      <point x="64" y="533"/>
      <point x="18" y="533" type="curve"/>
      <point x="18" y="419"/>
      <point x="18" y="533"/>
      <point x="18" y="419" type="curve"/>
      <point x="155" y="419"/>
      <point x="18" y="419"/>
      <point x="155" y="419" type="curve"/>
      <point x="155" y="533"/>
      <point x="155" y="419"/>
    </contour>
    <contour>
      <point x="155" y="419" type="curve"/>
      <point x="292" y="419"/>
      <point x="155" y="419"/>
      <point x="292" y="419" type="curve"/>
      <point x="292" y="533"/>
      <point x="292" y="419"/>
      <point x="292" y="533" type="curve"/>
      <point x="246" y="533"/>
      <point x="201" y="533"/>
      <point x="155" y="533" type="curve"/>
      <point x="155" y="419"/>
      <point x="155" y="533"/>
    </contour>
    <contour>
      <point x="381" y="0" type="curve"/>
      <point x="452" y="178"/>
      <point x="523" y="355"/>
      <point x="593" y="533" type="curve"/>
      <point x="449" y="533"/>
      <point x="593" y="533"/>
      <point x="449" y="533" type="curve"/>
      <point x="379" y="355"/>
      <point x="310" y="178"/>
      <point x="240" y="0" type="curve"/>
      <point x="381" y="0"/>
      <point x="240" y="0"/>
    </contour>
    <contour>
      <point x="841" y="533" type="curve"/>
      <point x="776" y="355"/>
      <point x="711" y="178"/>
      <point x="647" y="0" type="curve"/>
      <point x="787" y="0"/>
      <point x="647" y="0"/>
      <point x="787" y="0" type="curve"/>
      <point x="854" y="178"/>
      <point x="920" y="355"/>
      <point x="986" y="533" type="curve"/>
      <point x="841" y="533"/>
      <point x="986" y="533"/>
    </contour>
    <contour>
      <point x="455" y="533" type="curve"/>
      <point x="518" y="355"/>
      <point x="582" y="178"/>
      <point x="645" y="0" type="curve"/>
      <point x="787" y="0"/>
      <point x="645" y="0"/>
      <point x="787" y="0" type="curve"/>
      <point x="724" y="178"/>
      <point x="661" y="355"/>
      <point x="598" y="533" type="curve"/>
      <point x="455" y="533"/>
      <point x="598" y="533"/>
    </contour>
    <contour>
      <point x="50" y="533" type="curve"/>
      <point x="113" y="355"/>
      <point x="176" y="178"/>
      <point x="239" y="0" type="curve"/>
      <point x="380" y="0"/>
      <point x="239" y="0"/>
      <point x="380" y="0" type="curve"/>
      <point x="318" y="178"/>
      <point x="256" y="355"/>
      <point x="193" y="533" type="curve"/>
      <point x="50" y="533"/>
      <point x="193" y="533"/>
    </contour>
  </outline>
</glyph>
<glyph name="x" format="1">
  <advance width="669"/>
  <unicode hex="0078"/>
  <outline>
    <contour>
      <point x="128" y="114" type="curve"/>
      <point x="5" y="114"/>
      <point x="145" y="114"/>
      <point x="21" y="114" type="curve"/>
      <point x="21" y="0"/>
      <point x="21" y="114"/>
      <point x="21" y="0" type="curve"/>
      <point x="62" y="0"/>
      <point x="87" y="0"/>
      <point x="128" y="0" type="curve"/>
      <point x="128" y="114"/>
      <point x="128" y="0"/>
    </contour>
    <contour>
      <point x="562" y="114" type="curve"/>
      <point x="368" y="114"/>
      <point x="564" y="114"/>
      <point x="370" y="114" type="curve"/>
      <point x="370" y="0"/>
      <point x="370" y="114"/>
      <point x="370" y="0" type="curve"/>
      <point x="435" y="0"/>
      <point x="497" y="0"/>
      <point x="562" y="0" type="curve"/>
      <point x="562" y="114"/>
      <point x="562" y="0"/>
    </contour>
    <contour>
      <point x="552" y="0" type="curve"/>
      <point x="593" y="0"/>
      <point x="620" y="0"/>
      <point x="660" y="0" type="curve"/>
      <point x="660" y="114"/>
      <point x="660" y="0"/>
      <point x="660" y="114" type="curve"/>
      <point x="540" y="114"/>
      <point x="672" y="114"/>
      <point x="552" y="114" type="curve"/>
      <point x="552" y="0"/>
      <point x="552" y="114"/>
    </contour>
    <contour>
      <point x="119" y="0" type="curve"/>
      <point x="184" y="0"/>
      <point x="115" y="0"/>
      <point x="310" y="0" type="curve"/>
      <point x="310" y="114"/>
      <point x="310" y="0"/>
      <point x="310" y="114" type="curve"/>
      <point x="115" y="114"/>
      <point x="314" y="114"/>
      <point x="119" y="114" type="curve"/>
      <point x="119" y="0"/>
      <point x="119" y="114"/>
    </contour>
    <contour>
      <point x="525" y="419" type="curve"/>
      <point x="653" y="419"/>
      <point x="516" y="419"/>
      <point x="643" y="419" type="curve"/>
      <point x="643" y="533"/>
      <point x="643" y="419"/>
      <point x="643" y="533" type="curve"/>
      <point x="601" y="533"/>
      <point x="567" y="533"/>
      <point x="525" y="533" type="curve"/>
      <point x="525" y="419"/>
      <point x="525" y="533"/>
    </contour>
    <contour>
      <point x="170" y="533" type="curve"/>
      <point x="126" y="533"/>
      <point x="95" y="533"/>
      <point x="51" y="533" type="curve"/>
      <point x="51" y="419"/>
      <point x="51" y="533"/>
      <point x="51" y="419" type="curve"/>
      <point x="185" y="419"/>
      <point x="37" y="419"/>
      <point x="170" y="419" type="curve"/>
      <point x="170" y="533"/>
      <point x="170" y="419"/>
    </contour>
    <contour>
      <point x="140" y="419" type="curve"/>
      <point x="323" y="419"/>
      <point x="127" y="419"/>
      <point x="310" y="419" type="curve"/>
      <point x="310" y="533"/>
      <point x="310" y="419"/>
      <point x="310" y="533" type="curve"/>
      <point x="250" y="533"/>
      <point x="201" y="533"/>
      <point x="140" y="533" type="curve"/>
      <point x="140" y="419"/>
      <point x="140" y="533"/>
    </contour>
    <contour>
      <point x="540" y="533" type="curve"/>
      <point x="482" y="533"/>
      <point x="437" y="533"/>
      <point x="380" y="533" type="curve"/>
      <point x="380" y="419"/>
      <point x="380" y="533"/>
      <point x="380" y="419" type="curve"/>
      <point x="553" y="419"/>
      <point x="367" y="419"/>
      <point x="540" y="419" type="curve"/>
      <point x="540" y="533"/>
      <point x="540" y="419"/>
    </contour>
    <contour>
      <point x="622" y="48" type="curve"/>
      <point x="177" y="533" type="line"/>
      <point x="46" y="533"/>
      <point x="197" y="481"/>
      <point x="67" y="481" type="curve"/>
      <point x="500" y="0" type="line"/>
      <point x="642" y="0"/>
      <point x="480" y="48"/>
    </contour>
    <contour>
      <point x="516" y="533" type="curve"/>
      <point x="55" y="52" type="line"/>
      <point x="197" y="52"/>
      <point x="36" y="0"/>
      <point x="178" y="0" type="curve"/>
      <point x="621" y="479" type="line"/>
      <point x="489" y="479"/>
      <point x="647" y="533"/>
    </contour>
  </outline>
</glyph>
<glyph name="braceleft" format="1">
  <advance width="330"/>
  <unicode hex="007B"/>
  <outline>
    <contour>
      <point x="279" y="6" type="curve"/>
      <point x="241" y="6"/>
      <point x="227" y="31"/>
      <point x="227" y="68" type="curve"/>
      <point x="227" y="118"/>
      <point x="227" y="169"/>
      <point x="227" y="220" type="curve"/>
      <point x="227" y="332"/>
      <point x="152" y="401"/>
      <point x="38" y="401" type="curve"/>
      <point x="38" y="281"/>
      <point x="38" y="401"/>
      <point x="38" y="281" type="curve"/>
      <point x="71" y="281"/>
      <point x="88" y="263"/>
      <point x="88" y="231" type="curve"/>
      <point x="88" y="178"/>
      <point x="88" y="126"/>
      <point x="88" y="74" type="curve"/>
      <point x="88" y="-41"/>
      <point x="163" y="-107"/>
      <point x="279" y="-107" type="curve"/>
      <point x="279" y="6"/>
      <point x="279" y="-107"/>
    </contour>
    <contour>
      <point x="279" y="789" type="curve"/>
      <point x="163" y="789"/>
      <point x="88" y="725"/>
      <point x="88" y="612" type="curve"/>
      <point x="88" y="558"/>
      <point x="88" y="503"/>
      <point x="88" y="448" type="curve"/>
      <point x="88" y="417"/>
      <point x="70" y="401"/>
      <point x="38" y="401" type="curve"/>
      <point x="38" y="281"/>
      <point x="38" y="401"/>
      <point x="38" y="281" type="curve"/>
      <point x="153" y="281"/>
      <point x="227" y="350"/>
      <point x="227" y="465" type="curve"/>
      <point x="227" y="514"/>
      <point x="227" y="563"/>
      <point x="227" y="612" type="curve"/>
      <point x="227" y="650"/>
      <point x="241" y="675"/>
      <point x="279" y="675" type="curve"/>
      <point x="279" y="789"/>
      <point x="279" y="675"/>
    </contour>
  </outline>
</glyph>
<glyph name="bar" format="1">
  <advance width="306"/>
  <unicode hex="007C"/>
  <outline>
    <contour>
      <point x="229" y="-300" type="curve"/>
      <point x="229" y="67"/>
      <point x="229" y="433"/>
      <point x="229" y="800" type="curve"/>
      <point x="77" y="800"/>
      <point x="229" y="800"/>
      <point x="77" y="800" type="curve"/>
      <point x="77" y="433"/>
      <point x="77" y="67"/>
      <point x="77" y="-300" type="curve"/>
      <point x="229" y="-300"/>
      <point x="77" y="-300"/>
    </contour>
  </outline>
</glyph>
<glyph name="braceright" format="1">
  <advance width="331"/>
  <unicode hex="007D"/>
  <outline>
    <contour>
      <point x="52" y="-107" type="curve"/>
      <point x="168" y="-107"/>
      <point x="242" y="-41"/>
      <point x="242" y="74" type="curve"/>
      <point x="242" y="126"/>
      <point x="242" y="178"/>
      <point x="242" y="231" type="curve"/>
      <point x="242" y="263"/>
      <point x="259" y="281"/>
      <point x="293" y="281" type="curve"/>
      <point x="293" y="401"/>
      <point x="293" y="281"/>
      <point x="293" y="401" type="curve"/>
      <point x="178" y="401"/>
      <point x="104" y="332"/>
      <point x="104" y="220" type="curve"/>
      <point x="104" y="169"/>
      <point x="104" y="118"/>
      <point x="104" y="68" type="curve"/>
      <point x="104" y="31"/>
      <point x="89" y="6"/>
      <point x="52" y="6" type="curve"/>
      <point x="52" y="-107"/>
      <point x="52" y="6"/>
    </contour>
    <contour>
      <point x="52" y="675" type="curve"/>
      <point x="90" y="675"/>
      <point x="104" y="650"/>
      <point x="104" y="612" type="curve"/>
      <point x="104" y="563"/>
      <point x="104" y="514"/>
      <point x="104" y="465" type="curve"/>
      <point x="104" y="350"/>
      <point x="177" y="281"/>
      <point x="293" y="281" type="curve"/>
      <point x="293" y="401"/>
      <point x="293" y="281"/>
      <point x="293" y="401" type="curve"/>
      <point x="260" y="401"/>
      <point x="242" y="417"/>
      <point x="242" y="448" type="curve"/>
      <point x="242" y="503"/>
      <point x="242" y="558"/>
      <point x="242" y="612" type="curve"/>
      <point x="242" y="725"/>
      <point x="168" y="789"/>
      <point x="52" y="789" type="curve"/>
      <point x="52" y="675"/>
      <point x="52" y="789"/>
    </contour>
  </outline>
</glyph>
<glyph name="cent" format="1">
  <advance width="728"/>
  <unicode hex="00A2"/>
  <outline>
    <contour>
      <point x="464" y="-53" type="curve"/>
      <point x="464" y="-13"/>
      <point x="464" y="27"/>
      <point x="464" y="67" type="curve"/>
      <point x="311" y="67"/>
      <point x="464" y="67"/>
      <point x="311" y="67" type="curve"/>
      <point x="311" y="27"/>
      <point x="311" y="-13"/>
      <point x="311" y="-53" type="curve"/>
      <point x="464" y="-53"/>
      <point x="311" y="-53"/>
    </contour>
    <contour>
      <point x="333" y="778" type="curve"/>
      <point x="333" y="742"/>
      <point x="333" y="706"/>
      <point x="333" y="670" type="curve"/>
      <point x="485" y="670"/>
      <point x="333" y="670"/>
      <point x="485" y="670" type="curve"/>
      <point x="485" y="706"/>
      <point x="485" y="742"/>
      <point x="485" y="778" type="curve"/>
      <point x="333" y="778"/>
      <point x="485" y="778"/>
    </contour>
    <contour>
      <point x="672" y="615" type="curve"/>
      <point x="587" y="668"/>
      <point x="518" y="687"/>
      <point x="419" y="687" type="curve"/>
      <point x="201" y="687"/>
      <point x="50" y="574"/>
      <point x="50" y="363" type="curve"/>
      <point x="50" y="164"/>
      <point x="178" y="44"/>
      <point x="380" y="44" type="curve"/>
      <point x="496" y="44"/>
      <point x="579" y="69"/>
      <point x="672" y="139" type="curve"/>
      <point x="587" y="234"/>
      <point x="672" y="139"/>
      <point x="587" y="234" type="curve"/>
      <point x="517" y="188"/>
      <point x="468" y="164"/>
      <point x="394" y="164" type="curve"/>
      <point x="273" y="164"/>
      <point x="202" y="244"/>
      <point x="202" y="369" type="curve"/>
      <point x="202" y="494"/>
      <point x="283" y="568"/>
      <point x="405" y="568" type="curve"/>
      <point x="477" y="568"/>
      <point x="527" y="552"/>
      <point x="598" y="515" type="curve"/>
      <point x="672" y="615"/>
      <point x="598" y="515"/>
    </contour>
    <contour>
      <point x="555" y="615" type="curve"/>
      <point x="555" y="491"/>
      <point x="555" y="589"/>
      <point x="555" y="465" type="curve"/>
      <point x="672" y="465"/>
      <point x="555" y="465"/>
      <point x="672" y="465" type="curve"/>
      <point x="672" y="589"/>
      <point x="672" y="491"/>
      <point x="672" y="615" type="curve"/>
      <point x="555" y="615"/>
      <point x="672" y="615"/>
    </contour>
  </outline>
</glyph>
<glyph name="sterling" format="1">
  <advance width="551"/>
  <unicode hex="00A3"/>
  <outline>
    <contour>
      <point x="476" y="114" type="curve"/>
      <point x="336" y="114"/>
      <point x="192" y="114"/>
      <point x="52" y="114" type="curve"/>
      <point x="52" y="0"/>
      <point x="52" y="114"/>
      <point x="52" y="0" type="curve"/>
      <point x="192" y="0"/>
      <point x="336" y="0"/>
      <point x="476" y="0" type="curve"/>
      <point x="476" y="114"/>
      <point x="476" y="0"/>
    </contour>
    <contour>
      <point x="423" y="432" type="curve"/>
      <point x="312" y="432"/>
      <point x="195" y="432"/>
      <point x="84" y="432" type="curve"/>
      <point x="84" y="318"/>
      <point x="84" y="432"/>
      <point x="84" y="318" type="curve"/>
      <point x="195" y="318"/>
      <point x="312" y="318"/>
      <point x="423" y="318" type="curve"/>
      <point x="423" y="432"/>
      <point x="423" y="318"/>
    </contour>
    <contour>
      <point x="512" y="661" type="curve"/>
      <point x="458" y="707"/>
      <point x="412" y="720"/>
      <point x="346" y="720" type="curve"/>
      <point x="166" y="720"/>
      <point x="83" y="559"/>
      <point x="131" y="363" type="curve"/>
      <point x="162" y="232"/>
      <point x="141" y="114"/>
      <point x="52" y="114" type="curve"/>
      <point x="52" y="0"/>
      <point x="52" y="114"/>
      <point x="52" y="0" type="curve"/>
      <point x="247" y="0"/>
      <point x="325" y="176"/>
      <point x="275" y="386" type="curve"/>
      <point x="247" y="504"/>
      <point x="264" y="612"/>
      <point x="338" y="612" type="curve"/>
      <point x="379" y="612"/>
      <point x="404" y="598"/>
      <point x="438" y="576" type="curve"/>
      <point x="512" y="661"/>
      <point x="438" y="576"/>
    </contour>
  </outline>
</glyph>
<glyph name="yen" format="1">
  <advance width="742"/>
  <unicode hex="00A5"/>
  <outline>
    <contour>
      <point x="599" y="438" type="curve"/>
      <point x="526" y="438"/>
      <point x="453" y="438"/>
      <point x="380" y="438" type="curve"/>
      <point x="380" y="312"/>
      <point x="380" y="438"/>
      <point x="380" y="312" type="curve"/>
      <point x="453" y="312"/>
      <point x="526" y="312"/>
      <point x="599" y="312" type="curve"/>
      <point x="599" y="438"/>
      <point x="599" y="312"/>
    </contour>
    <contour>
      <point x="349" y="438" type="curve"/>
      <point x="278" y="438"/>
      <point x="206" y="438"/>
      <point x="134" y="438" type="curve"/>
      <point x="134" y="312"/>
      <point x="134" y="438"/>
      <point x="134" y="312" type="curve"/>
      <point x="206" y="312"/>
      <point x="278" y="312"/>
      <point x="349" y="312" type="curve"/>
      <point x="349" y="438"/>
      <point x="349" y="312"/>
    </contour>
    <contour>
      <point x="599" y="280" type="curve"/>
      <point x="444" y="280"/>
      <point x="289" y="280"/>
      <point x="134" y="280" type="curve"/>
      <point x="134" y="154"/>
      <point x="134" y="280"/>
      <point x="134" y="154" type="curve"/>
      <point x="289" y="154"/>
      <point x="444" y="154"/>
      <point x="599" y="154" type="curve"/>
      <point x="599" y="280"/>
      <point x="599" y="154"/>
    </contour>
    <contour>
      <point x="363" y="114" type="curve"/>
      <point x="212" y="114"/>
      <point x="363" y="114"/>
      <point x="212" y="114" type="curve"/>
      <point x="212" y="0"/>
      <point x="212" y="114"/>
      <point x="212" y="0" type="curve"/>
      <point x="262" y="0"/>
      <point x="312" y="0"/>
      <point x="363" y="0" type="curve"/>
      <point x="363" y="114"/>
      <point x="363" y="0"/>
    </contour>
    <contour>
      <point x="363" y="0" type="curve"/>
      <point x="414" y="0"/>
      <point x="464" y="0"/>
      <point x="514" y="0" type="curve"/>
      <point x="514" y="114"/>
      <point x="514" y="0"/>
      <point x="514" y="114" type="curve"/>
      <point x="363" y="114"/>
      <point x="514" y="114"/>
      <point x="363" y="114" type="curve"/>
      <point x="363" y="0"/>
      <point x="363" y="114"/>
    </contour>
    <contour>
      <point x="566" y="722" type="curve"/>
      <point x="517" y="722"/>
      <point x="468" y="722"/>
      <point x="419" y="722" type="curve"/>
      <point x="419" y="608"/>
      <point x="419" y="722"/>
      <point x="419" y="608" type="curve"/>
      <point x="566" y="608"/>
      <point x="419" y="608"/>
      <point x="566" y="608" type="curve"/>
      <point x="566" y="722"/>
      <point x="566" y="608"/>
    </contour>
    <contour>
      <point x="163" y="722" type="curve"/>
      <point x="122" y="722"/>
      <point x="80" y="722"/>
      <point x="39" y="722" type="curve"/>
      <point x="39" y="608"/>
      <point x="39" y="722"/>
      <point x="39" y="608" type="curve"/>
      <point x="163" y="608"/>
      <point x="39" y="608"/>
      <point x="163" y="608" type="curve"/>
      <point x="163" y="722"/>
      <point x="163" y="608"/>
    </contour>
    <contour>
      <point x="172" y="608" type="curve"/>
      <point x="319" y="608"/>
      <point x="172" y="608"/>
      <point x="319" y="608" type="curve"/>
      <point x="319" y="722"/>
      <point x="319" y="608"/>
      <point x="319" y="722" type="curve"/>
      <point x="270" y="722"/>
      <point x="221" y="722"/>
      <point x="172" y="722" type="curve"/>
      <point x="172" y="608"/>
      <point x="172" y="722"/>
    </contour>
    <contour>
      <point x="575" y="608" type="curve"/>
      <point x="702" y="608"/>
      <point x="575" y="608"/>
      <point x="702" y="608" type="curve"/>
      <point x="702" y="722"/>
      <point x="702" y="608"/>
      <point x="702" y="722" type="curve"/>
      <point x="660" y="722"/>
      <point x="618" y="722"/>
      <point x="575" y="722" type="curve"/>
      <point x="575" y="608"/>
      <point x="575" y="722"/>
    </contour>
    <contour>
      <point x="59" y="700" type="curve"/>
      <point x="135" y="579"/>
      <point x="208" y="459"/>
      <point x="283" y="337" type="curve"/>
      <point x="437" y="337"/>
      <point x="273" y="337"/>
      <point x="427" y="337" type="curve"/>
      <point x="350" y="467"/>
      <point x="274" y="593"/>
      <point x="195" y="722" type="curve"/>
      <point x="59" y="722"/>
      <point x="195" y="700"/>
    </contour>
    <contour>
      <point x="544" y="722" type="curve"/>
      <point x="460" y="592"/>
      <point x="379" y="467"/>
      <point x="294" y="337" type="curve"/>
      <point x="448" y="337"/>
      <point x="289" y="337"/>
      <point x="443" y="337" type="curve"/>
      <point x="523" y="460"/>
      <point x="601" y="580"/>
      <point x="681" y="701" type="curve"/>
      <point x="544" y="701"/>
      <point x="681" y="722"/>
    </contour>
    <contour>
      <point x="446" y="0" type="curve"/>
      <point x="446" y="115"/>
      <point x="446" y="227"/>
      <point x="446" y="342" type="curve"/>
      <point x="280" y="342"/>
      <point x="446" y="342"/>
      <point x="280" y="342" type="curve"/>
      <point x="280" y="227"/>
      <point x="280" y="115"/>
      <point x="280" y="0" type="curve"/>
      <point x="446" y="0"/>
      <point x="280" y="0"/>
    </contour>
  </outline>
</glyph>
<glyph name="brokenbar" format="1">
  <advance width="328"/>
  <unicode hex="00A6"/>
  <outline>
    <contour>
      <point x="240" y="-300" type="curve"/>
      <point x="240" y="-176"/>
      <point x="240" y="-52"/>
      <point x="240" y="72" type="curve"/>
      <point x="88" y="72"/>
      <point x="240" y="72"/>
      <point x="88" y="72" type="curve"/>
      <point x="88" y="-52"/>
      <point x="88" y="-176"/>
      <point x="88" y="-300" type="curve"/>
      <point x="240" y="-300"/>
      <point x="88" y="-300"/>
    </contour>
    <contour>
      <point x="240" y="428" type="curve"/>
      <point x="240" y="552"/>
      <point x="240" y="676"/>
      <point x="240" y="800" type="curve"/>
      <point x="88" y="800"/>
      <point x="240" y="800"/>
      <point x="88" y="800" type="curve"/>
      <point x="88" y="676"/>
      <point x="88" y="552"/>
      <point x="88" y="428" type="curve"/>
      <point x="240" y="428"/>
      <point x="88" y="428"/>
    </contour>
  </outline>
</glyph>
<glyph name="dieresis" format="1">
  <advance width="427"/>
  <unicode hex="00A8"/>
  <outline>
    <contour>
      <point x="220" y="547" type="move" name="_top"/>
    </contour>
    <contour>
      <point x="195" y="616" type="curve"/>
      <point x="195" y="666"/>
      <point x="159" y="690"/>
      <point x="109" y="690" type="curve"/>
      <point x="59" y="690"/>
      <point x="25" y="664"/>
      <point x="25" y="616" type="curve"/>
      <point x="195" y="616"/>
      <point x="25" y="616"/>
      <point x="195" y="616" type="curve"/>
      <point x="195" y="565"/>
      <point x="159" y="543"/>
      <point x="108" y="543" type="curve"/>
      <point x="58" y="543"/>
      <point x="25" y="567"/>
      <point x="25" y="616" type="curve"/>
      <point x="195" y="616"/>
      <point x="25" y="616"/>
    </contour>
    <contour>
      <point x="417" y="616" type="curve"/>
      <point x="417" y="666"/>
      <point x="380" y="690"/>
      <point x="331" y="690" type="curve"/>
      <point x="281" y="690"/>
      <point x="247" y="664"/>
      <point x="247" y="616" type="curve"/>
      <point x="417" y="616"/>
      <point x="247" y="616"/>
      <point x="417" y="616" type="curve"/>
      <point x="417" y="565"/>
      <point x="381" y="543"/>
      <point x="330" y="543" type="curve"/>
      <point x="280" y="543"/>
      <point x="247" y="567"/>
      <point x="247" y="616" type="curve"/>
      <point x="417" y="616"/>
      <point x="247" y="616"/>
    </contour>
  </outline>
</glyph>
<glyph name="copyright" format="1">
  <advance width="864"/>
  <unicode hex="00A9"/>
  <outline>
    <contour>
      <point x="177" y="325" type="curve"/>
      <point x="177" y="469"/>
      <point x="287" y="553"/>
      <point x="436" y="553" type="curve"/>
      <point x="582" y="553"/>
      <point x="689" y="466"/>
      <point x="689" y="322" type="curve"/>
      <point x="689" y="183"/>
      <point x="587" y="97"/>
      <point x="445" y="97" type="curve"/>
      <point x="294" y="97"/>
      <point x="177" y="178"/>
      <point x="177" y="325" type="curve"/>
      <point x="55" y="325"/>
      <point x="179" y="325"/>
      <point x="56" y="325" type="curve"/>
      <point x="56" y="120"/>
      <point x="223" y="7"/>
      <point x="440" y="7" type="curve"/>
      <point x="650" y="7"/>
      <point x="808" y="124"/>
      <point x="808" y="327" type="curve"/>
      <point x="808" y="529"/>
      <point x="647" y="645"/>
      <point x="436" y="645" type="curve"/>
      <point x="222" y="645"/>
      <point x="56" y="530"/>
      <point x="56" y="325" type="curve"/>
      <point x="179" y="325"/>
      <point x="55" y="325"/>
    </contour>
    <contour>
      <point x="489" y="414" type="curve"/>
      <point x="489" y="402"/>
      <point x="489" y="388"/>
      <point x="489" y="373" type="curve"/>
      <point x="600" y="373"/>
      <point x="491" y="373"/>
      <point x="601" y="373" type="curve"/>
      <point x="601" y="404"/>
      <point x="601" y="440"/>
      <point x="601" y="467" type="curve"/>
      <point x="491" y="418"/>
      <point x="600" y="463"/>
    </contour>
    <contour>
      <point x="601" y="467" type="curve"/>
      <point x="556" y="500"/>
      <point x="504" y="514"/>
      <point x="442" y="514" type="curve"/>
      <point x="312" y="514"/>
      <point x="225" y="447"/>
      <point x="225" y="323" type="curve"/>
      <point x="225" y="204"/>
      <point x="303" y="138"/>
      <point x="425" y="138" type="curve"/>
      <point x="495" y="138"/>
      <point x="544" y="147"/>
      <point x="601" y="195" type="curve"/>
      <point x="536" y="259"/>
      <point x="601" y="195"/>
      <point x="536" y="259" type="curve"/>
      <point x="493" y="238"/>
      <point x="468" y="229"/>
      <point x="430" y="229" type="curve"/>
      <point x="372" y="229"/>
      <point x="343" y="268"/>
      <point x="343" y="328" type="curve"/>
      <point x="343" y="387"/>
      <point x="376" y="423"/>
      <point x="437" y="423" type="curve"/>
      <point x="459" y="423"/>
      <point x="476" y="419"/>
      <point x="489" y="414" type="curve"/>
      <point x="600" y="463"/>
      <point x="491" y="418"/>
    </contour>
  </outline>
</glyph>
<glyph name="macron" format="1">
  <advance width="314"/>
  <unicode hex="00AF"/>
  <outline>
    <contour>
      <point x="155" y="556" type="move" name="_top"/>
    </contour>
    <contour>
      <point x="271" y="670" type="curve"/>
      <point x="193" y="670"/>
      <point x="115" y="670"/>
      <point x="36" y="670" type="curve"/>
      <point x="36" y="556"/>
      <point x="36" y="670"/>
      <point x="36" y="556" type="curve"/>
      <point x="115" y="556"/>
      <point x="193" y="556"/>
      <point x="271" y="556" type="curve"/>
      <point x="271" y="670"/>
      <point x="271" y="556"/>
    </contour>
  </outline>
</glyph>
<glyph name="Atilde" format="1">
  <advance width="841"/>
  <unicode hex="00C3"/>
  <outline>
    <contour>
      <point x="128" y="114" type="curve"/>
      <point x="-8" y="114"/>
      <point x="132" y="114"/>
      <point x="-4" y="114" type="curve"/>
      <point x="-4" y="0"/>
      <point x="-4" y="114"/>
      <point x="-4" y="0" type="curve"/>
      <point x="42" y="0"/>
      <point x="83" y="0"/>
      <point x="127" y="0" type="curve"/>
      <point x="128" y="114"/>
      <point x="127" y="0"/>
    </contour>
    <contour>
      <point x="128" y="0" type="curve"/>
      <point x="189" y="0"/>
      <point x="128" y="0"/>
      <point x="314" y="0" type="curve"/>
      <point x="314" y="114"/>
      <point x="314" y="0"/>
      <point x="314" y="114" type="curve"/>
      <point x="128" y="114"/>
      <point x="314" y="114"/>
      <point x="128" y="114" type="curve"/>
      <point x="128" y="0"/>
      <point x="128" y="114"/>
    </contour>
    <contour>
      <point x="697" y="0" type="curve"/>
      <point x="742" y="0"/>
      <point x="783" y="0"/>
      <point x="828" y="0" type="curve"/>
      <point x="828" y="114"/>
      <point x="828" y="0"/>
      <point x="828" y="114" type="curve"/>
      <point x="692" y="114"/>
      <point x="833" y="114"/>
      <point x="697" y="114" type="curve"/>
      <point x="697" y="0"/>
      <point x="697" y="114"/>
    </contour>
    <contour>
      <point x="697" y="114" type="curve"/>
      <point x="511" y="114"/>
      <point x="697" y="114"/>
      <point x="511" y="114" type="curve"/>
      <point x="511" y="0"/>
      <point x="511" y="114"/>
      <point x="511" y="0" type="curve"/>
      <point x="574" y="0"/>
      <point x="635" y="0"/>
      <point x="697" y="0" type="curve"/>
      <point x="697" y="114"/>
      <point x="697" y="0"/>
    </contour>
    <contour>
      <point x="583" y="306" type="curve"/>
      <point x="477" y="306"/>
      <point x="370" y="306"/>
      <point x="264" y="306" type="curve"/>
      <point x="202" y="186"/>
      <point x="264" y="306"/>
      <point x="202" y="186" type="curve"/>
      <point x="345" y="186"/>
      <point x="488" y="186"/>
      <point x="631" y="186" type="curve"/>
      <point x="583" y="306"/>
      <point x="631" y="186"/>
    </contour>
    <contour>
      <point x="789" y="0" type="curve"/>
      <point x="695" y="242"/>
      <point x="593" y="480"/>
      <point x="499" y="722" type="curve"/>
      <point x="360" y="722"/>
      <point x="499" y="722"/>
      <point x="360" y="722" type="curve"/>
      <point x="452" y="483"/>
      <point x="537" y="239"/>
      <point x="630" y="0" type="curve"/>
      <point x="789" y="0"/>
      <point x="630" y="0"/>
    </contour>
    <contour>
      <point x="198" y="0" type="curve"/>
      <point x="301" y="239"/>
      <point x="394" y="483"/>
      <point x="497" y="722" type="curve"/>
      <point x="359" y="722"/>
      <point x="497" y="722"/>
      <point x="359" y="722" type="curve"/>
      <point x="253" y="480"/>
      <point x="137" y="242"/>
      <point x="32" y="0" type="curve"/>
      <point x="198" y="0"/>
      <point x="32" y="0"/>
    </contour>
    <contour>
      <point x="564" y="965" type="curve"/>
      <point x="550" y="930"/>
      <point x="533" y="908"/>
      <point x="510" y="908" type="curve"/>
      <point x="479" y="908"/>
      <point x="463" y="916"/>
      <point x="439" y="934" type="curve" smooth="yes"/>
      <point x="402" y="962"/>
      <point x="377" y="973"/>
      <point x="333" y="973" type="curve"/>
      <point x="252" y="973"/>
      <point x="205" y="916"/>
      <point x="175" y="836" type="curve"/>
      <point x="287" y="778"/>
      <point x="176" y="836"/>
      <point x="288" y="778" type="curve"/>
      <point x="307" y="821"/>
      <point x="325" y="838"/>
      <point x="350" y="838" type="curve"/>
      <point x="378" y="838"/>
      <point x="393" y="828"/>
      <point x="413" y="812" type="curve" smooth="yes"/>
      <point x="455" y="782"/>
      <point x="480" y="771"/>
      <point x="528" y="771" type="curve"/>
      <point x="611" y="771"/>
      <point x="654" y="828"/>
      <point x="684" y="909" type="curve"/>
      <point x="565" y="965"/>
      <point x="683" y="908"/>
    </contour>
  </outline>
</glyph>
<glyph name="Adieresis" format="1">
  <advance width="841"/>
  <unicode hex="00C4"/>
  <outline>
    <contour>
      <point x="128" y="114" type="curve"/>
      <point x="-8" y="114"/>
      <point x="132" y="114"/>
      <point x="-4" y="114" type="curve"/>
      <point x="-4" y="0"/>
      <point x="-4" y="114"/>
      <point x="-4" y="0" type="curve"/>
      <point x="42" y="0"/>
      <point x="83" y="0"/>
      <point x="127" y="0" type="curve"/>
      <point x="128" y="114"/>
      <point x="127" y="0"/>
    </contour>
    <contour>
      <point x="128" y="0" type="curve"/>
      <point x="189" y="0"/>
      <point x="128" y="0"/>
      <point x="314" y="0" type="curve"/>
      <point x="314" y="114"/>
      <point x="314" y="0"/>
      <point x="314" y="114" type="curve"/>
      <point x="128" y="114"/>
      <point x="314" y="114"/>
      <point x="128" y="114" type="curve"/>
      <point x="128" y="0"/>
      <point x="128" y="114"/>
    </contour>
    <contour>
      <point x="697" y="0" type="curve"/>
      <point x="742" y="0"/>
      <point x="783" y="0"/>
      <point x="828" y="0" type="curve"/>
      <point x="828" y="114"/>
      <point x="828" y="0"/>
      <point x="828" y="114" type="curve"/>
      <point x="692" y="114"/>
      <point x="833" y="114"/>
      <point x="697" y="114" type="curve"/>
      <point x="697" y="0"/>
      <point x="697" y="114"/>
    </contour>
    <contour>
      <point x="697" y="114" type="curve"/>
      <point x="511" y="114"/>
      <point x="697" y="114"/>
      <point x="511" y="114" type="curve"/>
      <point x="511" y="0"/>
      <point x="511" y="114"/>
      <point x="511" y="0" type="curve"/>
      <point x="574" y="0"/>
      <point x="635" y="0"/>
      <point x="697" y="0" type="curve"/>
      <point x="697" y="114"/>
      <point x="697" y="0"/>
    </contour>
    <contour>
      <point x="583" y="306" type="curve"/>
      <point x="477" y="306"/>
      <point x="370" y="306"/>
      <point x="264" y="306" type="curve"/>
      <point x="202" y="186"/>
      <point x="264" y="306"/>
      <point x="202" y="186" type="curve"/>
      <point x="345" y="186"/>
      <point x="488" y="186"/>
      <point x="631" y="186" type="curve"/>
      <point x="583" y="306"/>
      <point x="631" y="186"/>
    </contour>
    <contour>
      <point x="789" y="0" type="curve"/>
      <point x="695" y="242"/>
      <point x="593" y="480"/>
      <point x="499" y="722" type="curve"/>
      <point x="360" y="722"/>
      <point x="499" y="722"/>
      <point x="360" y="722" type="curve"/>
      <point x="452" y="483"/>
      <point x="537" y="239"/>
      <point x="630" y="0" type="curve"/>
      <point x="789" y="0"/>
      <point x="630" y="0"/>
    </contour>
    <contour>
      <point x="198" y="0" type="curve"/>
      <point x="301" y="239"/>
      <point x="394" y="483"/>
      <point x="497" y="722" type="curve"/>
      <point x="359" y="722"/>
      <point x="497" y="722"/>
      <point x="359" y="722" type="curve"/>
      <point x="253" y="480"/>
      <point x="137" y="242"/>
      <point x="32" y="0" type="curve"/>
      <point x="198" y="0"/>
      <point x="32" y="0"/>
    </contour>
    <contour>
      <point x="401" y="849" type="curve"/>
      <point x="401" y="899"/>
      <point x="364" y="923"/>
      <point x="315" y="923" type="curve"/>
      <point x="265" y="923"/>
      <point x="231" y="896"/>
      <point x="231" y="849" type="curve"/>
      <point x="401" y="849"/>
      <point x="231" y="849"/>
      <point x="401" y="849" type="curve"/>
      <point x="401" y="798"/>
      <point x="365" y="776"/>
      <point x="314" y="776" type="curve"/>
      <point x="264" y="776"/>
      <point x="231" y="800"/>
      <point x="231" y="849" type="curve"/>
      <point x="401" y="849"/>
      <point x="231" y="849"/>
    </contour>
    <contour>
      <point x="623" y="849" type="curve"/>
      <point x="623" y="899"/>
      <point x="586" y="923"/>
      <point x="537" y="923" type="curve"/>
      <point x="487" y="923"/>
      <point x="453" y="896"/>
      <point x="453" y="849" type="curve"/>
      <point x="623" y="849"/>
      <point x="453" y="849"/>
      <point x="623" y="849" type="curve"/>
      <point x="623" y="798"/>
      <point x="586" y="776"/>
      <point x="536" y="776" type="curve"/>
      <point x="486" y="776"/>
      <point x="453" y="800"/>
      <point x="453" y="849" type="curve"/>
      <point x="623" y="849"/>
      <point x="453" y="849"/>
    </contour>
  </outline>
</glyph>
<glyph name="Aring" format="1">
  <advance width="841"/>
  <unicode hex="00C5"/>
  <outline>
    <contour>
      <point x="128" y="114" type="curve"/>
      <point x="-8" y="114"/>
      <point x="132" y="114"/>
      <point x="-4" y="114" type="curve"/>
      <point x="-4" y="0"/>
      <point x="-4" y="114"/>
      <point x="-4" y="0" type="curve"/>
      <point x="42" y="0"/>
      <point x="83" y="0"/>
      <point x="127" y="0" type="curve"/>
      <point x="128" y="114"/>
      <point x="127" y="0"/>
    </contour>
    <contour>
      <point x="128" y="0" type="curve"/>
      <point x="189" y="0"/>
      <point x="128" y="0"/>
      <point x="314" y="0" type="curve"/>
      <point x="314" y="114"/>
      <point x="314" y="0"/>
      <point x="314" y="114" type="curve"/>
      <point x="128" y="114"/>
      <point x="314" y="114"/>
      <point x="128" y="114" type="curve"/>
      <point x="128" y="0"/>
      <point x="128" y="114"/>
    </contour>
    <contour>
      <point x="697" y="0" type="curve"/>
      <point x="742" y="0"/>
      <point x="783" y="0"/>
      <point x="828" y="0" type="curve"/>
      <point x="828" y="114"/>
      <point x="828" y="0"/>
      <point x="828" y="114" type="curve"/>
      <point x="692" y="114"/>
      <point x="833" y="114"/>
      <point x="697" y="114" type="curve"/>
      <point x="697" y="0"/>
      <point x="697" y="114"/>
    </contour>
    <contour>
      <point x="697" y="114" type="curve"/>
      <point x="511" y="114"/>
      <point x="697" y="114"/>
      <point x="511" y="114" type="curve"/>
      <point x="511" y="0"/>
      <point x="511" y="114"/>
      <point x="511" y="0" type="curve"/>
      <point x="574" y="0"/>
      <point x="635" y="0"/>
      <point x="697" y="0" type="curve"/>
      <point x="697" y="114"/>
      <point x="697" y="0"/>
    </contour>
    <contour>
      <point x="583" y="306" type="curve"/>
      <point x="477" y="306"/>
      <point x="370" y="306"/>
      <point x="264" y="306" type="curve"/>
      <point x="202" y="186"/>
      <point x="264" y="306"/>
      <point x="202" y="186" type="curve"/>
      <point x="345" y="186"/>
      <point x="488" y="186"/>
      <point x="631" y="186" type="curve"/>
      <point x="583" y="306"/>
      <point x="631" y="186"/>
    </contour>
    <contour>
      <point x="789" y="0" type="curve"/>
      <point x="695" y="242"/>
      <point x="593" y="480"/>
      <point x="499" y="722" type="curve"/>
      <point x="360" y="722"/>
      <point x="499" y="722"/>
      <point x="360" y="722" type="curve"/>
      <point x="452" y="483"/>
      <point x="537" y="239"/>
      <point x="630" y="0" type="curve"/>
      <point x="789" y="0"/>
      <point x="630" y="0"/>
    </contour>
    <contour>
      <point x="198" y="0" type="curve"/>
      <point x="301" y="239"/>
      <point x="394" y="483"/>
      <point x="497" y="722" type="curve"/>
      <point x="359" y="722"/>
      <point x="497" y="722"/>
      <point x="359" y="722" type="curve"/>
      <point x="253" y="480"/>
      <point x="137" y="242"/>
      <point x="32" y="0" type="curve"/>
      <point x="198" y="0"/>
      <point x="32" y="0"/>
    </contour>
    <contour>
      <point x="249" y="926" type="curve"/>
      <point x="249" y="828"/>
      <point x="323" y="777"/>
      <point x="427" y="777" type="curve"/>
      <point x="533" y="777"/>
      <point x="609" y="827"/>
      <point x="609" y="926" type="curve"/>
      <point x="609" y="1026"/>
      <point x="532" y="1075"/>
      <point x="425" y="1075" type="curve"/>
      <point x="321" y="1075"/>
      <point x="249" y="1024"/>
      <point x="249" y="926" type="curve"/>
      <point x="378" y="926"/>
      <point x="244" y="926"/>
      <point x="373" y="926" type="curve"/>
      <point x="373" y="958"/>
      <point x="391" y="976"/>
      <point x="425" y="976" type="curve"/>
      <point x="460" y="976"/>
      <point x="481" y="962"/>
      <point x="481" y="926" type="curve"/>
      <point x="481" y="892"/>
      <point x="462" y="876"/>
      <point x="427" y="876" type="curve"/>
      <point x="393" y="876"/>
      <point x="373" y="893"/>
      <point x="373" y="926" type="curve"/>
      <point x="244" y="926"/>
      <point x="378" y="926"/>
    </contour>
  </outline>
</glyph>
<glyph name="Eacute" format="1">
  <advance width="710"/>
  <unicode hex="00C9"/>
  <outline>
    <contour>
      <point x="668" y="57" type="curve"/>
      <point x="668" y="177"/>
      <point x="668" y="57"/>
      <point x="668" y="177" type="curve"/>
      <point x="551" y="177"/>
      <point x="668" y="177"/>
      <point x="551" y="177" type="curve"/>
      <point x="551" y="57"/>
      <point x="551" y="177"/>
      <point x="551" y="57" type="curve"/>
      <point x="668" y="57"/>
      <point x="551" y="57"/>
    </contour>
    <contour>
      <point x="515" y="665" type="curve"/>
      <point x="515" y="545"/>
      <point x="515" y="665"/>
      <point x="515" y="545" type="curve"/>
      <point x="633" y="545"/>
      <point x="515" y="545"/>
      <point x="633" y="545" type="curve"/>
      <point x="633" y="665"/>
      <point x="633" y="545"/>
      <point x="633" y="665" type="curve"/>
      <point x="515" y="665"/>
      <point x="633" y="665"/>
    </contour>
    <contour>
      <point x="223" y="114" type="curve"/>
      <point x="71" y="114"/>
      <point x="223" y="114"/>
      <point x="71" y="114" type="curve"/>
      <point x="71" y="0"/>
      <point x="71" y="114"/>
      <point x="71" y="0" type="curve"/>
      <point x="122" y="0"/>
      <point x="172" y="0"/>
      <point x="223" y="0" type="curve"/>
      <point x="223" y="114"/>
      <point x="223" y="0"/>
    </contour>
    <contour>
      <point x="223" y="722" type="curve"/>
      <point x="172" y="722"/>
      <point x="122" y="722"/>
      <point x="71" y="722" type="curve"/>
      <point x="71" y="608"/>
      <point x="71" y="722"/>
      <point x="71" y="608" type="curve"/>
      <point x="223" y="608"/>
      <point x="71" y="608"/>
      <point x="223" y="608" type="curve"/>
      <point x="223" y="722"/>
      <point x="223" y="608"/>
    </contour>
    <contour>
      <point x="226" y="315" type="curve"/>
      <point x="340" y="315"/>
      <point x="454" y="315"/>
      <point x="568" y="315" type="curve"/>
      <point x="568" y="430"/>
      <point x="568" y="315"/>
      <point x="568" y="430" type="curve"/>
      <point x="454" y="430"/>
      <point x="340" y="430"/>
      <point x="226" y="430" type="curve"/>
      <point x="226" y="315"/>
      <point x="226" y="430"/>
    </contour>
    <contour>
      <point x="210" y="608" type="curve"/>
      <point x="351" y="608"/>
      <point x="492" y="608"/>
      <point x="633" y="608" type="curve"/>
      <point x="633" y="722"/>
      <point x="633" y="608"/>
      <point x="633" y="722" type="curve"/>
      <point x="492" y="722"/>
      <point x="351" y="722"/>
      <point x="210" y="722" type="curve"/>
      <point x="210" y="608"/>
      <point x="210" y="722"/>
    </contour>
    <contour>
      <point x="298" y="0" type="curve"/>
      <point x="298" y="722" type="line"/>
      <point x="145" y="722"/>
      <point x="298" y="722"/>
      <point x="145" y="722" type="curve"/>
      <point x="145" y="481"/>
      <point x="145" y="241"/>
      <point x="145" y="0" type="curve"/>
      <point x="298" y="0"/>
      <point x="145" y="0"/>
    </contour>
    <contour>
      <point x="210" y="0" type="curve"/>
      <point x="363" y="0"/>
      <point x="515" y="0"/>
      <point x="668" y="0" type="curve"/>
      <point x="668" y="114"/>
      <point x="668" y="0"/>
      <point x="668" y="114" type="curve"/>
      <point x="515" y="114"/>
      <point x="363" y="114"/>
      <point x="210" y="114" type="curve"/>
      <point x="210" y="0"/>
      <point x="210" y="114"/>
    </contour>
    <contour>
      <point x="430" y="779" type="line"/>
      <point x="591" y="945" type="line"/>
      <point x="398" y="945" type="line"/>
      <point x="282" y="779" type="line"/>
    </contour>
  </outline>
</glyph>
<glyph name="Eth" format="1">
  <advance width="878"/>
  <unicode hex="00D0"/>
  <outline>
    <contour>
      <point x="224" y="114" type="curve"/>
      <point x="72" y="114"/>
      <point x="224" y="114"/>
      <point x="72" y="114" type="curve"/>
      <point x="72" y="0"/>
      <point x="72" y="114"/>
      <point x="72" y="0" type="curve"/>
      <point x="123" y="0"/>
      <point x="173" y="0"/>
      <point x="224" y="0" type="curve"/>
      <point x="224" y="114"/>
      <point x="224" y="0"/>
    </contour>
    <contour>
      <point x="224" y="722" type="curve"/>
      <point x="173" y="722"/>
      <point x="123" y="722"/>
      <point x="72" y="722" type="curve"/>
      <point x="72" y="608"/>
      <point x="72" y="722"/>
      <point x="72" y="608" type="curve"/>
      <point x="224" y="608"/>
      <point x="72" y="608"/>
      <point x="224" y="608" type="curve"/>
      <point x="224" y="722"/>
      <point x="224" y="608"/>
    </contour>
    <contour>
      <point x="145" y="722" type="curve"/>
      <point x="145" y="481"/>
      <point x="145" y="241"/>
      <point x="145" y="0" type="curve"/>
      <point x="298" y="0"/>
      <point x="145" y="0"/>
      <point x="298" y="0" type="curve"/>
      <point x="298" y="241"/>
      <point x="298" y="481"/>
      <point x="298" y="722" type="curve"/>
      <point x="145" y="722"/>
      <point x="298" y="722"/>
    </contour>
    <contour>
      <point x="224" y="0" type="curve"/>
      <point x="291" y="0"/>
      <point x="358" y="0"/>
      <point x="427" y="0" type="curve"/>
      <point x="677" y="0"/>
      <point x="824" y="112"/>
      <point x="824" y="354" type="curve"/>
      <point x="824" y="604"/>
      <point x="678" y="722"/>
      <point x="421" y="722" type="curve"/>
      <point x="356" y="722"/>
      <point x="290" y="722"/>
      <point x="224" y="722" type="curve"/>
      <point x="224" y="608"/>
      <point x="224" y="722"/>
      <point x="224" y="608" type="curve"/>
      <point x="287" y="608"/>
      <point x="351" y="608"/>
      <point x="414" y="608" type="curve"/>
      <point x="586" y="608"/>
      <point x="672" y="520"/>
      <point x="672" y="350" type="curve"/>
      <point x="672" y="195"/>
      <point x="594" y="114"/>
      <point x="439" y="114" type="curve"/>
      <point x="367" y="114"/>
      <point x="296" y="114"/>
      <point x="224" y="114" type="curve"/>
      <point x="224" y="0"/>
      <point x="224" y="114"/>
    </contour>
    <contour>
      <point x="87" y="298" type="curve"/>
      <point x="212" y="298"/>
      <point x="337" y="298"/>
      <point x="463" y="298" type="curve"/>
      <point x="463" y="423"/>
      <point x="463" y="298"/>
      <point x="463" y="423" type="curve"/>
      <point x="337" y="423"/>
      <point x="212" y="423"/>
      <point x="87" y="423" type="curve"/>
      <point x="87" y="298"/>
      <point x="87" y="423"/>
    </contour>
  </outline>
</glyph>
<glyph name="Udieresis" format="1">
  <advance width="911"/>
  <unicode hex="00DC"/>
  <outline>
    <contour>
      <point x="717" y="608" type="curve"/>
      <point x="867" y="608"/>
      <point x="717" y="608"/>
      <point x="867" y="608" type="curve"/>
      <point x="867" y="722"/>
      <point x="867" y="608"/>
      <point x="867" y="722" type="curve"/>
      <point x="818" y="722"/>
      <point x="767" y="722"/>
      <point x="717" y="722" type="curve"/>
      <point x="717" y="608"/>
      <point x="717" y="722"/>
    </contour>
    <contour>
      <point x="717" y="722" type="curve"/>
      <point x="667" y="722"/>
      <point x="617" y="722"/>
      <point x="568" y="722" type="curve"/>
      <point x="568" y="608"/>
      <point x="568" y="722"/>
      <point x="568" y="608" type="curve"/>
      <point x="717" y="608"/>
      <point x="568" y="608"/>
      <point x="717" y="608" type="curve"/>
      <point x="717" y="722"/>
      <point x="717" y="608"/>
    </contour>
    <contour>
      <point x="196" y="722" type="curve"/>
      <point x="146" y="722"/>
      <point x="96" y="722"/>
      <point x="47" y="722" type="curve"/>
      <point x="46" y="608"/>
      <point x="47" y="722"/>
      <point x="46" y="608" type="curve"/>
      <point x="196" y="608"/>
      <point x="46" y="608"/>
      <point x="196" y="608" type="curve"/>
      <point x="196" y="722"/>
      <point x="196" y="608"/>
    </contour>
    <contour>
      <point x="196" y="608" type="curve"/>
      <point x="346" y="608"/>
      <point x="196" y="608"/>
      <point x="346" y="608" type="curve"/>
      <point x="346" y="722"/>
      <point x="346" y="608"/>
      <point x="346" y="722" type="curve"/>
      <point x="297" y="722"/>
      <point x="247" y="722"/>
      <point x="196" y="722" type="curve"/>
      <point x="196" y="608"/>
      <point x="196" y="722"/>
    </contour>
    <contour>
      <point x="125" y="673" type="curve"/>
      <point x="125" y="540"/>
      <point x="125" y="412"/>
      <point x="125" y="278" type="curve"/>
      <point x="125" y="79"/>
      <point x="243" y="-5"/>
      <point x="452" y="-5" type="curve"/>
      <point x="666" y="-5"/>
      <point x="786" y="85"/>
      <point x="786" y="291" type="curve"/>
      <point x="786" y="420"/>
      <point x="786" y="544"/>
      <point x="786" y="673" type="curve"/>
      <point x="648" y="673"/>
      <point x="786" y="673"/>
      <point x="648" y="673" type="curve"/>
      <point x="648" y="537"/>
      <point x="648" y="413"/>
      <point x="648" y="277" type="curve"/>
      <point x="648" y="169"/>
      <point x="579" y="121"/>
      <point x="464" y="121" type="curve"/>
      <point x="334" y="121"/>
      <point x="264" y="174"/>
      <point x="264" y="300" type="curve"/>
      <point x="264" y="426"/>
      <point x="264" y="548"/>
      <point x="264" y="673" type="curve"/>
      <point x="125" y="673"/>
      <point x="264" y="673"/>
    </contour>
    <contour>
      <point x="432" y="849" type="curve"/>
      <point x="432" y="899"/>
      <point x="395" y="923"/>
      <point x="346" y="923" type="curve"/>
      <point x="296" y="923"/>
      <point x="262" y="896"/>
      <point x="262" y="849" type="curve"/>
      <point x="432" y="849"/>
      <point x="262" y="849"/>
      <point x="432" y="849" type="curve"/>
      <point x="432" y="798"/>
      <point x="396" y="776"/>
      <point x="346" y="776" type="curve"/>
      <point x="295" y="776"/>
      <point x="262" y="800"/>
      <point x="262" y="849" type="curve"/>
      <point x="432" y="849"/>
      <point x="262" y="849"/>
    </contour>
    <contour>
      <point x="654" y="849" type="curve"/>
      <point x="654" y="899"/>
      <point x="617" y="923"/>
      <point x="568" y="923" type="curve"/>
      <point x="518" y="923"/>
      <point x="484" y="896"/>
      <point x="484" y="849" type="curve"/>
      <point x="654" y="849"/>
      <point x="484" y="849"/>
      <point x="654" y="849" type="curve"/>
      <point x="654" y="798"/>
      <point x="618" y="776"/>
      <point x="567" y="776" type="curve"/>
      <point x="517" y="776"/>
      <point x="484" y="800"/>
      <point x="484" y="849" type="curve"/>
      <point x="654" y="849"/>
      <point x="484" y="849"/>
    </contour>
  </outline>
</glyph>
<glyph name="aacute" format="1">
  <advance width="655"/>
  <unicode hex="00E1"/>
  <outline>
    <contour>
      <point x="74" y="462" type="curve"/>
      <point x="74" y="345"/>
      <point x="74" y="458"/>
      <point x="74" y="342" type="curve"/>
      <point x="192" y="342"/>
      <point x="74" y="342"/>
      <point x="192" y="342" type="curve"/>
      <point x="192" y="458"/>
      <point x="192" y="345"/>
      <point x="192" y="462" type="curve"/>
      <point x="74" y="462"/>
      <point x="192" y="462"/>
    </contour>
    <contour>
      <point x="557" y="0" type="curve"/>
      <point x="557" y="123"/>
      <point x="557" y="242"/>
      <point x="557" y="365" type="curve"/>
      <point x="557" y="499"/>
      <point x="451" y="538"/>
      <point x="312" y="538" type="curve"/>
      <point x="209" y="538"/>
      <point x="134" y="507"/>
      <point x="74" y="462" type="curve"/>
      <point x="131" y="365"/>
      <point x="80" y="458"/>
      <point x="136" y="362" type="curve"/>
      <point x="177" y="391"/>
      <point x="221" y="422"/>
      <point x="291" y="422" type="curve"/>
      <point x="354" y="422"/>
      <point x="405" y="407"/>
      <point x="405" y="342" type="curve"/>
      <point x="405" y="228"/>
      <point x="405" y="114"/>
      <point x="405" y="0" type="curve"/>
      <point x="557" y="0"/>
      <point x="405" y="0"/>
    </contour>
    <contour>
      <point x="484" y="0" type="curve"/>
      <point x="529" y="0"/>
      <point x="576" y="0"/>
      <point x="622" y="0" type="curve"/>
      <point x="622" y="114"/>
      <point x="622" y="0"/>
      <point x="622" y="114" type="curve"/>
      <point x="484" y="114"/>
      <point x="622" y="114"/>
      <point x="484" y="114" type="curve"/>
      <point x="484" y="0"/>
      <point x="484" y="114"/>
    </contour>
    <contour>
      <point x="477" y="345" type="curve"/>
      <point x="397" y="336"/>
      <point x="348" y="334"/>
      <point x="268" y="325" type="curve"/>
      <point x="141" y="310"/>
      <point x="46" y="281"/>
      <point x="46" y="162" type="curve"/>
      <point x="46" y="47"/>
      <point x="125" y="-5"/>
      <point x="248" y="-5" type="curve"/>
      <point x="373" y="-5"/>
      <point x="446" y="67"/>
      <point x="516" y="153" type="curve"/>
      <point x="442" y="213"/>
      <point x="516" y="153"/>
      <point x="442" y="213" type="curve"/>
      <point x="410" y="154"/>
      <point x="351" y="108"/>
      <point x="276" y="108" type="curve"/>
      <point x="226" y="108"/>
      <point x="194" y="124"/>
      <point x="194" y="165" type="curve"/>
      <point x="194" y="203"/>
      <point x="229" y="217"/>
      <point x="266" y="221" type="curve"/>
      <point x="352" y="231"/>
      <point x="398" y="238"/>
      <point x="484" y="248" type="curve"/>
      <point x="477" y="345"/>
      <point x="484" y="248"/>
    </contour>
    <contour>
      <point x="377" y="609" type="line"/>
      <point x="538" y="775" type="line"/>
      <point x="345" y="775" type="line"/>
      <point x="229" y="609" type="line"/>
    </contour>
  </outline>
</glyph>
<glyph name="egrave" format="1">
  <advance width="629"/>
  <unicode hex="00E8"/>
  <outline>
    <contour>
      <point x="120" y="224" type="curve"/>
      <point x="256" y="224"/>
      <point x="392" y="224"/>
      <point x="527" y="224" type="curve"/>
      <point x="591" y="224"/>
      <point x="527" y="224"/>
      <point x="591" y="224" type="curve"/>
      <point x="591" y="266"/>
      <point x="591" y="224"/>
      <point x="591" y="266" type="curve"/>
      <point x="591" y="272"/>
      <point x="591" y="277"/>
      <point x="591" y="283" type="curve"/>
      <point x="591" y="453"/>
      <point x="491" y="537"/>
      <point x="327" y="537" type="curve"/>
      <point x="152" y="537"/>
      <point x="43" y="452"/>
      <point x="43" y="278" type="curve"/>
      <point x="43" y="89"/>
      <point x="161" y="-5"/>
      <point x="350" y="-5" type="curve"/>
      <point x="438" y="-5"/>
      <point x="495" y="18"/>
      <point x="561" y="68" type="curve"/>
      <point x="483" y="155"/>
      <point x="561" y="68"/>
      <point x="483" y="155" type="curve"/>
      <point x="441" y="126"/>
      <point x="398" y="112"/>
      <point x="347" y="112" type="curve"/>
      <point x="243" y="112"/>
      <point x="190" y="172"/>
      <point x="190" y="278" type="curve"/>
      <point x="190" y="368"/>
      <point x="231" y="421"/>
      <point x="320" y="421" type="curve"/>
      <point x="400" y="421"/>
      <point x="446" y="383"/>
      <point x="446" y="303" type="curve"/>
      <point x="446" y="293"/>
      <point x="446" y="284"/>
      <point x="446" y="274" type="curve"/>
      <point x="460" y="285"/>
      <point x="472" y="298"/>
      <point x="486" y="309" type="curve"/>
      <point x="499" y="319"/>
      <point x="514" y="319"/>
      <point x="527" y="329" type="curve"/>
      <point x="392" y="329"/>
      <point x="256" y="329"/>
      <point x="120" y="329" type="curve"/>
      <point x="120" y="216"/>
      <point x="120" y="338"/>
    </contour>
    <contour>
      <point x="408" y="610" type="line"/>
      <point x="290" y="776" type="line"/>
      <point x="97" y="776" type="line"/>
      <point x="258" y="610" type="line"/>
    </contour>
  </outline>
</glyph>
<glyph name="icircumflex" format="1">
  <advance width="376"/>
  <unicode hex="00EE"/>
  <outline>
    <contour>
      <point x="191" y="114" type="curve"/>
      <point x="39" y="114"/>
      <point x="191" y="114"/>
      <point x="39" y="114" type="curve"/>
      <point x="39" y="0"/>
      <point x="39" y="114"/>
      <point x="39" y="0" type="curve"/>
      <point x="90" y="0"/>
      <point x="140" y="0"/>
      <point x="191" y="0" type="curve"/>
      <point x="191" y="114"/>
      <point x="191" y="0"/>
    </contour>
    <contour>
      <point x="191" y="0" type="curve"/>
      <point x="239" y="0"/>
      <point x="288" y="0"/>
      <point x="337" y="0" type="curve"/>
      <point x="337" y="114"/>
      <point x="337" y="0"/>
      <point x="337" y="114" type="curve"/>
      <point x="191" y="114"/>
      <point x="337" y="114"/>
      <point x="191" y="114" type="curve"/>
      <point x="191" y="0"/>
      <point x="191" y="114"/>
    </contour>
    <contour>
      <point x="191" y="533" type="curve"/>
      <point x="140" y="533"/>
      <point x="90" y="533"/>
      <point x="39" y="533" type="curve"/>
      <point x="39" y="419"/>
      <point x="39" y="533"/>
      <point x="39" y="419" type="curve"/>
      <point x="191" y="419"/>
      <point x="39" y="419"/>
      <point x="191" y="419" type="curve"/>
      <point x="191" y="533"/>
      <point x="191" y="419"/>
    </contour>
    <contour>
      <point x="271" y="0" type="curve"/>
      <point x="271" y="178"/>
      <point x="271" y="355"/>
      <point x="271" y="533" type="curve"/>
      <point x="111" y="533"/>
      <point x="271" y="533"/>
      <point x="111" y="533" type="curve"/>
      <point x="111" y="355"/>
      <point x="111" y="178"/>
      <point x="111" y="0" type="curve"/>
      <point x="271" y="0"/>
      <point x="111" y="0"/>
    </contour>
    <contour>
      <point x="102" y="611" type="line"/>
      <point x="263" y="777" type="line"/>
      <point x="70" y="777" type="line"/>
      <point x="-46" y="611" type="line"/>
    </contour>
    <contour>
      <point x="433" y="611" type="line"/>
      <point x="315" y="777" type="line"/>
      <point x="122" y="777" type="line"/>
      <point x="283" y="611" type="line"/>
    </contour>
  </outline>
</glyph>
<glyph name="eth" format="1">
  <advance width="656"/>
  <unicode hex="00F0"/>
  <outline>
    <contour>
      <point x="126" y="544" type="curve"/>
      <point x="200" y="619"/>
      <point x="276" y="693"/>
      <point x="350" y="768" type="curve"/>
      <point x="430" y="688"/>
      <point x="338" y="780"/>
      <point x="418" y="700" type="curve"/>
      <point x="344" y="625"/>
      <point x="269" y="550"/>
      <point x="194" y="476" type="curve"/>
      <point x="114" y="556"/>
      <point x="206" y="464"/>
    </contour>
    <contour>
      <point x="493" y="241" type="curve"/>
      <point x="454" y="315"/>
      <point x="402" y="339"/>
      <point x="321" y="339" type="curve"/>
      <point x="241" y="339"/>
      <point x="186" y="304"/>
      <point x="186" y="227" type="curve"/>
      <point x="186" y="160"/>
      <point x="237" y="130"/>
      <point x="308" y="130" type="curve"/>
      <point x="404" y="130"/>
      <point x="466" y="174"/>
      <point x="466" y="267" type="curve"/>
      <point x="466" y="480"/>
      <point x="301" y="562"/>
      <point x="78" y="621" type="curve"/>
      <point x="121" y="738"/>
      <point x="77" y="621"/>
      <point x="121" y="738" type="curve"/>
      <point x="392" y="678"/>
      <point x="612" y="546"/>
      <point x="612" y="261" type="curve"/>
      <point x="612" y="88"/>
      <point x="493" y="-5"/>
      <point x="314" y="-5" type="curve"/>
      <point x="149" y="-5"/>
      <point x="37" y="76"/>
      <point x="37" y="233" type="curve"/>
      <point x="37" y="385"/>
      <point x="148" y="459"/>
      <point x="307" y="459" type="curve"/>
      <point x="442" y="459"/>
      <point x="519" y="380"/>
      <point x="565" y="275" type="curve"/>
      <point x="493" y="241"/>
      <point x="565" y="275"/>
    </contour>
  </outline>
</glyph>
<glyph name="odieresis" format="1">
  <advance width="674"/>
  <unicode hex="00F6"/>
  <outline>
    <contour>
      <point x="190" y="267" type="curve"/>
      <point x="190" y="357"/>
      <point x="236" y="422"/>
      <point x="330" y="422" type="curve"/>
      <point x="429" y="422"/>
      <point x="480" y="358"/>
      <point x="480" y="266" type="curve"/>
      <point x="480" y="169"/>
      <point x="431" y="111"/>
      <point x="341" y="111" type="curve"/>
      <point x="241" y="112"/>
      <point x="190" y="169"/>
      <point x="190" y="267" type="curve"/>
      <point x="104" y="267"/>
      <point x="127" y="267"/>
      <point x="42" y="267" type="curve"/>
      <point x="42" y="91"/>
      <point x="156" y="-5"/>
      <point x="334" y="-5" type="curve"/>
      <point x="514" y="-5"/>
      <point x="632" y="88"/>
      <point x="632" y="266" type="curve"/>
      <point x="632" y="438"/>
      <point x="519" y="538"/>
      <point x="338" y="538" type="curve"/>
      <point x="156" y="538"/>
      <point x="42" y="438"/>
      <point x="42" y="267" type="curve"/>
      <point x="127" y="267"/>
      <point x="104" y="267"/>
    </contour>
    <contour>
      <point x="311" y="679" type="curve"/>
      <point x="311" y="729"/>
      <point x="274" y="753"/>
      <point x="225" y="753" type="curve"/>
      <point x="175" y="753"/>
      <point x="141" y="726"/>
      <point x="141" y="679" type="curve"/>
      <point x="311" y="679"/>
      <point x="141" y="679"/>
      <point x="311" y="679" type="curve"/>
      <point x="311" y="628"/>
      <point x="274" y="606"/>
      <point x="224" y="606" type="curve"/>
      <point x="174" y="606"/>
      <point x="141" y="630"/>
      <point x="141" y="679" type="curve"/>
      <point x="311" y="679"/>
      <point x="141" y="679"/>
    </contour>
    <contour>
      <point x="533" y="679" type="curve"/>
      <point x="533" y="729"/>
      <point x="496" y="753"/>
      <point x="446" y="753" type="curve"/>
      <point x="397" y="753"/>
      <point x="363" y="726"/>
      <point x="363" y="679" type="curve"/>
      <point x="533" y="679"/>
      <point x="363" y="679"/>
      <point x="533" y="679" type="curve"/>
      <point x="533" y="628"/>
      <point x="496" y="606"/>
      <point x="446" y="606" type="curve"/>
      <point x="396" y="606"/>
      <point x="363" y="630"/>
      <point x="363" y="679" type="curve"/>
      <point x="533" y="679"/>
      <point x="363" y="679"/>
    </contour>
  </outline>
</glyph>
<glyph name="divide" format="1">
  <advance width="693"/>
  <unicode hex="00F7"/>
  <outline>
    <contour>
      <point x="52" y="250" type="line"/>
      <point x="640" y="250" type="line"/>
      <point x="640" y="375" type="line"/>
      <point x="52" y="375" type="line"/>
    </contour>
    <contour>
      <point x="424" y="464" type="curve"/>
      <point x="424" y="514"/>
      <point x="388" y="538"/>
      <point x="338" y="538" type="curve"/>
      <point x="288" y="538"/>
      <point x="254" y="511"/>
      <point x="254" y="464" type="curve"/>
      <point x="424" y="464"/>
      <point x="254" y="464"/>
      <point x="424" y="464" type="curve"/>
      <point x="424" y="413"/>
      <point x="388" y="391"/>
      <point x="338" y="391" type="curve"/>
      <point x="288" y="391"/>
      <point x="254" y="415"/>
      <point x="254" y="464" type="curve"/>
      <point x="424" y="464"/>
      <point x="254" y="464"/>
    </contour>
    <contour>
      <point x="424" y="160" type="curve"/>
      <point x="424" y="210"/>
      <point x="387" y="234"/>
      <point x="338" y="234" type="curve"/>
      <point x="288" y="234"/>
      <point x="254" y="207"/>
      <point x="254" y="160" type="curve"/>
      <point x="424" y="160"/>
      <point x="254" y="160"/>
      <point x="424" y="160" type="curve"/>
      <point x="424" y="109"/>
      <point x="388" y="87"/>
      <point x="337" y="87" type="curve"/>
      <point x="287" y="87"/>
      <point x="254" y="111"/>
      <point x="254" y="160" type="curve"/>
      <point x="424" y="160"/>
      <point x="254" y="160"/>
    </contour>
  </outline>
</glyph>
<glyph name="Amacron" format="1">
  <advance width="841"/>
  <unicode hex="0100"/>
  <outline>
    <contour>
      <point x="128" y="114" type="curve"/>
      <point x="-8" y="114"/>
      <point x="132" y="114"/>
      <point x="-4" y="114" type="curve"/>
      <point x="-4" y="0"/>
      <point x="-4" y="114"/>
      <point x="-4" y="0" type="curve"/>
      <point x="42" y="0"/>
      <point x="83" y="0"/>
      <point x="127" y="0" type="curve"/>
      <point x="128" y="114"/>
      <point x="127" y="0"/>
    </contour>
    <contour>
      <point x="128" y="0" type="curve"/>
      <point x="189" y="0"/>
      <point x="128" y="0"/>
      <point x="314" y="0" type="curve"/>
      <point x="314" y="114"/>
      <point x="314" y="0"/>
      <point x="314" y="114" type="curve"/>
      <point x="128" y="114"/>
      <point x="314" y="114"/>
      <point x="128" y="114" type="curve"/>
      <point x="128" y="0"/>
      <point x="128" y="114"/>
    </contour>
    <contour>
      <point x="697" y="0" type="curve"/>
      <point x="742" y="0"/>
      <point x="783" y="0"/>
      <point x="828" y="0" type="curve"/>
      <point x="828" y="114"/>
      <point x="828" y="0"/>
      <point x="828" y="114" type="curve"/>
      <point x="692" y="114"/>
      <point x="833" y="114"/>
      <point x="697" y="114" type="curve"/>
      <point x="697" y="0"/>
      <point x="697" y="114"/>
    </contour>
    <contour>
      <point x="697" y="114" type="curve"/>
      <point x="511" y="114"/>
      <point x="697" y="114"/>
      <point x="511" y="114" type="curve"/>
      <point x="511" y="0"/>
      <point x="511" y="114"/>
      <point x="511" y="0" type="curve"/>
      <point x="574" y="0"/>
      <point x="635" y="0"/>
      <point x="697" y="0" type="curve"/>
      <point x="697" y="114"/>
      <point x="697" y="0"/>
    </contour>
    <contour>
      <point x="583" y="306" type="curve"/>
      <point x="477" y="306"/>
      <point x="370" y="306"/>
      <point x="264" y="306" type="curve"/>
      <point x="202" y="186"/>
      <point x="264" y="306"/>
      <point x="202" y="186" type="curve"/>
      <point x="345" y="186"/>
      <point x="488" y="186"/>
      <point x="631" y="186" type="curve"/>
      <point x="583" y="306"/>
      <point x="631" y="186"/>
    </contour>
    <contour>
      <point x="789" y="0" type="curve"/>
      <point x="695" y="242"/>
      <point x="593" y="480"/>
      <point x="499" y="722" type="curve"/>
      <point x="360" y="722"/>
      <point x="499" y="722"/>
      <point x="360" y="722" type="curve"/>
      <point x="452" y="483"/>
      <point x="537" y="239"/>
      <point x="630" y="0" type="curve"/>
      <point x="789" y="0"/>
      <point x="630" y="0"/>
    </contour>
    <contour>
      <point x="198" y="0" type="curve"/>
      <point x="301" y="239"/>
      <point x="394" y="483"/>
      <point x="497" y="722" type="curve"/>
      <point x="359" y="722"/>
      <point x="497" y="722"/>
      <point x="359" y="722" type="curve"/>
      <point x="253" y="480"/>
      <point x="137" y="242"/>
      <point x="32" y="0" type="curve"/>
      <point x="198" y="0"/>
      <point x="32" y="0"/>
    </contour>
    <contour>
      <point x="543" y="894" type="curve"/>
      <point x="465" y="894"/>
      <point x="386" y="894"/>
      <point x="308" y="894" type="curve"/>
      <point x="308" y="780"/>
      <point x="308" y="894"/>
      <point x="308" y="780" type="curve"/>
      <point x="386" y="780"/>
      <point x="465" y="780"/>
      <point x="543" y="780" type="curve"/>
      <point x="543" y="894"/>
      <point x="543" y="780"/>
    </contour>
  </outline>
</glyph>
<glyph name="ccaron" format="1">
  <advance width="612"/>
  <unicode hex="010D"/>
  <outline>
    <contour>
      <point x="440" y="469" type="curve"/>
      <point x="440" y="326"/>
      <point x="440" y="469"/>
      <point x="440" y="326" type="curve"/>
      <point x="557" y="326"/>
      <point x="440" y="326"/>
      <point x="557" y="326" type="curve"/>
      <point x="557" y="469"/>
      <point x="557" y="326"/>
      <point x="557" y="469" type="curve"/>
      <point x="440" y="469"/>
      <point x="557" y="469"/>
    </contour>
    <contour>
      <point x="557" y="469" type="curve"/>
      <point x="499" y="510"/>
      <point x="425" y="538"/>
      <point x="350" y="538" type="curve"/>
      <point x="164" y="538"/>
      <point x="42" y="451"/>
      <point x="42" y="267" type="curve"/>
      <point x="42" y="84"/>
      <point x="160" y="-5"/>
      <point x="346" y="-5" type="curve"/>
      <point x="430" y="-5"/>
      <point x="511" y="21"/>
      <point x="560" y="81" type="curve"/>
      <point x="471" y="165"/>
      <point x="560" y="81"/>
      <point x="471" y="165" type="curve"/>
      <point x="437" y="134"/>
      <point x="398" y="114"/>
      <point x="353" y="114" type="curve"/>
      <point x="253" y="114"/>
      <point x="194" y="165"/>
      <point x="194" y="267" type="curve"/>
      <point x="194" y="367"/>
      <point x="249" y="419"/>
      <point x="347" y="419" type="curve"/>
      <point x="390" y="419"/>
      <point x="432" y="411"/>
      <point x="467" y="389" type="curve"/>
      <point x="557" y="469"/>
      <point x="467" y="389"/>
    </contour>
    <contour>
      <point x="435" y="775" type="line"/>
      <point x="274" y="609" type="line"/>
      <point x="467" y="609" type="line"/>
      <point x="583" y="775" type="line"/>
    </contour>
    <contour>
      <point x="91" y="775" type="line"/>
      <point x="209" y="609" type="line"/>
      <point x="402" y="609" type="line"/>
      <point x="241" y="775" type="line"/>
    </contour>
  </outline>
</glyph>
<glyph name="dcaron" format="1">
  <advance width="743"/>
  <unicode hex="010F"/>
  <outline>
    <contour>
      <point x="546" y="800" type="curve"/>
      <point x="495" y="800"/>
      <point x="445" y="800"/>
      <point x="395" y="800" type="curve"/>
      <point x="395" y="686"/>
      <point x="395" y="800"/>
      <point x="395" y="686" type="curve"/>
      <point x="546" y="686"/>
      <point x="395" y="686"/>
      <point x="546" y="686" type="curve"/>
      <point x="546" y="799"/>
      <point x="546" y="687"/>
    </contour>
    <contour>
      <point x="547" y="0" type="curve"/>
      <point x="598" y="0"/>
      <point x="648" y="0"/>
      <point x="699" y="0" type="curve"/>
      <point x="699" y="114"/>
      <point x="699" y="0"/>
      <point x="699" y="114" type="curve"/>
      <point x="547" y="113"/>
      <point x="699" y="114"/>
      <point x="547" y="113" type="curve"/>
      <point x="547" y="-1"/>
      <point x="547" y="114"/>
    </contour>
    <contour>
      <point x="565" y="421" type="curve"/>
      <point x="499" y="495"/>
      <point x="408" y="536"/>
      <point x="310" y="536" type="curve"/>
      <point x="146" y="536"/>
      <point x="43" y="435"/>
      <point x="43" y="262" type="curve"/>
      <point x="43" y="91"/>
      <point x="148" y="-3"/>
      <point x="309" y="-3" type="curve"/>
      <point x="426" y="-3"/>
      <point x="509" y="50"/>
      <point x="567" y="139" type="curve"/>
      <point x="504" y="207"/>
      <point x="561" y="139"/>
      <point x="499" y="207" type="curve"/>
      <point x="454" y="144"/>
      <point x="404" y="111"/>
      <point x="333" y="111" type="curve"/>
      <point x="247" y="111"/>
      <point x="195" y="169"/>
      <point x="195" y="268" type="curve"/>
      <point x="195" y="366"/>
      <point x="251" y="422"/>
      <point x="338" y="422" type="curve"/>
      <point x="402" y="422"/>
      <point x="466" y="388"/>
      <point x="505" y="339" type="curve"/>
      <point x="569" y="415"/>
      <point x="501" y="346"/>
    </contour>
    <contour>
      <point x="626" y="0" type="curve"/>
      <point x="626" y="267"/>
      <point x="626" y="533"/>
      <point x="626" y="800" type="curve"/>
      <point x="467" y="800"/>
      <point x="626" y="800"/>
      <point x="467" y="800" type="curve"/>
      <point x="467" y="533"/>
      <point x="467" y="267"/>
      <point x="467" y="0" type="curve"/>
      <point x="626" y="0"/>
      <point x="467" y="0"/>
    </contour>
    <contour>
      <point x="716" y="553" type="line"/>
      <point x="826" y="553"/>
      <point x="902" y="625"/>
      <point x="902" y="734" type="curve"/>
      <point x="902" y="819"/>
      <point x="863" y="875"/>
      <point x="805" y="875" type="curve"/>
      <point x="756" y="875"/>
      <point x="721" y="849"/>
      <point x="721" y="801" type="curve"/>
      <point x="721" y="755"/>
      <point x="754" y="727"/>
      <point x="802" y="727" type="curve"/>
      <point x="801" y="689"/>
      <point x="790" y="643"/>
      <point x="716" y="633" type="curve"/>
    </contour>
  </outline>
</glyph>
<glyph name="Edotaccent" format="1">
  <advance width="710"/>
  <unicode hex="0116"/>
  <outline>
    <contour>
      <point x="668" y="57" type="curve"/>
      <point x="668" y="177"/>
      <point x="668" y="57"/>
      <point x="668" y="177" type="curve"/>
      <point x="551" y="177"/>
      <point x="668" y="177"/>
      <point x="551" y="177" type="curve"/>
      <point x="551" y="57"/>
      <point x="551" y="177"/>
      <point x="551" y="57" type="curve"/>
      <point x="668" y="57"/>
      <point x="551" y="57"/>
    </contour>
    <contour>
      <point x="515" y="665" type="curve"/>
      <point x="515" y="545"/>
      <point x="515" y="665"/>
      <point x="515" y="545" type="curve"/>
      <point x="633" y="545"/>
      <point x="515" y="545"/>
      <point x="633" y="545" type="curve"/>
      <point x="633" y="665"/>
      <point x="633" y="545"/>
      <point x="633" y="665" type="curve"/>
      <point x="515" y="665"/>
      <point x="633" y="665"/>
    </contour>
    <contour>
      <point x="223" y="114" type="curve"/>
      <point x="71" y="114"/>
      <point x="223" y="114"/>
      <point x="71" y="114" type="curve"/>
      <point x="71" y="0"/>
      <point x="71" y="114"/>
      <point x="71" y="0" type="curve"/>
      <point x="122" y="0"/>
      <point x="172" y="0"/>
      <point x="223" y="0" type="curve"/>
      <point x="223" y="114"/>
      <point x="223" y="0"/>
    </contour>
    <contour>
      <point x="223" y="722" type="curve"/>
      <point x="172" y="722"/>
      <point x="122" y="722"/>
      <point x="71" y="722" type="curve"/>
      <point x="71" y="608"/>
      <point x="71" y="722"/>
      <point x="71" y="608" type="curve"/>
      <point x="223" y="608"/>
      <point x="71" y="608"/>
      <point x="223" y="608" type="curve"/>
      <point x="223" y="722"/>
      <point x="223" y="608"/>
    </contour>
    <contour>
      <point x="226" y="315" type="curve"/>
      <point x="340" y="315"/>
      <point x="454" y="315"/>
      <point x="568" y="315" type="curve"/>
      <point x="568" y="430"/>
      <point x="568" y="315"/>
      <point x="568" y="430" type="curve"/>
      <point x="454" y="430"/>
      <point x="340" y="430"/>
      <point x="226" y="430" type="curve"/>
      <point x="226" y="315"/>
      <point x="226" y="430"/>
    </contour>
    <contour>
      <point x="210" y="608" type="curve"/>
      <point x="351" y="608"/>
      <point x="492" y="608"/>
      <point x="633" y="608" type="curve"/>
      <point x="633" y="722"/>
      <point x="633" y="608"/>
      <point x="633" y="722" type="curve"/>
      <point x="492" y="722"/>
      <point x="351" y="722"/>
      <point x="210" y="722" type="curve"/>
      <point x="210" y="608"/>
      <point x="210" y="722"/>
    </contour>
    <contour>
      <point x="298" y="0" type="curve"/>
      <point x="298" y="722" type="line"/>
      <point x="145" y="722"/>
      <point x="298" y="722"/>
      <point x="145" y="722" type="curve"/>
      <point x="145" y="481"/>
      <point x="145" y="241"/>
      <point x="145" y="0" type="curve"/>
      <point x="298" y="0"/>
      <point x="145" y="0"/>
    </contour>
    <contour>
      <point x="210" y="0" type="curve"/>
      <point x="363" y="0"/>
      <point x="515" y="0"/>
      <point x="668" y="0" type="curve"/>
      <point x="668" y="114"/>
      <point x="668" y="0"/>
      <point x="668" y="114" type="curve"/>
      <point x="515" y="114"/>
      <point x="363" y="114"/>
      <point x="210" y="114" type="curve"/>
      <point x="210" y="0"/>
      <point x="210" y="114"/>
    </contour>
    <contour>
      <point x="452" y="852" type="curve"/>
      <point x="452" y="902"/>
      <point x="415" y="926"/>
      <point x="366" y="926" type="curve"/>
      <point x="316" y="926"/>
      <point x="282" y="899"/>
      <point x="282" y="852" type="curve"/>
      <point x="452" y="852"/>
      <point x="282" y="852"/>
      <point x="452" y="852" type="curve"/>
      <point x="452" y="800"/>
      <point x="415" y="778"/>
      <point x="365" y="778" type="curve"/>
      <point x="315" y="778"/>
      <point x="282" y="803"/>
      <point x="282" y="852" type="curve"/>
      <point x="452" y="852"/>
      <point x="282" y="852"/>
    </contour>
  </outline>
</glyph>
<glyph name="gcommaaccent" format="1">
  <advance width="633"/>
  <unicode hex="0123"/>
  <outline>
    <contour>
      <point x="440" y="432" type="curve"/>
      <point x="611" y="499" type="line"/>
      <point x="553" y="610" type="line"/>
      <point x="362" y="516" type="line"/>
      <point x="439" y="431"/>
      <point x="362" y="517"/>
    </contour>
    <contour>
      <point x="218" y="336" type="curve"/>
      <point x="218" y="394"/>
      <point x="263" y="424"/>
      <point x="325" y="424" type="curve"/>
      <point x="387" y="424"/>
      <point x="427" y="392"/>
      <point x="427" y="334" type="curve"/>
      <point x="427" y="280"/>
      <point x="386" y="253"/>
      <point x="327" y="253" type="curve"/>
      <point x="266" y="253"/>
      <point x="218" y="278"/>
      <point x="218" y="336" type="curve"/>
      <point x="66" y="330"/>
      <point x="218" y="336"/>
      <point x="66" y="330" type="curve"/>
      <point x="66" y="202"/>
      <point x="177" y="139"/>
      <point x="316" y="139" type="curve"/>
      <point x="463" y="139"/>
      <point x="580" y="204"/>
      <point x="580" y="339" type="curve"/>
      <point x="580" y="471"/>
      <point x="468" y="538"/>
      <point x="325" y="538" type="curve"/>
      <point x="178" y="538"/>
      <point x="66" y="467"/>
      <point x="66" y="330" type="curve"/>
      <point x="218" y="336"/>
      <point x="66" y="330"/>
    </contour>
    <contour>
      <point x="185" y="248" type="curve"/>
      <point x="121" y="218"/>
      <point x="70" y="182"/>
      <point x="70" y="113" type="curve"/>
      <point x="70" y="2"/>
      <point x="182" y="-25"/>
      <point x="306" y="-34" type="curve"/>
      <point x="394" y="-40"/>
      <point x="487" y="-43"/>
      <point x="487" y="-117" type="curve"/>
      <point x="487" y="-178"/>
      <point x="409" y="-191"/>
      <point x="328" y="-191" type="curve"/>
      <point x="251" y="-191"/>
      <point x="183" y="-171"/>
      <point x="183" y="-101" type="curve"/>
      <point x="183" y="-46"/>
      <point x="212" y="-12"/>
      <point x="256" y="4" type="curve"/>
      <point x="180" y="72"/>
      <point x="256" y="4"/>
      <point x="180" y="72" type="curve"/>
      <point x="95" y="42"/>
      <point x="31" y="-10"/>
      <point x="31" y="-107" type="curve"/>
      <point x="31" y="-253"/>
      <point x="164" y="-304"/>
      <point x="321" y="-304" type="curve"/>
      <point x="485" y="-304"/>
      <point x="628" y="-259"/>
      <point x="625" y="-106" type="curve"/>
      <point x="625" y="40"/>
      <point x="485" y="64"/>
      <point x="333" y="74" type="curve"/>
      <point x="278" y="78"/>
      <point x="222" y="84"/>
      <point x="222" y="124" type="curve"/>
      <point x="222" y="150"/>
      <point x="236" y="164"/>
      <point x="259" y="177" type="curve"/>
      <point x="185" y="248"/>
      <point x="259" y="177"/>
    </contour>
    <contour>
      <point x="412" y="926" type="line"/>
      <point x="301" y="926"/>
      <point x="225" y="854"/>
      <point x="225" y="745" type="curve"/>
      <point x="225" y="660"/>
      <point x="264" y="604"/>
      <point x="323" y="604" type="curve"/>
      <point x="372" y="604"/>
      <point x="407" y="630"/>
      <point x="407" y="678" type="curve"/>
      <point x="407" y="724"/>
      <point x="374" y="752"/>
      <point x="325" y="752" type="curve"/>
      <point x="326" y="790"/>
      <point x="338" y="836"/>
      <point x="412" y="846" type="curve"/>
    </contour>
  </outline>
</glyph>
<glyph name="Iogonek" format="1">
  <advance width="394"/>
  <unicode hex="012E"/>
  <outline>
    <contour>
      <point x="196" y="722" type="curve"/>
      <point x="140" y="722"/>
      <point x="100" y="722"/>
      <point x="44" y="722" type="curve"/>
      <point x="44" y="608"/>
      <point x="44" y="722"/>
      <point x="44" y="608" type="curve"/>
      <point x="212" y="608"/>
      <point x="28" y="608"/>
      <point x="196" y="608" type="curve"/>
      <point x="196" y="722"/>
      <point x="196" y="608"/>
    </contour>
    <contour>
      <point x="196" y="608" type="curve"/>
      <point x="363" y="608"/>
      <point x="180" y="608"/>
      <point x="347" y="608" type="curve"/>
      <point x="347" y="722"/>
      <point x="347" y="608"/>
      <point x="347" y="722" type="curve"/>
      <point x="291" y="722"/>
      <point x="251" y="722"/>
      <point x="196" y="722" type="curve"/>
      <point x="196" y="608"/>
      <point x="196" y="722"/>
    </contour>
    <contour>
      <point x="196" y="0" type="curve"/>
      <point x="251" y="0"/>
      <point x="291" y="0"/>
      <point x="347" y="0" type="curve"/>
      <point x="347" y="114"/>
      <point x="347" y="0"/>
      <point x="347" y="114" type="curve"/>
      <point x="180" y="114"/>
      <point x="363" y="114"/>
      <point x="196" y="114" type="curve"/>
      <point x="196" y="0"/>
      <point x="196" y="114"/>
    </contour>
    <contour>
      <point x="196" y="114" type="curve"/>
      <point x="28" y="114"/>
      <point x="212" y="114"/>
      <point x="44" y="114" type="curve"/>
      <point x="44" y="0"/>
      <point x="44" y="114"/>
      <point x="44" y="0" type="curve"/>
      <point x="100" y="0"/>
      <point x="140" y="0"/>
      <point x="196" y="0" type="curve"/>
      <point x="196" y="114"/>
      <point x="196" y="0"/>
    </contour>
    <contour>
      <point x="271" y="0" type="curve"/>
      <point x="271" y="241"/>
      <point x="271" y="481"/>
      <point x="271" y="722" type="curve"/>
      <point x="118" y="722"/>
      <point x="271" y="722"/>
      <point x="118" y="722" type="curve"/>
      <point x="118" y="481"/>
      <point x="118" y="241"/>
      <point x="118" y="0" type="curve"/>
      <point x="271" y="0"/>
      <point x="118" y="0"/>
    </contour>
    <contour>
      <point x="237" y="80" type="curve"/>
      <point x="159" y="49"/>
      <point x="87" y="28"/>
      <point x="87" y="-53" type="curve"/>
      <point x="87" y="-135"/>
      <point x="147" y="-182"/>
      <point x="234" y="-182" type="curve"/>
      <point x="279" y="-182"/>
      <point x="310" y="-170"/>
      <point x="349" y="-149" type="curve"/>
      <point x="280" y="-58"/>
      <point x="349" y="-149"/>
      <point x="280" y="-58" type="curve"/>
      <point x="268" y="-64"/>
      <point x="258" y="-71"/>
      <point x="245" y="-71" type="curve"/>
      <point x="231" y="-71"/>
      <point x="221" y="-64"/>
      <point x="221" y="-50" type="curve"/>
      <point x="221" y="-20"/>
      <point x="260" y="-15"/>
      <point x="292" y="1" type="curve"/>
      <point x="237" y="80"/>
      <point x="292" y="1"/>
    </contour>
  </outline>
</glyph>
<glyph name="iogonek" format="1">
  <advance width="357"/>
  <unicode hex="012F"/>
  <outline>
    <contour>
      <point x="181" y="114" type="curve"/>
      <point x="14" y="114"/>
      <point x="197" y="114"/>
      <point x="30" y="114" type="curve"/>
      <point x="29" y="0"/>
      <point x="30" y="114"/>
      <point x="29" y="0" type="curve"/>
      <point x="85" y="0"/>
      <point x="125" y="0"/>
      <point x="181" y="0" type="curve"/>
      <point x="181" y="114"/>
      <point x="181" y="0"/>
    </contour>
    <contour>
      <point x="181" y="0" type="curve"/>
      <point x="234" y="0"/>
      <point x="275" y="0"/>
      <point x="327" y="0" type="curve"/>
      <point x="327" y="114"/>
      <point x="327" y="0"/>
      <point x="327" y="114" type="curve"/>
      <point x="170" y="114"/>
      <point x="338" y="114"/>
      <point x="181" y="114" type="curve"/>
      <point x="181" y="0"/>
      <point x="181" y="114"/>
    </contour>
    <contour>
      <point x="181" y="533" type="curve"/>
      <point x="125" y="533"/>
      <point x="85" y="533"/>
      <point x="30" y="533" type="curve"/>
      <point x="29" y="419"/>
      <point x="30" y="533"/>
      <point x="29" y="419" type="curve"/>
      <point x="197" y="419"/>
      <point x="13" y="419"/>
      <point x="181" y="419" type="curve"/>
      <point x="181" y="533"/>
      <point x="181" y="419"/>
    </contour>
    <contour>
      <point x="261" y="0" type="curve"/>
      <point x="261" y="178"/>
      <point x="261" y="355"/>
      <point x="261" y="533" type="curve"/>
      <point x="102" y="533"/>
      <point x="261" y="533"/>
      <point x="102" y="533" type="curve"/>
      <point x="102" y="355"/>
      <point x="102" y="178"/>
      <point x="102" y="0" type="curve"/>
      <point x="261" y="0"/>
      <point x="102" y="0"/>
    </contour>
    <contour>
      <point x="264" y="682" type="curve"/>
      <point x="264" y="732"/>
      <point x="227" y="756"/>
      <point x="178" y="756" type="curve"/>
      <point x="128" y="756"/>
      <point x="94" y="730"/>
      <point x="94" y="682" type="curve"/>
      <point x="264" y="682"/>
      <point x="94" y="682"/>
      <point x="264" y="682" type="curve"/>
      <point x="264" y="631"/>
      <point x="227" y="609"/>
      <point x="177" y="609" type="curve"/>
      <point x="127" y="609"/>
      <point x="94" y="634"/>
      <point x="94" y="682" type="curve"/>
      <point x="264" y="682"/>
      <point x="94" y="682"/>
    </contour>
    <contour>
      <point x="220" y="87" type="curve"/>
      <point x="143" y="56"/>
      <point x="71" y="35"/>
      <point x="71" y="-46" type="curve"/>
      <point x="71" y="-129"/>
      <point x="130" y="-175"/>
      <point x="217" y="-175" type="curve"/>
      <point x="263" y="-175"/>
      <point x="293" y="-163"/>
      <point x="333" y="-142" type="curve"/>
      <point x="263" y="-51"/>
      <point x="333" y="-142"/>
      <point x="263" y="-51" type="curve"/>
      <point x="251" y="-57"/>
      <point x="242" y="-64"/>
      <point x="229" y="-64" type="curve"/>
      <point x="215" y="-64"/>
      <point x="205" y="-57"/>
      <point x="205" y="-44" type="curve"/>
      <point x="205" y="-13"/>
      <point x="244" y="-8"/>
      <point x="276" y="8" type="curve"/>
      <point x="220" y="87"/>
      <point x="276" y="8"/>
    </contour>
  </outline>
</glyph>
<glyph name="Kcommaaccent" format="1">
  <advance width="792"/>
  <unicode hex="0136"/>
  <outline>
    <contour>
      <point x="623" y="722" type="curve"/>
      <point x="566" y="722"/>
      <point x="452" y="722"/>
      <point x="395" y="722" type="curve"/>
      <point x="395" y="608"/>
      <point x="395" y="722"/>
      <point x="395" y="608" type="curve"/>
      <point x="566" y="608"/>
      <point x="451" y="608"/>
      <point x="623" y="608" type="curve"/>
      <point x="623" y="722"/>
      <point x="623" y="608"/>
    </contour>
    <contour>
      <point x="626" y="0" type="curve"/>
      <point x="691" y="0"/>
      <point x="697" y="0"/>
      <point x="762" y="0" type="curve"/>
      <point x="762" y="114"/>
      <point x="762" y="0"/>
      <point x="762" y="114" type="curve"/>
      <point x="567" y="114"/>
      <point x="821" y="114"/>
      <point x="626" y="114" type="curve"/>
      <point x="626" y="0"/>
      <point x="626" y="114"/>
    </contour>
    <contour>
      <point x="609" y="608" type="curve"/>
      <point x="771" y="608"/>
      <point x="562" y="608"/>
      <point x="724" y="608" type="curve"/>
      <point x="724" y="722"/>
      <point x="724" y="608"/>
      <point x="724" y="722" type="curve"/>
      <point x="670" y="722"/>
      <point x="663" y="722"/>
      <point x="609" y="722" type="curve"/>
      <point x="609" y="608"/>
      <point x="609" y="722"/>
    </contour>
    <contour>
      <point x="192" y="722" type="curve"/>
      <point x="137" y="722"/>
      <point x="98" y="722"/>
      <point x="43" y="722" type="curve"/>
      <point x="43" y="608"/>
      <point x="43" y="722"/>
      <point x="43" y="608" type="curve"/>
      <point x="208" y="608"/>
      <point x="27" y="608"/>
      <point x="192" y="608" type="curve"/>
      <point x="192" y="722"/>
      <point x="192" y="608"/>
    </contour>
    <contour>
      <point x="192" y="608" type="curve"/>
      <point x="347" y="608"/>
      <point x="166" y="608"/>
      <point x="321" y="608" type="curve"/>
      <point x="321" y="722"/>
      <point x="321" y="608"/>
      <point x="321" y="722" type="curve"/>
      <point x="269" y="722"/>
      <point x="244" y="722"/>
      <point x="192" y="722" type="curve"/>
      <point x="192" y="608"/>
      <point x="192" y="722"/>
    </contour>
    <contour>
      <point x="192" y="0" type="curve"/>
      <point x="250" y="0"/>
      <point x="159" y="0"/>
      <point x="333" y="0" type="curve"/>
      <point x="333" y="114"/>
      <point x="333" y="0"/>
      <point x="333" y="114" type="curve"/>
      <point x="159" y="114"/>
      <point x="366" y="114"/>
      <point x="192" y="114" type="curve"/>
      <point x="192" y="0"/>
      <point x="192" y="114"/>
    </contour>
    <contour>
      <point x="192" y="114" type="curve"/>
      <point x="27" y="114"/>
      <point x="208" y="114"/>
      <point x="43" y="114" type="curve"/>
      <point x="43" y="0"/>
      <point x="43" y="114"/>
      <point x="43" y="0" type="curve"/>
      <point x="98" y="0"/>
      <point x="137" y="0"/>
      <point x="192" y="0" type="curve"/>
      <point x="192" y="114"/>
      <point x="192" y="0"/>
    </contour>
    <contour>
      <point x="571" y="722" type="curve"/>
      <point x="232" y="380" type="line"/>
      <point x="413" y="380"/>
      <point x="229" y="380"/>
      <point x="410" y="380" type="curve"/>
      <point x="696" y="666" type="line"/>
      <point x="522" y="666"/>
      <point x="744" y="722"/>
    </contour>
    <contour>
      <point x="268" y="0" type="curve"/>
      <point x="268" y="722" type="line"/>
      <point x="116" y="722"/>
      <point x="268" y="722"/>
      <point x="116" y="722" type="curve"/>
      <point x="116" y="481"/>
      <point x="116" y="241"/>
      <point x="116" y="0" type="curve"/>
      <point x="268" y="0"/>
      <point x="116" y="0"/>
    </contour>
    <contour>
      <point x="731" y="53" type="curve"/>
      <point x="410" y="380" type="line"/>
      <point x="229" y="380"/>
      <point x="413" y="380"/>
      <point x="232" y="380" type="curve"/>
      <point x="593" y="0" type="line"/>
      <point x="778" y="0"/>
      <point x="546" y="53"/>
    </contour>
    <contour>
      <point x="322" y="-401" type="line"/>
      <point x="433" y="-401"/>
      <point x="509" y="-328"/>
      <point x="509" y="-220" type="curve"/>
      <point x="509" y="-135"/>
      <point x="470" y="-79"/>
      <point x="411" y="-79" type="curve"/>
      <point x="362" y="-79"/>
      <point x="327" y="-104"/>
      <point x="327" y="-153" type="curve"/>
      <point x="327" y="-198"/>
      <point x="360" y="-226"/>
      <point x="409" y="-226" type="curve"/>
      <point x="408" y="-264"/>
      <point x="396" y="-310"/>
      <point x="322" y="-321" type="curve"/>
    </contour>
  </outline>
</glyph>
<glyph name="Ncommaaccent" format="1">
  <advance width="937"/>
  <unicode hex="0145"/>
  <outline>
    <contour>
      <point x="194" y="722" type="curve"/>
      <point x="139" y="722"/>
      <point x="99" y="722"/>
      <point x="44" y="722" type="curve"/>
      <point x="44" y="608"/>
      <point x="44" y="722"/>
      <point x="44" y="608" type="curve"/>
      <point x="210" y="608"/>
      <point x="28" y="608"/>
      <point x="194" y="608" type="curve"/>
      <point x="194" y="722"/>
      <point x="194" y="608"/>
    </contour>
    <contour>
      <point x="751" y="608" type="curve"/>
      <point x="916" y="608"/>
      <point x="735" y="608"/>
      <point x="900" y="608" type="curve"/>
      <point x="900" y="722"/>
      <point x="900" y="608"/>
      <point x="900" y="722" type="curve"/>
      <point x="844" y="722"/>
      <point x="805" y="722"/>
      <point x="751" y="722" type="curve"/>
      <point x="751" y="608"/>
      <point x="751" y="722"/>
    </contour>
    <contour>
      <point x="761" y="722" type="curve"/>
      <point x="707" y="722"/>
      <point x="668" y="722"/>
      <point x="614" y="722" type="curve"/>
      <point x="614" y="608"/>
      <point x="614" y="722"/>
      <point x="614" y="608" type="curve"/>
      <point x="777" y="608"/>
      <point x="598" y="608"/>
      <point x="761" y="608" type="curve"/>
      <point x="761" y="722"/>
      <point x="761" y="608"/>
    </contour>
    <contour>
      <point x="193" y="114" type="curve"/>
      <point x="27" y="114"/>
      <point x="209" y="114"/>
      <point x="43" y="114" type="curve"/>
      <point x="43" y="0"/>
      <point x="43" y="114"/>
      <point x="43" y="0" type="curve"/>
      <point x="98" y="0"/>
      <point x="137" y="0"/>
      <point x="193" y="0" type="curve"/>
      <point x="193" y="114"/>
      <point x="193" y="0"/>
    </contour>
    <contour>
      <point x="193" y="0" type="curve"/>
      <point x="246" y="0"/>
      <point x="177" y="0"/>
      <point x="339" y="0" type="curve"/>
      <point x="339" y="114"/>
      <point x="339" y="0"/>
      <point x="339" y="114" type="curve"/>
      <point x="177" y="114"/>
      <point x="355" y="114"/>
      <point x="193" y="114" type="curve"/>
      <point x="193" y="0"/>
      <point x="193" y="114"/>
    </contour>
    <contour>
      <point x="834" y="0" type="curve"/>
      <point x="649" y="240"/>
      <point x="467" y="482"/>
      <point x="282" y="722" type="curve"/>
      <point x="108" y="722"/>
      <point x="282" y="722"/>
      <point x="108" y="722" type="curve"/>
      <point x="292" y="482"/>
      <point x="475" y="240"/>
      <point x="660" y="0" type="curve"/>
      <point x="834" y="0"/>
      <point x="660" y="0"/>
    </contour>
    <contour>
      <point x="684" y="722" type="curve"/>
      <point x="684" y="481"/>
      <point x="684" y="241"/>
      <point x="684" y="0" type="curve"/>
      <point x="836" y="0"/>
      <point x="684" y="0"/>
      <point x="836" y="0" type="curve"/>
      <point x="836" y="241"/>
      <point x="836" y="481"/>
      <point x="836" y="722" type="curve"/>
      <point x="684" y="722"/>
      <point x="836" y="722"/>
    </contour>
    <contour>
      <point x="268" y="0" type="curve"/>
      <point x="268" y="241"/>
      <point x="268" y="481"/>
      <point x="268" y="722" type="curve"/>
      <point x="116" y="722"/>
      <point x="268" y="722"/>
      <point x="116" y="722" type="curve"/>
      <point x="116" y="481"/>
      <point x="116" y="241"/>
      <point x="116" y="0" type="curve"/>
      <point x="268" y="0"/>
      <point x="116" y="0"/>
    </contour>
    <contour>
      <point x="380" y="-403" type="line"/>
      <point x="491" y="-403"/>
      <point x="567" y="-330"/>
      <point x="567" y="-221" type="curve"/>
      <point x="567" y="-137"/>
      <point x="528" y="-81"/>
      <point x="469" y="-81" type="curve"/>
      <point x="420" y="-81"/>
      <point x="385" y="-106"/>
      <point x="385" y="-155" type="curve"/>
      <point x="385" y="-200"/>
      <point x="418" y="-228"/>
      <point x="467" y="-228" type="curve"/>
      <point x="466" y="-266"/>
      <point x="454" y="-312"/>
      <point x="380" y="-322" type="curve"/>
    </contour>
  </outline>
</glyph>
<glyph name="ncommaaccent" format="1">
  <advance width="723"/>
  <unicode hex="0146"/>
  <outline>
    <contour>
      <point x="223" y="253" type="curve"/>
      <point x="249" y="347"/>
      <point x="299" y="419"/>
      <point x="383" y="419" type="curve"/>
      <point x="453" y="419"/>
      <point x="491" y="377"/>
      <point x="491" y="306" type="curve"/>
      <point x="491" y="199"/>
      <point x="491" y="107"/>
      <point x="491" y="0" type="curve"/>
      <point x="589" y="0"/>
      <point x="545" y="0"/>
      <point x="643" y="0" type="curve"/>
      <point x="643" y="111"/>
      <point x="643" y="207"/>
      <point x="643" y="318" type="curve"/>
      <point x="643" y="459"/>
      <point x="571" y="538"/>
      <point x="427" y="538" type="curve"/>
      <point x="296" y="538"/>
      <point x="205" y="454"/>
      <point x="160" y="310" type="curve"/>
      <point x="195" y="270"/>
      <point x="188" y="294"/>
    </contour>
    <contour>
      <point x="566" y="0" type="curve"/>
      <point x="621" y="0"/>
      <point x="661" y="0"/>
      <point x="717" y="0" type="curve"/>
      <point x="717" y="114"/>
      <point x="717" y="0"/>
      <point x="717" y="114" type="curve"/>
      <point x="550" y="114"/>
      <point x="733" y="114"/>
      <point x="566" y="114" type="curve"/>
      <point x="566" y="0"/>
      <point x="566" y="114"/>
    </contour>
    <contour>
      <point x="179" y="114" type="curve"/>
      <point x="12" y="114"/>
      <point x="195" y="114"/>
      <point x="28" y="114" type="curve"/>
      <point x="28" y="0"/>
      <point x="28" y="114"/>
      <point x="28" y="0" type="curve"/>
      <point x="84" y="0"/>
      <point x="124" y="0"/>
      <point x="179" y="0" type="curve"/>
      <point x="179" y="114"/>
      <point x="179" y="0"/>
    </contour>
    <contour>
      <point x="179" y="0" type="curve"/>
      <point x="232" y="0"/>
      <point x="164" y="0"/>
      <point x="320" y="0" type="curve"/>
      <point x="320" y="114"/>
      <point x="320" y="0"/>
      <point x="320" y="114" type="curve"/>
      <point x="164" y="114"/>
      <point x="336" y="114"/>
      <point x="179" y="114" type="curve"/>
      <point x="179" y="0"/>
      <point x="179" y="114"/>
    </contour>
    <contour>
      <point x="256" y="0" type="curve"/>
      <point x="256" y="178"/>
      <point x="256" y="355"/>
      <point x="256" y="533" type="curve"/>
      <point x="103" y="533"/>
      <point x="256" y="533"/>
      <point x="103" y="533" type="curve"/>
      <point x="103" y="355"/>
      <point x="103" y="178"/>
      <point x="103" y="0" type="curve"/>
      <point x="256" y="0"/>
      <point x="103" y="0"/>
    </contour>
    <contour>
      <point x="179" y="533" type="curve"/>
      <point x="124" y="533"/>
      <point x="84" y="533"/>
      <point x="28" y="533" type="curve"/>
      <point x="28" y="419"/>
      <point x="28" y="533"/>
      <point x="28" y="419" type="curve"/>
      <point x="195" y="419"/>
      <point x="12" y="419"/>
      <point x="179" y="419" type="curve"/>
      <point x="179" y="533"/>
      <point x="179" y="419"/>
    </contour>
    <contour>
      <point x="282" y="-379" type="line"/>
      <point x="393" y="-379"/>
      <point x="469" y="-306"/>
      <point x="469" y="-198" type="curve"/>
      <point x="469" y="-113"/>
      <point x="430" y="-57"/>
      <point x="371" y="-57" type="curve"/>
      <point x="322" y="-57"/>
      <point x="287" y="-82"/>
      <point x="287" y="-131" type="curve"/>
      <point x="287" y="-176"/>
      <point x="320" y="-204"/>
      <point x="369" y="-204" type="curve"/>
      <point x="368" y="-242"/>
      <point x="356" y="-288"/>
      <point x="282" y="-299" type="curve"/>
    </contour>
  </outline>
</glyph>
<glyph name="racute" format="1">
  <advance width="484"/>
  <unicode hex="0155"/>
  <outline>
    <contour>
      <point x="206" y="0" type="curve"/>
      <point x="259" y="0"/>
      <point x="298" y="0"/>
      <point x="351" y="0" type="curve"/>
      <point x="351" y="76"/>
      <point x="351" y="38"/>
      <point x="351" y="114" type="curve"/>
      <point x="258" y="114"/>
      <point x="300" y="114"/>
      <point x="206" y="114" type="curve"/>
      <point x="206" y="38"/>
      <point x="206" y="76"/>
    </contour>
    <contour>
      <point x="206" y="114" type="curve"/>
      <point x="108" y="114"/>
      <point x="153" y="114"/>
      <point x="55" y="114" type="curve"/>
      <point x="54" y="38"/>
      <point x="55" y="76"/>
      <point x="54" y="0" type="curve"/>
      <point x="109" y="0"/>
      <point x="151" y="0"/>
      <point x="206" y="0" type="curve"/>
      <point x="206" y="76"/>
      <point x="206" y="38"/>
    </contour>
    <contour>
      <point x="205" y="533" type="curve"/>
      <point x="150" y="533"/>
      <point x="108" y="533"/>
      <point x="54" y="533" type="curve"/>
      <point x="54" y="457"/>
      <point x="53" y="495"/>
      <point x="53" y="419" type="curve"/>
      <point x="151" y="419"/>
      <point x="107" y="419"/>
      <point x="205" y="419" type="curve"/>
      <point x="205" y="495"/>
      <point x="205" y="457"/>
    </contour>
    <contour>
      <point x="282" y="0" type="curve"/>
      <point x="282" y="192"/>
      <point x="282" y="341"/>
      <point x="282" y="533" type="curve"/>
      <point x="182" y="533"/>
      <point x="230" y="533"/>
      <point x="129" y="533" type="curve"/>
      <point x="129" y="341"/>
      <point x="129" y="192"/>
      <point x="129" y="0" type="curve"/>
      <point x="230" y="0"/>
      <point x="182" y="0"/>
    </contour>
    <contour>
      <point x="245" y="269" type="curve"/>
      <point x="296" y="383"/>
      <point x="364" y="409"/>
      <point x="465" y="409" type="curve"/>
      <point x="465" y="492"/>
      <point x="465" y="455"/>
      <point x="465" y="538" type="curve"/>
      <point x="337" y="538"/>
      <point x="258" y="462"/>
      <point x="195" y="340" type="curve"/>
      <point x="229" y="295"/>
      <point x="211" y="314"/>
    </contour>
    <contour>
      <point x="318" y="609" type="line"/>
      <point x="479" y="775" type="line"/>
      <point x="286" y="775" type="line"/>
      <point x="171" y="609" type="line"/>
    </contour>
  </outline>
</glyph>
<glyph name="rcommaaccent" format="1">
  <advance width="484"/>
  <unicode hex="0157"/>
  <outline>
    <contour>
      <point x="206" y="0" type="curve"/>
      <point x="259" y="0"/>
      <point x="298" y="0"/>
      <point x="351" y="0" type="curve"/>
      <point x="351" y="76"/>
      <point x="351" y="38"/>
      <point x="351" y="114" type="curve"/>
      <point x="258" y="114"/>
      <point x="300" y="114"/>
      <point x="206" y="114" type="curve"/>
      <point x="206" y="38"/>
      <point x="206" y="76"/>
    </contour>
    <contour>
      <point x="206" y="114" type="curve"/>
      <point x="108" y="114"/>
      <point x="153" y="114"/>
      <point x="55" y="114" type="curve"/>
      <point x="54" y="38"/>
      <point x="55" y="76"/>
      <point x="54" y="0" type="curve"/>
      <point x="109" y="0"/>
      <point x="151" y="0"/>
      <point x="206" y="0" type="curve"/>
      <point x="206" y="76"/>
      <point x="206" y="38"/>
    </contour>
    <contour>
      <point x="205" y="533" type="curve"/>
      <point x="150" y="533"/>
      <point x="108" y="533"/>
      <point x="54" y="533" type="curve"/>
      <point x="54" y="457"/>
      <point x="53" y="495"/>
      <point x="53" y="419" type="curve"/>
      <point x="151" y="419"/>
      <point x="107" y="419"/>
      <point x="205" y="419" type="curve"/>
      <point x="205" y="495"/>
      <point x="205" y="457"/>
    </contour>
    <contour>
      <point x="282" y="0" type="curve"/>
      <point x="282" y="192"/>
      <point x="282" y="341"/>
      <point x="282" y="533" type="curve"/>
      <point x="182" y="533"/>
      <point x="230" y="533"/>
      <point x="129" y="533" type="curve"/>
      <point x="129" y="341"/>
      <point x="129" y="192"/>
      <point x="129" y="0" type="curve"/>
      <point x="230" y="0"/>
      <point x="182" y="0"/>
    </contour>
    <contour>
      <point x="245" y="269" type="curve"/>
      <point x="296" y="383"/>
      <point x="364" y="409"/>
      <point x="465" y="409" type="curve"/>
      <point x="465" y="492"/>
      <point x="465" y="455"/>
      <point x="465" y="538" type="curve"/>
      <point x="337" y="538"/>
      <point x="258" y="462"/>
      <point x="195" y="340" type="curve"/>
      <point x="229" y="295"/>
      <point x="211" y="314"/>
    </contour>
    <contour>
      <point x="122" y="-385" type="line"/>
      <point x="232" y="-385"/>
      <point x="309" y="-312"/>
      <point x="309" y="-203" type="curve"/>
      <point x="309" y="-119"/>
      <point x="269" y="-63"/>
      <point x="211" y="-63" type="curve"/>
      <point x="162" y="-63"/>
      <point x="127" y="-88"/>
      <point x="127" y="-137" type="curve"/>
      <point x="127" y="-182"/>
      <point x="159" y="-210"/>
      <point x="208" y="-210" type="curve"/>
      <point x="207" y="-248"/>
      <point x="196" y="-294"/>
      <point x="122" y="-305" type="curve"/>
    </contour>
  </outline>
</glyph>
<glyph name="Rcaron" format="1">
  <advance width="802"/>
  <unicode hex="0158"/>
  <outline>
    <contour>
      <point x="652" y="0" type="curve"/>
      <point x="696" y="0"/>
      <point x="742" y="0"/>
      <point x="788" y="0" type="curve"/>
      <point x="788" y="114"/>
      <point x="788" y="0"/>
      <point x="788" y="114" type="curve"/>
      <point x="652" y="114"/>
      <point x="788" y="114"/>
      <point x="652" y="114" type="curve"/>
      <point x="652" y="0"/>
      <point x="652" y="114"/>
    </contour>
    <contour>
      <point x="220" y="722" type="curve"/>
      <point x="170" y="722"/>
      <point x="119" y="722"/>
      <point x="70" y="722" type="curve"/>
      <point x="70" y="608"/>
      <point x="70" y="722"/>
      <point x="70" y="608" type="curve"/>
      <point x="220" y="608"/>
      <point x="70" y="608"/>
      <point x="220" y="608" type="curve"/>
      <point x="220" y="722"/>
      <point x="220" y="608"/>
    </contour>
    <contour>
      <point x="220" y="114" type="curve"/>
      <point x="70" y="114"/>
      <point x="220" y="114"/>
      <point x="70" y="114" type="curve"/>
      <point x="70" y="0"/>
      <point x="70" y="114"/>
      <point x="70" y="0" type="curve"/>
      <point x="119" y="0"/>
      <point x="170" y="0"/>
      <point x="220" y="0" type="curve"/>
      <point x="220" y="114"/>
      <point x="220" y="0"/>
    </contour>
    <contour>
      <point x="220" y="0" type="curve"/>
      <point x="270" y="0"/>
      <point x="220" y="0"/>
      <point x="369" y="0" type="curve"/>
      <point x="369" y="114"/>
      <point x="369" y="0"/>
      <point x="369" y="114" type="curve"/>
      <point x="220" y="114"/>
      <point x="369" y="114"/>
      <point x="220" y="114" type="curve"/>
      <point x="220" y="0"/>
      <point x="220" y="114"/>
    </contour>
    <contour>
      <point x="349" y="354" type="curve"/>
      <point x="438" y="236"/>
      <point x="527" y="118"/>
      <point x="616" y="0" type="curve"/>
      <point x="772" y="0"/>
      <point x="616" y="19"/>
      <point x="772" y="19" type="curve"/>
      <point x="689" y="130"/>
      <point x="607" y="242"/>
      <point x="523" y="354" type="curve"/>
      <point x="349" y="354"/>
      <point x="523" y="354"/>
    </contour>
    <contour>
      <point x="297" y="0" type="curve"/>
      <point x="297" y="241"/>
      <point x="297" y="481"/>
      <point x="297" y="722" type="curve"/>
      <point x="145" y="722"/>
      <point x="297" y="722"/>
      <point x="145" y="722" type="curve"/>
      <point x="145" y="481"/>
      <point x="145" y="241"/>
      <point x="145" y="0" type="curve"/>
      <point x="297" y="0"/>
      <point x="145" y="0"/>
    </contour>
    <contour>
      <point x="223" y="295" type="curve"/>
      <point x="283" y="295"/>
      <point x="342" y="295"/>
      <point x="402" y="295" type="curve"/>
      <point x="571" y="295"/>
      <point x="692" y="358"/>
      <point x="692" y="518" type="curve"/>
      <point x="692" y="665"/>
      <point x="579" y="722"/>
      <point x="420" y="722" type="curve"/>
      <point x="355" y="722"/>
      <point x="289" y="722"/>
      <point x="223" y="722" type="curve"/>
      <point x="223" y="608"/>
      <point x="223" y="722"/>
      <point x="223" y="608" type="curve"/>
      <point x="280" y="608"/>
      <point x="336" y="608"/>
      <point x="393" y="608" type="curve"/>
      <point x="478" y="608"/>
      <point x="540" y="584"/>
      <point x="540" y="507" type="curve"/>
      <point x="540" y="436"/>
      <point x="488" y="410"/>
      <point x="410" y="410" type="curve"/>
      <point x="348" y="410"/>
      <point x="285" y="410"/>
      <point x="223" y="410" type="curve"/>
      <point x="223" y="295"/>
      <point x="223" y="410"/>
    </contour>
    <contour>
      <point x="472" y="946" type="line"/>
      <point x="311" y="780" type="line"/>
      <point x="504" y="780" type="line"/>
      <point x="619" y="946" type="line"/>
    </contour>
    <contour>
      <point x="128" y="946" type="line"/>
      <point x="245" y="780" type="line"/>
      <point x="439" y="780" type="line"/>
      <point x="277" y="946" type="line"/>
    </contour>
  </outline>
</glyph>
<glyph name="rcaron" format="1">
  <advance width="496"/>
  <unicode hex="0159"/>
  <outline>
    <contour>
      <point x="206" y="0" type="curve"/>
      <point x="258" y="0"/>
      <point x="298" y="0"/>
      <point x="350" y="0" type="curve"/>
      <point x="350" y="76"/>
      <point x="350" y="38"/>
      <point x="350" y="114" type="curve"/>
      <point x="257" y="114"/>
      <point x="299" y="114"/>
      <point x="206" y="114" type="curve"/>
      <point x="206" y="38"/>
      <point x="206" y="76"/>
    </contour>
    <contour>
      <point x="206" y="114" type="curve"/>
      <point x="108" y="114"/>
      <point x="152" y="114"/>
      <point x="54" y="114" type="curve"/>
      <point x="54" y="38"/>
      <point x="54" y="76"/>
      <point x="54" y="0" type="curve"/>
      <point x="109" y="0"/>
      <point x="151" y="0"/>
      <point x="206" y="0" type="curve"/>
      <point x="206" y="76"/>
      <point x="206" y="38"/>
    </contour>
    <contour>
      <point x="204" y="533" type="curve"/>
      <point x="150" y="533"/>
      <point x="107" y="533"/>
      <point x="53" y="533" type="curve"/>
      <point x="53" y="457"/>
      <point x="53" y="495"/>
      <point x="53" y="419" type="curve"/>
      <point x="151" y="419"/>
      <point x="106" y="419"/>
      <point x="204" y="419" type="curve"/>
      <point x="204" y="495"/>
      <point x="204" y="457"/>
    </contour>
    <contour>
      <point x="282" y="0" type="curve"/>
      <point x="282" y="192"/>
      <point x="282" y="341"/>
      <point x="282" y="533" type="curve"/>
      <point x="181" y="533"/>
      <point x="229" y="533"/>
      <point x="129" y="533" type="curve"/>
      <point x="129" y="341"/>
      <point x="129" y="192"/>
      <point x="129" y="0" type="curve"/>
      <point x="229" y="0"/>
      <point x="181" y="0"/>
    </contour>
    <contour>
      <point x="245" y="269" type="curve"/>
      <point x="295" y="383"/>
      <point x="364" y="409"/>
      <point x="465" y="409" type="curve"/>
      <point x="465" y="492"/>
      <point x="465" y="455"/>
      <point x="465" y="538" type="curve"/>
      <point x="337" y="538"/>
      <point x="258" y="462"/>
      <point x="194" y="340" type="curve"/>
      <point x="228" y="295"/>
      <point x="211" y="314"/>
    </contour>
    <contour>
      <point x="355" y="776" type="line"/>
      <point x="194" y="610" type="line"/>
      <point x="387" y="610" type="line"/>
      <point x="503" y="776" type="line"/>
    </contour>
    <contour>
      <point x="11" y="776" type="line"/>
      <point x="129" y="610" type="line"/>
      <point x="322" y="610" type="line"/>
      <point x="161" y="776" type="line"/>
    </contour>
  </outline>
</glyph>
<glyph name="Scedilla" format="1">
  <advance width="685"/>
  <unicode hex="015E"/>
  <outline>
    <contour>
      <point x="465" y="661" type="curve"/>
      <point x="465" y="541"/>
      <point x="465" y="633"/>
      <point x="465" y="513" type="curve"/>
      <point x="583" y="513"/>
      <point x="465" y="513"/>
      <point x="583" y="513" type="curve"/>
      <point x="583" y="633"/>
      <point x="583" y="541"/>
      <point x="583" y="661" type="curve"/>
      <point x="465" y="661"/>
      <point x="583" y="661"/>
    </contour>
    <contour>
      <point x="191" y="52" type="curve"/>
      <point x="191" y="172"/>
      <point x="191" y="92"/>
      <point x="191" y="212" type="curve"/>
      <point x="74" y="212"/>
      <point x="191" y="212"/>
      <point x="74" y="212" type="curve"/>
      <point x="74" y="92"/>
      <point x="74" y="172"/>
      <point x="74" y="52" type="curve"/>
      <point x="191" y="52"/>
      <point x="74" y="52"/>
    </contour>
    <contour>
      <point x="75" y="52" type="curve"/>
      <point x="159" y="9"/>
      <point x="230" y="-5"/>
      <point x="326" y="-5" type="curve"/>
      <point x="493" y="-5"/>
      <point x="635" y="46"/>
      <point x="635" y="195" type="curve"/>
      <point x="635" y="323"/>
      <point x="527" y="370"/>
      <point x="404" y="420" type="curve" smooth="yes"/>
      <point x="318" y="454"/>
      <point x="224" y="488"/>
      <point x="224" y="541" type="curve"/>
      <point x="223" y="592"/>
      <point x="276" y="614"/>
      <point x="340" y="614" type="curve"/>
      <point x="406" y="614"/>
      <point x="457" y="592"/>
      <point x="513" y="567" type="curve"/>
      <point x="584" y="660"/>
      <point x="512" y="568"/>
      <point x="583" y="661" type="curve"/>
      <point x="503" y="701"/>
      <point x="436" y="722"/>
      <point x="345" y="722" type="curve"/>
      <point x="193" y="722"/>
      <point x="72" y="666"/>
      <point x="72" y="533" type="curve"/>
      <point x="72" y="408"/>
      <point x="180" y="363"/>
      <point x="301" y="314" type="curve" smooth="yes"/>
      <point x="388" y="279"/>
      <point x="482" y="247"/>
      <point x="482" y="192" type="curve"/>
      <point x="482" y="143"/>
      <point x="412" y="114"/>
      <point x="332" y="114" type="curve"/>
      <point x="265" y="114"/>
      <point x="217" y="133"/>
      <point x="157" y="162" type="curve"/>
      <point x="74" y="54"/>
      <point x="158" y="161"/>
    </contour>
    <contour>
      <point x="293" y="86" type="curve"/>
      <point x="279" y="65"/>
      <point x="216" y="-37"/>
      <point x="202" y="-58" type="curve"/>
      <point x="306" y="-149"/>
      <point x="202" y="-58"/>
      <point x="306" y="-149" type="curve"/>
      <point x="324" y="-123"/>
      <point x="394" y="-19"/>
      <point x="411" y="7" type="curve"/>
      <point x="293" y="86"/>
      <point x="411" y="7"/>
    </contour>
    <contour>
      <point x="306" y="-149" type="curve"/>
      <point x="311" y="-146"/>
      <point x="315" y="-143"/>
      <point x="320" y="-143" type="curve"/>
      <point x="327" y="-143"/>
      <point x="334" y="-145"/>
      <point x="334" y="-153" type="curve"/>
      <point x="334" y="-166"/>
      <point x="320" y="-169"/>
      <point x="306" y="-169" type="curve"/>
      <point x="284" y="-169"/>
      <point x="264" y="-163"/>
      <point x="236" y="-150" type="curve"/>
      <point x="188" y="-236"/>
      <point x="236" y="-150"/>
      <point x="188" y="-236" type="curve"/>
      <point x="225" y="-254"/>
      <point x="257" y="-264"/>
      <point x="299" y="-264" type="curve"/>
      <point x="387" y="-264"/>
      <point x="454" y="-232"/>
      <point x="454" y="-150" type="curve"/>
      <point x="454" y="-74"/>
      <point x="398" y="-34"/>
      <point x="318" y="-34" type="curve"/>
      <point x="275" y="-34"/>
      <point x="243" y="-41"/>
      <point x="202" y="-58" type="curve"/>
      <point x="306" y="-149"/>
      <point x="202" y="-58"/>
    </contour>
  </outline>
</glyph>
<glyph name="scaron" format="1">
  <advance width="569"/>
  <unicode hex="0161"/>
  <outline>
    <contour>
      <point x="54" y="46" type="curve"/>
      <point x="134" y="14"/>
      <point x="199" y="-5"/>
      <point x="281" y="-5" type="curve"/>
      <point x="425" y="-5"/>
      <point x="532" y="38"/>
      <point x="532" y="163" type="curve"/>
      <point x="531" y="278"/>
      <point x="427" y="297"/>
      <point x="304" y="329" type="curve"/>
      <point x="249" y="342"/>
      <point x="195" y="354"/>
      <point x="195" y="387" type="curve"/>
      <point x="195" y="409"/>
      <point x="229" y="422"/>
      <point x="273" y="422" type="curve"/>
      <point x="320" y="422"/>
      <point x="377" y="406"/>
      <point x="409" y="390" type="curve"/>
      <point x="479" y="493"/>
      <point x="409" y="390"/>
      <point x="479" y="493" type="curve"/>
      <point x="432" y="517"/>
      <point x="347" y="538"/>
      <point x="278" y="538" type="curve"/>
      <point x="150" y="538"/>
      <point x="57" y="497"/>
      <point x="57" y="387" type="curve"/>
      <point x="57" y="282"/>
      <point x="141" y="248"/>
      <point x="255" y="219" type="curve"/>
      <point x="318" y="203"/>
      <point x="386" y="195"/>
      <point x="386" y="157" type="curve"/>
      <point x="386" y="129"/>
      <point x="345" y="113"/>
      <point x="297" y="113" type="curve"/>
      <point x="234" y="113"/>
      <point x="190" y="125"/>
      <point x="130" y="149" type="curve"/>
      <point x="54" y="46"/>
      <point x="130" y="149"/>
    </contour>
    <contour>
      <point x="361" y="493" type="curve"/>
      <point x="361" y="367"/>
      <point x="361" y="483"/>
      <point x="361" y="358" type="curve"/>
      <point x="479" y="358"/>
      <point x="361" y="358"/>
      <point x="479" y="358" type="curve"/>
      <point x="479" y="483"/>
      <point x="479" y="367"/>
      <point x="479" y="493" type="curve"/>
      <point x="361" y="493"/>
      <point x="479" y="493"/>
    </contour>
    <contour>
      <point x="170" y="46" type="curve"/>
      <point x="170" y="174"/>
      <point x="170" y="61"/>
      <point x="170" y="188" type="curve"/>
      <point x="52" y="188"/>
      <point x="170" y="188"/>
      <point x="52" y="188" type="curve"/>
      <point x="52" y="61"/>
      <point x="52" y="174"/>
      <point x="52" y="46" type="curve"/>
      <point x="170" y="46"/>
      <point x="52" y="46"/>
    </contour>
    <contour>
      <point x="382" y="776" type="line"/>
      <point x="220" y="610" type="line"/>
      <point x="414" y="610" type="line"/>
      <point x="529" y="776" type="line"/>
    </contour>
    <contour>
      <point x="37" y="776" type="line"/>
      <point x="155" y="610" type="line"/>
      <point x="348" y="610" type="line"/>
      <point x="187" y="776" type="line"/>
    </contour>
  </outline>
</glyph>
<glyph name="tcaron" format="1">
  <advance width="461"/>
  <unicode hex="0165"/>
  <outline>
    <contour>
      <point x="14" y="419" type="curve"/>
      <point x="393" y="419" type="line"/>
      <point x="393" y="533"/>
      <point x="393" y="419"/>
      <point x="393" y="533" type="curve"/>
      <point x="14" y="533" type="line"/>
      <point x="14" y="419"/>
      <point x="14" y="533"/>
    </contour>
    <contour>
      <point x="370" y="128" type="curve"/>
      <point x="346" y="117"/>
      <point x="329" y="113"/>
      <point x="304" y="113" type="curve"/>
      <point x="264" y="113"/>
      <point x="250" y="136"/>
      <point x="250" y="177" type="curve"/>
      <point x="250" y="687" type="line"/>
      <point x="183" y="645"/>
      <point x="165" y="642"/>
      <point x="98" y="600" type="curve"/>
      <point x="98" y="171" type="line"/>
      <point x="98" y="52"/>
      <point x="169" y="-6"/>
      <point x="286" y="-6" type="curve"/>
      <point x="342" y="-6"/>
      <point x="380" y="9"/>
      <point x="418" y="29" type="curve"/>
      <point x="370" y="128"/>
      <point x="418" y="29"/>
    </contour>
    <contour>
      <point x="412" y="587" type="line"/>
      <point x="523" y="587"/>
      <point x="599" y="660"/>
      <point x="599" y="769" type="curve"/>
      <point x="599" y="853"/>
      <point x="560" y="909"/>
      <point x="501" y="909" type="curve"/>
      <point x="453" y="909"/>
      <point x="418" y="884"/>
      <point x="418" y="835" type="curve"/>
      <point x="418" y="790"/>
      <point x="450" y="762"/>
      <point x="499" y="762" type="curve"/>
      <point x="498" y="724"/>
      <point x="486" y="678"/>
      <point x="412" y="667" type="curve"/>
    </contour>
  </outline>
</glyph>
<glyph name="uogonek" format="1">
  <advance width="740"/>
  <unicode hex="0173"/>
  <outline>
    <contour>
      <point x="554" y="533" type="curve"/>
      <point x="501" y="533"/>
      <point x="456" y="533"/>
      <point x="403" y="533" type="curve"/>
      <point x="403" y="459"/>
      <point x="403" y="494"/>
      <point x="403" y="419" type="curve"/>
      <point x="499" y="419"/>
      <point x="458" y="419"/>
      <point x="554" y="419" type="curve"/>
      <point x="554" y="494"/>
      <point x="554" y="459"/>
    </contour>
    <contour>
      <point x="174" y="533" type="curve"/>
      <point x="121" y="533"/>
      <point x="76" y="533"/>
      <point x="23" y="533" type="curve"/>
      <point x="23" y="459"/>
      <point x="23" y="494"/>
      <point x="23" y="419" type="curve"/>
      <point x="119" y="419"/>
      <point x="78" y="419"/>
      <point x="174" y="419" type="curve"/>
      <point x="174" y="494"/>
      <point x="174" y="459"/>
    </contour>
    <contour>
      <point x="554" y="0" type="curve"/>
      <point x="604" y="0"/>
      <point x="646" y="0"/>
      <point x="695" y="0" type="curve"/>
      <point x="695" y="74"/>
      <point x="695" y="39"/>
      <point x="695" y="114" type="curve"/>
      <point x="605" y="114"/>
      <point x="644" y="114"/>
      <point x="554" y="114" type="curve"/>
      <point x="554" y="39"/>
      <point x="554" y="74"/>
    </contour>
    <contour>
      <point x="631" y="0" type="curve"/>
      <point x="631" y="186"/>
      <point x="631" y="347"/>
      <point x="631" y="533" type="curve"/>
      <point x="532" y="533"/>
      <point x="577" y="533"/>
      <point x="478" y="533" type="curve"/>
      <point x="478" y="347"/>
      <point x="478" y="186"/>
      <point x="478" y="0" type="curve"/>
      <point x="577" y="0"/>
      <point x="532" y="0"/>
    </contour>
    <contour>
      <point x="518" y="255" type="curve"/>
      <point x="487" y="176"/>
      <point x="437" y="112"/>
      <point x="354" y="112" type="curve"/>
      <point x="286" y="112"/>
      <point x="250" y="153"/>
      <point x="250" y="221" type="curve"/>
      <point x="250" y="330"/>
      <point x="250" y="424"/>
      <point x="250" y="533" type="curve"/>
      <point x="152" y="533"/>
      <point x="196" y="533"/>
      <point x="98" y="533" type="curve"/>
      <point x="98" y="421"/>
      <point x="98" y="326"/>
      <point x="98" y="215" type="curve"/>
      <point x="98" y="76"/>
      <point x="183" y="-5"/>
      <point x="330" y="-5" type="curve"/>
      <point x="452" y="-5"/>
      <point x="530" y="77"/>
      <point x="581" y="197" type="curve"/>
      <point x="540" y="228"/>
      <point x="559" y="223"/>
    </contour>
    <contour>
      <point x="579" y="90" type="curve"/>
      <point x="502" y="58"/>
      <point x="430" y="38"/>
      <point x="430" y="-43" type="curve"/>
      <point x="430" y="-126"/>
      <point x="489" y="-172"/>
      <point x="576" y="-172" type="curve"/>
      <point x="622" y="-172"/>
      <point x="652" y="-160"/>
      <point x="692" y="-139" type="curve"/>
      <point x="623" y="-48"/>
      <point x="692" y="-139"/>
      <point x="623" y="-48" type="curve"/>
      <point x="610" y="-54"/>
      <point x="601" y="-61"/>
      <point x="588" y="-61" type="curve"/>
      <point x="574" y="-61"/>
      <point x="564" y="-54"/>
      <point x="564" y="-41" type="curve"/>
      <point x="564" y="-11"/>
      <point x="603" y="-5"/>
      <point x="635" y="10" type="curve"/>
      <point x="579" y="90"/>
      <point x="635" y="10"/>
    </contour>
  </outline>
</glyph>
<glyph name="circumflex" format="1">
  <advance width="647"/>
  <unicode hex="02C6"/>
  <outline>
    <contour>
      <point x="389" y="588" type="move" name="_top"/>
    </contour>
    <contour>
      <point x="298" y="588" type="line"/>
      <point x="459" y="754" type="line"/>
      <point x="266" y="754" type="line"/>
      <point x="150" y="588" type="line"/>
    </contour>
    <contour>
      <point x="629" y="588" type="line"/>
      <point x="511" y="754" type="line"/>
      <point x="318" y="754" type="line"/>
      <point x="479" y="588" type="line"/>
    </contour>
  </outline>
</glyph>
<glyph name="breve" format="1">
  <advance width="418"/>
  <unicode hex="02D8"/>
  <outline>
    <contour>
      <point x="163" y="520" type="move" name="_top"/>
    </contour>
    <contour>
      <point x="229" y="692" type="curve"/>
      <point x="229" y="655"/>
      <point x="206" y="630"/>
      <point x="164" y="630" type="curve"/>
      <point x="121" y="630"/>
      <point x="96" y="653"/>
      <point x="96" y="693" type="curve"/>
      <point x="6" y="693"/>
      <point x="45" y="693"/>
      <point x="-45" y="693" type="curve"/>
      <point x="-45" y="581"/>
      <point x="38" y="521"/>
      <point x="160" y="521" type="curve"/>
      <point x="283" y="521"/>
      <point x="369" y="579"/>
      <point x="369" y="692" type="curve"/>
      <point x="279" y="692"/>
      <point x="319" y="692"/>
    </contour>
  </outline>
</glyph>
<glyph name="dvNGA" format="1">
  <advance width="728"/>
  <unicode hex="0919"/>
  <outline>
    <contour>
      <point x="401" y="-58" type="move" name="blwm.virama"/>
    </contour>
    <contour>
      <point x="473" y="721" type="move" name="abvm.e"/>
    </contour>
    <contour>
      <point x="416" y="-143" type="move" name="blwm.u"/>
    </contour>
    <component base="dvDDA"/>
    <component base="dvAnusvara" xOffset="769" yOffset="-576"/>
    <component base="dvTopbar" xOffset="149"/>
  </outline>
</glyph>
<glyph name="dvCHA" format="1">
  <advance width="846"/>
  <unicode hex="091B"/>
  <outline>
    <contour>
      <point x="525" y="-34" type="move" name="blwm.virama"/>
    </contour>
    <contour>
      <point x="672" y="718" type="move" name="abvm.e"/>
    </contour>
    <contour>
      <point x="525" y="-113" type="move" name="blwm.u"/>
    </contour>
    <component base="dvCH"/>
    <component base="dvStem_short" xOffset="342"/>
  </outline>
</glyph>
<glyph name="dvTTHA" format="1">
  <advance width="664"/>
  <unicode hex="0920"/>
  <outline>
    <contour>
      <point x="439" y="-3" type="move" name="blwm.virama"/>
    </contour>
    <contour>
      <point x="411" y="721" type="move" name="abvm.e"/>
    </contour>
    <contour>
      <point x="459" y="-88" type="move" name="blwm.u"/>
    </contour>
    <contour>
      <point x="457" y="292" type="curve"/>
      <point x="457" y="218"/>
      <point x="412" y="171"/>
      <point x="340" y="171" type="curve"/>
      <point x="262" y="171"/>
      <point x="211" y="216"/>
      <point x="211" y="293" type="curve"/>
      <point x="211" y="363"/>
      <point x="256" y="404"/>
      <point x="325" y="404" type="curve"/>
      <point x="402" y="404"/>
      <point x="457" y="367"/>
      <point x="457" y="292" type="curve"/>
      <point x="511" y="292"/>
      <point x="550" y="292"/>
      <point x="605" y="292" type="curve"/>
      <point x="605" y="442"/>
      <point x="490" y="519"/>
      <point x="332" y="519" type="curve"/>
      <point x="177" y="519"/>
      <point x="64" y="441"/>
      <point x="64" y="293" type="curve"/>
      <point x="64" y="141"/>
      <point x="170" y="52"/>
      <point x="326" y="52" type="curve"/>
      <point x="488" y="52"/>
      <point x="605" y="136"/>
      <point x="605" y="292" type="curve"/>
      <point x="550" y="292"/>
      <point x="511" y="292"/>
    </contour>
    <component base="dvTopbar" xScale="1.10421312795" xOffset="2"/>
    <component base="dvStem_short" xOffset="82" yOffset="-8"/>
  </outline>
</glyph>
<glyph name="dvTHA" format="1">
  <advance width="766"/>
  <unicode hex="0925"/>
  <outline>
    <contour>
      <point x="57" y="449" type="curve"/>
      <point x="47" y="246"/>
      <point x="138" y="91"/>
      <point x="331" y="91" type="curve"/>
      <point x="493" y="91"/>
      <point x="577" y="173"/>
      <point x="665" y="340" type="curve"/>
      <point x="626" y="354"/>
      <point x="600" y="365"/>
      <point x="561" y="380" type="curve"/>
      <point x="514" y="274"/>
      <point x="454" y="209"/>
      <point x="347" y="209" type="curve"/>
      <point x="260" y="209"/>
      <point x="206" y="261"/>
      <point x="206" y="342" type="curve"/>
      <point x="151" y="382"/>
      <point x="111" y="409"/>
    </contour>
    <contour>
      <point x="197" y="553" type="line"/>
      <point x="203" y="589"/>
      <point x="221" y="614"/>
      <point x="263" y="614" type="curve"/>
      <point x="303" y="614"/>
      <point x="324" y="583"/>
      <point x="324" y="540" type="curve"/>
      <point x="324" y="447"/>
      <point x="191" y="449"/>
      <point x="57" y="449" type="curve"/>
      <point x="111" y="409"/>
      <point x="151" y="382"/>
      <point x="206" y="342" type="curve"/>
      <point x="348" y="345"/>
      <point x="465" y="406"/>
      <point x="465" y="542" type="curve"/>
      <point x="464" y="658"/>
      <point x="386" y="728"/>
      <point x="267" y="728" type="curve"/>
      <point x="157" y="728"/>
      <point x="91" y="681"/>
      <point x="72" y="580" type="curve"/>
    </contour>
    <component base="dvStemright" xOffset="471"/>
  </outline>
</glyph>
<glyph name="dvBA" format="1">
  <advance width="657"/>
  <unicode hex="092C"/>
  <outline>
    <contour>
      <point x="445" y="291" type="curve"/>
      <point x="412" y="225"/>
      <point x="372" y="180"/>
      <point x="302" y="180" type="curve"/>
      <point x="227" y="180"/>
      <point x="179" y="231"/>
      <point x="179" y="310" type="curve"/>
      <point x="179" y="385"/>
      <point x="226" y="431"/>
      <point x="301" y="431" type="curve"/>
      <point x="369" y="431"/>
      <point x="426" y="388"/>
      <point x="452" y="336" type="curve"/>
      <point x="501" y="381"/>
      <point x="484" y="352"/>
      <point x="533" y="397" type="curve"/>
      <point x="487" y="483"/>
      <point x="400" y="545"/>
      <point x="284" y="545" type="curve"/>
      <point x="140" y="545"/>
      <point x="33" y="466"/>
      <point x="33" y="313" type="curve"/>
      <point x="33" y="156"/>
      <point x="135" y="64"/>
      <point x="285" y="64" type="curve"/>
      <point x="414" y="64"/>
      <point x="498" y="134"/>
      <point x="548" y="252" type="curve"/>
      <point x="482" y="280"/>
      <point x="512" y="264"/>
    </contour>
    <component base="dvDiagonal" xOffset="-21" yOffset="6"/>
    <component base="dvTopbar" xScale="0.79387245512" xOffset="-3"/>
    <component base="dvStemright" xOffset="354"/>
  </outline>
</glyph>
<glyph name="dvLA" format="1">
  <advance width="891"/>
  <unicode hex="0932"/>
  <outline>
    <contour>
      <point x="729" y="11" type="move" name="blwm.virama"/>
    </contour>
    <contour>
      <point x="687" y="718" type="move" name="abvm.e"/>
    </contour>
    <contour>
      <point x="718" y="-62" type="move" name="blwm.u"/>
    </contour>
    <component base="dvLA_base"/>
    <component base="dvTopbar" xScale="1.48519216065" xOffset="10"/>
    <component base="dvStem_short" xOffset="358"/>
  </outline>
</glyph>
<glyph name="dvSA" format="1">
  <advance width="814"/>
  <unicode hex="0938"/>
  <outline>
    <contour>
      <point x="217" y="283" type="line"/>
      <point x="328" y="313"/>
      <point x="391" y="388"/>
      <point x="391" y="501" type="curve"/>
      <point x="391" y="584"/>
      <point x="351" y="642"/>
      <point x="286" y="694" type="curve"/>
      <point x="188" y="620" type="line"/>
      <point x="226" y="584"/>
      <point x="249" y="546"/>
      <point x="249" y="494" type="curve"/>
      <point x="249" y="411"/>
      <point x="163" y="389"/>
      <point x="69" y="389" type="curve"/>
    </contour>
    <contour>
      <point x="69" y="389" type="line"/>
      <point x="69" y="183"/>
      <point x="131" y="4"/>
      <point x="306" y="4" type="curve"/>
      <point x="408" y="4"/>
      <point x="482" y="54"/>
      <point x="526" y="138" type="curve"/>
      <point x="426" y="199" type="line"/>
      <point x="399" y="151"/>
      <point x="366" y="118"/>
      <point x="314" y="118" type="curve"/>
      <point x="246" y="118"/>
      <point x="220" y="197"/>
      <point x="217" y="283" type="curve"/>
    </contour>
    <component base="dvConnector" xOffset="-58" yOffset="-17"/>
    <component base="dvTopbar" xScale="1.07317505453" xOffset="2"/>
    <component base="dvStemright" xOffset="506"/>
  </outline>
</glyph>
<glyph name="dvmI" format="1">
  <advance width="310"/>
  <unicode hex="093F"/>
  <outline>
    <contour>
      <point x="237" y="689" type="curve"/>
      <point x="225" y="722"/>
      <point x="218" y="746"/>
      <point x="218" y="780" type="curve"/>
      <point x="218" y="861"/>
      <point x="292" y="884"/>
      <point x="367" y="884" type="curve"/>
      <point x="564" y="884"/>
      <point x="710" y="785"/>
      <point x="803" y="637" type="curve"/>
      <point x="837" y="664"/>
      <point x="867" y="675"/>
      <point x="903" y="703" type="curve"/>
      <point x="774" y="884"/>
      <point x="610" y="1001"/>
      <point x="369" y="1001" type="curve"/>
      <point x="215" y="1001"/>
      <point x="78" y="954"/>
      <point x="78" y="770" type="curve"/>
      <point x="78" y="714"/>
      <point x="97" y="679"/>
      <point x="123" y="633" type="curve"/>
      <point x="164" y="655"/>
      <point x="196" y="666"/>
    </contour>
    <component base="dvmAA"/>
  </outline>
</glyph>
<glyph name="dvmII" format="1">
  <advance width="310"/>
  <unicode hex="0940"/>
  <outline>
    <contour>
      <point x="227" y="656" type="line"/>
      <point x="208" y="782" type="line" smooth="yes"/>
      <point x="186" y="936"/>
      <point x="123" y="1015"/>
      <point x="3" y="1015" type="curve"/>
      <point x="-145" y="1015"/>
      <point x="-214" y="885"/>
      <point x="-225" y="707" type="curve"/>
      <point x="-100" y="644" type="line"/>
      <point x="-90" y="761"/>
      <point x="-82" y="898"/>
      <point x="-9" y="898" type="curve"/>
      <point x="37" y="898"/>
      <point x="59" y="857"/>
      <point x="70" y="778" type="curve" smooth="yes"/>
      <point x="83" y="682" type="line"/>
    </contour>
    <component base="dvmAA" xOffset="-12"/>
  </outline>
</glyph>
<glyph name="dvmU" format="1">
  <advance width="0"/>
  <unicode hex="0941"/>
  <outline>
    <contour>
      <point x="-110" y="10" type="move" name="_blwm.u"/>
    </contour>
    <contour>
      <point x="-221" y="-66" type="line"/>
      <point x="-170" y="-66"/>
      <point x="-131" y="-86"/>
      <point x="-131" y="-136" type="curve"/>
      <point x="-131" y="-184"/>
      <point x="-167" y="-205"/>
      <point x="-217" y="-205" type="curve"/>
      <point x="-301" y="-205"/>
      <point x="-345" y="-153"/>
      <point x="-402" y="-93" type="curve"/>
      <point x="-504" y="-164" type="line"/>
      <point x="-422" y="-262"/>
      <point x="-349" y="-329"/>
      <point x="-222" y="-329" type="curve"/>
      <point x="-84" y="-329"/>
      <point x="18" y="-267"/>
      <point x="18" y="-137" type="curve"/>
      <point x="18" y="-11"/>
      <point x="-84" y="50"/>
      <point x="-221" y="50" type="curve"/>
    </contour>
  </outline>
</glyph>
<glyph name="dvmUU" format="1">
  <advance width="0"/>
  <unicode hex="0942"/>
  <outline>
    <contour>
      <point x="-114" y="10" type="move" name="_blwm.u"/>
    </contour>
    <contour>
      <point x="-195" y="-210" type="line"/>
      <point x="-246" y="-210"/>
      <point x="-286" y="-190"/>
      <point x="-286" y="-141" type="curve"/>
      <point x="-286" y="-91"/>
      <point x="-244" y="-73"/>
      <point x="-191" y="-73" type="curve"/>
      <point x="-89" y="-73"/>
      <point x="-52" y="-148"/>
      <point x="-3" y="-233" type="curve"/>
      <point x="100" y="-181" type="line"/>
      <point x="38" y="-51"/>
      <point x="-40" y="44"/>
      <point x="-191" y="44" type="curve"/>
      <point x="-325" y="44"/>
      <point x="-427" y="-15"/>
      <point x="-427" y="-141" type="curve"/>
      <point x="-427" y="-265"/>
      <point x="-328" y="-326"/>
      <point x="-195" y="-326" type="curve"/>
    </contour>
  </outline>
</glyph>
<glyph name="dvmAI" format="1">
  <advance width="0"/>
  <unicode hex="0948"/>
  <outline>
    <contour>
      <point x="-54" y="731" type="move" name="_abvm.e"/>
    </contour>
    <contour>
      <point x="-456" y="780" type="line"/>
      <point x="-432" y="793"/>
      <point x="-410" y="802"/>
      <point x="-382" y="802" type="curve"/>
      <point x="-294" y="802"/>
      <point x="-241" y="752"/>
      <point x="-189" y="689" type="curve"/>
      <point x="-57" y="717" type="line"/>
      <point x="-160" y="827"/>
      <point x="-224" y="924"/>
      <point x="-371" y="924" type="curve"/>
      <point x="-428" y="924"/>
      <point x="-471" y="908"/>
      <point x="-521" y="881" type="curve"/>
    </contour>
    <contour>
      <point x="-415" y="933" type="line"/>
      <point x="-394" y="942"/>
      <point x="-375" y="949"/>
      <point x="-349" y="949" type="curve"/>
      <point x="-226" y="949"/>
      <point x="-220" y="809"/>
      <point x="-189" y="689" type="curve"/>
      <point x="-57" y="717" type="line"/>
      <point x="-114" y="902"/>
      <point x="-158" y="1070"/>
      <point x="-338" y="1070" type="curve"/>
      <point x="-391" y="1070"/>
      <point x="-430" y="1057"/>
      <point x="-477" y="1031" type="curve"/>
    </contour>
  </outline>
</glyph>
<glyph name="dvVirama" format="1">
  <advance width="0"/>
  <unicode hex="094D"/>
  <outline>
    <contour>
      <point x="-75" y="0" type="move" name="_blwm.virama"/>
    </contour>
    <contour>
      <point x="66" y="-228" type="line"/>
      <point x="-75" y="-72" type="line"/>
      <point x="-227" y="-72" type="line"/>
      <point x="-98" y="-228" type="line"/>
    </contour>
  </outline>
</glyph>
<glyph name="dvDDHxA" format="1">
  <advance width="655"/>
  <unicode hex="095D"/>
  <outline>
    <contour>
      <point x="442" y="-313" type="move" name="blwm.virama"/>
    </contour>
    <contour>
      <point x="485" y="713" type="move" name="abvm.e"/>
    </contour>
    <contour>
      <point x="456" y="-382" type="move" name="blwm.u"/>
    </contour>
    <component base="dvTopbar" xScale="1.09650376454" xOffset="2"/>
    <component base="dvAnusvara" xOffset="522" yOffset="-1101"/>
    <component base="dvDDHA_base"/>
  </outline>
</glyph>
<glyph name="dvvRR" format="1">
  <advance width="1030"/>
  <unicode hex="0960"/>
  <outline>
    <contour>
      <point x="812" y="540" type="line"/>
      <point x="812" y="471"/>
      <point x="758" y="438"/>
      <point x="685" y="438" type="curve"/>
      <point x="608" y="438"/>
      <point x="597" y="438"/>
      <point x="520" y="438" type="curve"/>
      <point x="520" y="398"/>
      <point x="520" y="369"/>
      <point x="520" y="329" type="curve"/>
      <point x="600" y="329"/>
      <point x="612" y="329"/>
      <point x="692" y="329" type="curve"/>
      <point x="842" y="329"/>
      <point x="953" y="400"/>
      <point x="953" y="540" type="curve"/>
    </contour>
    <contour>
      <point x="616" y="0" type="curve"/>
      <point x="616" y="240"/>
      <point x="616" y="478"/>
      <point x="616" y="717" type="curve"/>
      <point x="464" y="717"/>
      <point x="616" y="717"/>
      <point x="464" y="717" type="curve"/>
      <point x="464" y="478"/>
      <point x="464" y="240"/>
      <point x="464" y="0" type="curve"/>
      <point x="616" y="0"/>
      <point x="464" y="0"/>
    </contour>
    <component base="dvmE" xScale="0.938823752337" yScale="0.938823752337" xOffset="908" yOffset="-331"/>
    <component base="dvmvRR" xOffset="1025" yOffset="185"/>
    <component base="dvTopbar" xScale="1.68129552063" xOffset="15"/>
    <component base="dvStroke_down" yScale="1.4139403043" xOffset="415" yOffset="303"/>
    <component base="dvRaker" xOffset="86" yOffset="-12"/>
  </outline>
</glyph>
<glyph name="quoteright" format="1">
  <advance width="292"/>
  <unicode hex="2019"/>
  <outline>
    <contour>
      <point x="62" y="475" type="line"/>
      <point x="173" y="475"/>
      <point x="249" y="547"/>
      <point x="249" y="656" type="curve"/>
      <point x="249" y="741"/>
      <point x="210" y="797"/>
      <point x="151" y="797" type="curve"/>
      <point x="103" y="797"/>
      <point x="68" y="771"/>
      <point x="68" y="723" type="curve"/>
      <point x="68" y="677"/>
      <point x="100" y="649"/>
      <point x="149" y="649" type="curve"/>
      <point x="148" y="611"/>
      <point x="136" y="565"/>
      <point x="62" y="555" type="curve"/>
    </contour>
  </outline>
</glyph>
<glyph name="product" format="1">
  <advance width="951"/>
  <unicode hex="220F"/>
  <outline>
    <contour>
      <point x="725" y="114" type="curve"/>
      <point x="558" y="114"/>
      <point x="725" y="114"/>
      <point x="558" y="114" type="curve"/>
      <point x="558" y="0"/>
      <point x="558" y="114"/>
      <point x="558" y="0" type="curve"/>
      <point x="613" y="0"/>
      <point x="669" y="0"/>
      <point x="725" y="0" type="curve"/>
      <point x="725" y="114"/>
      <point x="725" y="0"/>
    </contour>
    <contour>
      <point x="892" y="800" type="curve"/>
      <point x="844" y="800"/>
      <point x="832" y="800"/>
      <point x="784" y="800" type="curve"/>
      <point x="784" y="686"/>
      <point x="784" y="800"/>
      <point x="784" y="686" type="curve"/>
      <point x="800" y="686"/>
      <point x="876" y="686"/>
      <point x="892" y="686" type="curve"/>
      <point x="892" y="800"/>
      <point x="892" y="686"/>
    </contour>
    <contour>
      <point x="725" y="0" type="curve"/>
      <point x="781" y="0"/>
      <point x="837" y="0"/>
      <point x="892" y="0" type="curve"/>
      <point x="892" y="114"/>
      <point x="892" y="0"/>
      <point x="892" y="114" type="curve"/>
      <point x="725" y="114"/>
      <point x="892" y="114"/>
      <point x="725" y="114" type="curve"/>
      <point x="725" y="0"/>
      <point x="725" y="114"/>
    </contour>
    <contour>
      <point x="800" y="0" type="curve"/>
      <point x="800" y="267"/>
      <point x="800" y="533"/>
      <point x="800" y="800" type="curve"/>
      <point x="648" y="800"/>
      <point x="800" y="800"/>
      <point x="648" y="800" type="curve"/>
      <point x="648" y="533"/>
      <point x="648" y="267"/>
      <point x="648" y="0" type="curve"/>
      <point x="800" y="0"/>
      <point x="648" y="0"/>
    </contour>
    <contour>
      <point x="228" y="114" type="curve"/>
      <point x="60" y="114"/>
      <point x="228" y="114"/>
      <point x="60" y="114" type="curve"/>
      <point x="60" y="0"/>
      <point x="60" y="114"/>
      <point x="60" y="0" type="curve"/>
      <point x="116" y="0"/>
      <point x="172" y="0"/>
      <point x="228" y="0" type="curve"/>
      <point x="228" y="114"/>
      <point x="228" y="0"/>
    </contour>
    <contour>
      <point x="229" y="800" type="curve"/>
      <point x="174" y="800"/>
      <point x="117" y="800"/>
      <point x="61" y="800" type="curve"/>
      <point x="61" y="686"/>
      <point x="61" y="800"/>
      <point x="61" y="686" type="curve"/>
      <point x="229" y="686"/>
      <point x="62" y="686"/>
      <point x="229" y="686" type="curve"/>
      <point x="229" y="800"/>
      <point x="229" y="686"/>
    </contour>
    <contour>
      <point x="228" y="0" type="curve"/>
      <point x="283" y="0"/>
      <point x="228" y="0"/>
      <point x="395" y="0" type="curve"/>
      <point x="395" y="114"/>
      <point x="395" y="0"/>
      <point x="395" y="114" type="curve"/>
      <point x="228" y="114"/>
      <point x="395" y="114"/>
      <point x="228" y="114" type="curve"/>
      <point x="228" y="0"/>
      <point x="228" y="114"/>
    </contour>
    <contour>
      <point x="302" y="0" type="curve"/>
      <point x="302" y="267"/>
      <point x="302" y="533"/>
      <point x="302" y="800" type="curve"/>
      <point x="150" y="800"/>
      <point x="302" y="800"/>
      <point x="150" y="800" type="curve"/>
      <point x="150" y="533"/>
      <point x="150" y="267"/>
      <point x="150" y="0" type="curve"/>
      <point x="302" y="0"/>
      <point x="150" y="0"/>
    </contour>
    <contour>
      <point x="722" y="800" type="curve"/>
      <point x="284" y="800"/>
      <point x="722" y="800"/>
      <point x="284" y="800" type="curve"/>
      <point x="284" y="686"/>
      <point x="284" y="800"/>
      <point x="284" y="686" type="curve"/>
      <point x="430" y="686"/>
      <point x="576" y="686"/>
      <point x="722" y="686" type="curve"/>
      <point x="722" y="800"/>
      <point x="722" y="686"/>
    </contour>
  </outline>
</glyph>
<glyph name="infinity" format="1">
  <advance width="960"/>
  <unicode hex="221E"/>
  <outline>
    <contour>
      <point x="287" y="204" type="curve"/>
      <point x="397" y="204"/>
      <point x="465" y="267"/>
      <point x="524" y="360" type="curve"/>
      <point x="561" y="420"/>
      <point x="594" y="474"/>
      <point x="664" y="474" type="curve"/>
      <point x="719" y="474"/>
      <point x="757" y="451"/>
      <point x="757" y="399" type="curve"/>
      <point x="757" y="346"/>
      <point x="720" y="318"/>
      <point x="664" y="318" type="curve"/>
      <point x="590" y="318"/>
      <point x="567" y="382"/>
      <point x="527" y="445" type="curve"/>
      <point x="469" y="535"/>
      <point x="397" y="590"/>
      <point x="289" y="590" type="curve"/>
      <point x="156" y="590"/>
      <point x="55" y="524"/>
      <point x="55" y="399" type="curve"/>
      <point x="55" y="273"/>
      <point x="153" y="204"/>
      <point x="287" y="204" type="curve"/>
      <point x="287" y="278"/>
      <point x="287" y="243"/>
      <point x="287" y="317" type="curve"/>
      <point x="235" y="317"/>
      <point x="204" y="349"/>
      <point x="204" y="399" type="curve"/>
      <point x="204" y="449"/>
      <point x="238" y="475"/>
      <point x="289" y="475" type="curve"/>
      <point x="357" y="475"/>
      <point x="382" y="418"/>
      <point x="416" y="359" type="curve"/>
      <point x="477" y="264"/>
      <point x="552" y="204"/>
      <point x="664" y="204" type="curve"/>
      <point x="803" y="204"/>
      <point x="904" y="270"/>
      <point x="904" y="398" type="curve"/>
      <point x="904" y="525"/>
      <point x="802" y="589"/>
      <point x="664" y="589" type="curve"/>
      <point x="554" y="589"/>
      <point x="480" y="535"/>
      <point x="421" y="443" type="curve"/>
      <point x="382" y="383"/>
      <point x="359" y="317"/>
      <point x="287" y="317" type="curve"/>
      <point x="287" y="243"/>
      <point x="287" y="278"/>
    </contour>
  </outline>
</glyph>
<glyph name="fi" format="1">
  <advance width="727"/>
  <unicode hex="FB01"/>
  <outline>
    <contour>
      <point x="478" y="766" type="curve"/>
      <point x="478" y="635"/>
      <point x="478" y="766"/>
      <point x="478" y="635" type="curve"/>
      <point x="595" y="635"/>
      <point x="478" y="635"/>
      <point x="595" y="635" type="curve"/>
      <point x="595" y="761"/>
      <point x="595" y="635"/>
      <point x="595" y="761" type="curve"/>
      <point x="478" y="761"/>
      <point x="595" y="766"/>
    </contour>
    <contour>
      <point x="208" y="-1" type="curve"/>
      <point x="263" y="-1"/>
      <point x="303" y="0"/>
      <point x="358" y="0" type="curve"/>
      <point x="358" y="114"/>
      <point x="358" y="0"/>
      <point x="358" y="114" type="curve"/>
      <point x="192" y="113"/>
      <point x="374" y="114"/>
      <point x="208" y="113" type="curve"/>
      <point x="208" y="-1"/>
      <point x="208" y="113"/>
    </contour>
    <contour>
      <point x="208" y="113" type="curve"/>
      <point x="41" y="114"/>
      <point x="224" y="113"/>
      <point x="57" y="114" type="curve"/>
      <point x="57" y="0"/>
      <point x="57" y="114"/>
      <point x="57" y="0" type="curve"/>
      <point x="113" y="0"/>
      <point x="153" y="-1"/>
      <point x="208" y="-1" type="curve"/>
      <point x="208" y="113"/>
      <point x="208" y="-1"/>
    </contour>
    <contour>
      <point x="26" y="419" type="curve"/>
      <point x="449" y="419" type="line"/>
      <point x="449" y="533"/>
      <point x="449" y="419"/>
      <point x="449" y="533" type="curve"/>
      <point x="26" y="533" type="line"/>
      <point x="26" y="419"/>
      <point x="26" y="533"/>
    </contour>
    <contour>
      <point x="284" y="0" type="curve"/>
      <point x="284" y="222"/>
      <point x="284" y="380"/>
      <point x="284" y="603" type="curve"/>
      <point x="284" y="663"/>
      <point x="334" y="693"/>
      <point x="402" y="693" type="curve"/>
      <point x="451" y="693"/>
      <point x="495" y="683"/>
      <point x="531" y="669" type="curve"/>
      <point x="554" y="704"/>
      <point x="573" y="726"/>
      <point x="595" y="761" type="curve"/>
      <point x="525" y="790"/>
      <point x="463" y="802"/>
      <point x="381" y="802" type="curve"/>
      <point x="237" y="802"/>
      <point x="130" y="736"/>
      <point x="132" y="603" type="curve"/>
      <point x="132" y="0" type="line"/>
      <point x="284" y="0"/>
      <point x="132" y="0"/>
    </contour>
    <contour>
      <point x="540" y="114" type="curve"/>
      <point x="389" y="114"/>
      <point x="540" y="114"/>
      <point x="389" y="114" type="curve"/>
      <point x="388" y="0"/>
      <point x="389" y="114"/>
      <point x="388" y="0" type="curve"/>
      <point x="439" y="0"/>
      <point x="490" y="0"/>
      <point x="540" y="0" type="curve"/>
      <point x="540" y="114"/>
      <point x="540" y="0"/>
    </contour>
    <contour>
      <point x="540" y="0" type="curve"/>
      <point x="589" y="0"/>
      <point x="638" y="0"/>
      <point x="687" y="0" type="curve"/>
      <point x="687" y="114"/>
      <point x="687" y="0"/>
      <point x="687" y="114" type="curve"/>
      <point x="540" y="114"/>
      <point x="687" y="114"/>
      <point x="540" y="114" type="curve"/>
      <point x="540" y="0"/>
      <point x="540" y="114"/>
    </contour>
    <contour>
      <point x="540" y="533" type="curve"/>
      <point x="490" y="533"/>
      <point x="439" y="533"/>
      <point x="389" y="533" type="curve"/>
      <point x="388" y="419"/>
      <point x="389" y="533"/>
      <point x="388" y="419" type="curve"/>
      <point x="540" y="419"/>
      <point x="388" y="419"/>
      <point x="540" y="419" type="curve"/>
      <point x="540" y="533"/>
      <point x="540" y="419"/>
    </contour>
    <contour>
      <point x="620" y="0" type="curve"/>
      <point x="620" y="178"/>
      <point x="620" y="355"/>
      <point x="620" y="533" type="curve"/>
      <point x="461" y="533"/>
      <point x="620" y="533"/>
      <point x="461" y="533" type="curve"/>
      <point x="461" y="355"/>
      <point x="461" y="178"/>
      <point x="461" y="0" type="curve"/>
      <point x="620" y="0"/>
      <point x="461" y="0"/>
    </contour>
  </outline>
</glyph>
<glyph name="fl" format="1">
  <advance width="746"/>
  <unicode hex="FB02"/>
  <outline>
    <contour>
      <point x="208" y="-1" type="curve"/>
      <point x="263" y="-1"/>
      <point x="303" y="0"/>
      <point x="358" y="0" type="curve"/>
      <point x="358" y="114"/>
      <point x="358" y="0"/>
      <point x="358" y="114" type="curve"/>
      <point x="192" y="113"/>
      <point x="374" y="114"/>
      <point x="208" y="113" type="curve"/>
      <point x="208" y="-1"/>
      <point x="208" y="113"/>
    </contour>
    <contour>
      <point x="208" y="113" type="curve"/>
      <point x="41" y="114"/>
      <point x="224" y="113"/>
      <point x="57" y="114" type="curve"/>
      <point x="57" y="0"/>
      <point x="57" y="114"/>
      <point x="57" y="0" type="curve"/>
      <point x="113" y="0"/>
      <point x="153" y="-1"/>
      <point x="208" y="-1" type="curve"/>
      <point x="208" y="113"/>
      <point x="208" y="-1"/>
    </contour>
    <contour>
      <point x="26" y="419" type="curve"/>
      <point x="426" y="419" type="line"/>
      <point x="426" y="533"/>
      <point x="426" y="419"/>
      <point x="426" y="533" type="curve"/>
      <point x="26" y="533" type="line"/>
      <point x="26" y="419"/>
      <point x="26" y="533"/>
    </contour>
    <contour>
      <point x="284" y="0" type="curve"/>
      <point x="284" y="222"/>
      <point x="284" y="380"/>
      <point x="284" y="603" type="curve"/>
      <point x="284" y="663"/>
      <point x="337" y="693"/>
      <point x="410" y="693" type="curve"/>
      <point x="470" y="693"/>
      <point x="524" y="683"/>
      <point x="569" y="667" type="curve"/>
      <point x="591" y="701"/>
      <point x="611" y="722"/>
      <point x="633" y="756" type="curve"/>
      <point x="552" y="789"/>
      <point x="483" y="802"/>
      <point x="391" y="802" type="curve"/>
      <point x="241" y="802"/>
      <point x="130" y="736"/>
      <point x="132" y="603" type="curve"/>
      <point x="132" y="0" type="line"/>
      <point x="284" y="0"/>
      <point x="132" y="0"/>
    </contour>
    <contour>
      <point x="558" y="113" type="curve"/>
      <point x="391" y="114"/>
      <point x="558" y="113"/>
      <point x="391" y="114" type="curve"/>
      <point x="391" y="0"/>
      <point x="391" y="114"/>
      <point x="391" y="0" type="curve"/>
      <point x="447" y="0"/>
      <point x="502" y="-1"/>
      <point x="558" y="-1" type="curve"/>
      <point x="558" y="114"/>
      <point x="558" y="-1"/>
    </contour>
    <contour>
      <point x="558" y="-1" type="curve"/>
      <point x="614" y="-1"/>
      <point x="670" y="0"/>
      <point x="726" y="0" type="curve"/>
      <point x="726" y="114"/>
      <point x="726" y="0"/>
      <point x="726" y="114" type="curve"/>
      <point x="558" y="113"/>
      <point x="726" y="114"/>
      <point x="558" y="113" type="curve"/>
      <point x="558" y="-1"/>
      <point x="558" y="114"/>
    </contour>
    <contour>
      <point x="633" y="0" type="curve"/>
      <point x="633" y="253"/>
      <point x="633" y="503"/>
      <point x="633" y="756" type="curve"/>
      <point x="481" y="756"/>
      <point x="633" y="761"/>
      <point x="481" y="761" type="curve"/>
      <point x="481" y="507"/>
      <point x="481" y="254"/>
      <point x="481" y="0" type="curve"/>
      <point x="633" y="0"/>
      <point x="481" y="0"/>
    </contour>
  </outline>
</glyph>
